<svg xmlns="http://www.w3.org/2000/svg" width="115.559" height="115.915" viewBox="0 0 115.559 115.915">
  <g id="Group_3656" data-name="Group 3656" transform="translate(-465.141 -1511.968)">
    <path id="Path_8642" data-name="Path 8642" d="M499.68,2369.219a40.5,40.5,0,1,1-1.175-24.168" transform="translate(-1054.957 -243.039) rotate(-30)" fill="none" stroke="#8ad138" stroke-linecap="round" stroke-width="4"/>
    <g id="Group_2437" data-name="Group 2437" transform="translate(-143 -44.501)">
      <path id="Path_7949" data-name="Path 7949" d="M34.631,9.246l1.172.726a7.54,7.54,0,0,1,6.451-3.593V5a8.912,8.912,0,0,0-7.623,4.246Z" transform="translate(632.873 1592.069)" fill="#125072"/>
      <path id="Path_7950" data-name="Path 7950" d="M42,2H30.055a8.918,8.918,0,0,0-7.628,4.255l-5.648,9.538H4.069A2.075,2.075,0,0,0,2,17.862V31.655a2.075,2.075,0,0,0,2.069,2.069H27.517a2.075,2.075,0,0,0,2.069-2.069V27.5a2.988,2.988,0,0,0,.366-.3l6.1-5.2h1.124a6.217,6.217,0,0,0,6.207-6.207V3.379A1.383,1.383,0,0,0,42,2ZM28.207,31.655a.69.69,0,0,1-.69.69H4.069a.69.69,0,0,1-.69-.69V17.862a.69.69,0,0,1,.69-.69H27.517a.69.69,0,0,1,.69.69V19.11l-1.379,1.414v-.593a.69.69,0,0,0-.69-.69H20.621a.69.69,0,0,0-.69.69V22.69a.69.69,0,0,0,.69.69h3.759a3.4,3.4,0,0,0,.455,3.448H22.69v1.379h4.138V28.09a3.151,3.151,0,0,0,.724.083,3.458,3.458,0,0,0,.655-.062ZM25.448,20.621v1.317L25.393,22H21.31V20.621ZM42,15.793a4.833,4.833,0,0,1-4.828,4.828H35.793a.668.668,0,0,0-.448.166l-6.331,5.4a2.121,2.121,0,0,1-2.924,0,2.065,2.065,0,0,1,.007-2.931l8.814-9.048-.993-.966L29.572,17.71a2.069,2.069,0,0,0-2.055-1.917H18.379l5.228-8.821a7.546,7.546,0,0,1,6.448-3.593H42Z" transform="translate(643 1593)" fill="#125072"/>
      <path id="Path_7951" data-name="Path 7951" d="M32,41h1.379v1.379H32Z" transform="translate(633.69 1580.897)" fill="#125072"/>
      <path id="Path_7952" data-name="Path 7952" d="M36,41h1.379v1.379H36Z" transform="translate(632.448 1580.897)" fill="#125072"/>
      <path id="Path_7953" data-name="Path 7953" d="M24,41h1.379v1.379H24Z" transform="translate(636.172 1580.897)" fill="#125072"/>
      <path id="Path_7954" data-name="Path 7954" d="M28,41h1.379v1.379H28Z" transform="translate(634.931 1580.897)" fill="#125072"/>
      <path id="Path_7955" data-name="Path 7955" d="M24,38h4.138v1.379H24Z" transform="translate(636.172 1581.828)" fill="#125072"/>
      <path id="Path_7956" data-name="Path 7956" d="M6.69,31.138h5.517a.69.69,0,0,0,.69-.69V27.69a.69.69,0,0,0-.69-.69H6.69a.69.69,0,0,0-.69.69v2.759A.69.69,0,0,0,6.69,31.138Zm.69-2.759h4.138v1.379H7.379Z" transform="translate(641.759 1585.241)" fill="#125072"/>
      <path id="Path_7957" data-name="Path 7957" d="M23.9,30.448V27.69a.69.69,0,0,0-.69-.69H17.69a.69.69,0,0,0-.69.69v2.759a.69.69,0,0,0,.69.69h5.517A.69.69,0,0,0,23.9,30.448Zm-1.379-.69H18.379V28.379h4.138Z" transform="translate(638.345 1585.241)" fill="#125072"/>
      <path id="Path_7958" data-name="Path 7958" d="M11.517,36a2.736,2.736,0,0,0-1.386.38A2.729,2.729,0,0,0,8.759,36a2.759,2.759,0,1,0,0,5.517,2.729,2.729,0,0,0,1.373-.38A2.759,2.759,0,1,0,11.517,36ZM7.379,38.759a1.379,1.379,0,1,1,1.379,1.379A1.379,1.379,0,0,1,7.379,38.759Zm4.138,1.379a1.366,1.366,0,0,1-.355-.052,2.656,2.656,0,0,0,0-2.654,1.365,1.365,0,0,1,.355-.052,1.379,1.379,0,1,1,0,2.759Z" transform="translate(641.759 1582.448)" fill="#125072"/>
      <path id="Path_7961" data-name="Path 7961" d="M4.379,14.138H5.759V12.759H7.138V11.379H5.759V10H4.379v1.379H3v1.379H4.379Z" transform="translate(642.69 1590.517)" fill="#125072"/>
      <path id="Path_7962" data-name="Path 7962" d="M12.379,18.138h1.379V16.759h1.379V15.379H13.759V14H12.379v1.379H11v1.379h1.379Z" transform="translate(640.207 1589.276)" fill="#125072"/>
      <path id="Path_7963" data-name="Path 7963" d="M5.759,54H4.379v1.379H3v1.379H4.379v1.379H5.759V56.759H7.138V55.379H5.759Z" transform="translate(642.69 1576.862)" fill="#125072"/>
      <path id="Path_7964" data-name="Path 7964" d="M13.759,50H12.379v1.379H11v1.379h1.379v1.379h1.379V52.759h1.379V51.379H13.759Z" transform="translate(640.207 1578.103)" fill="#125072"/>
    </g>
  </g>
</svg>
