<svg xmlns="http://www.w3.org/2000/svg" width="115.559" height="115.915" viewBox="0 0 115.559 115.915">
  <g id="Group_3657" data-name="Group 3657" transform="translate(-658.141 -1511.968)">
    <path id="Path_8642" data-name="Path 8642" d="M499.68,2369.219a40.5,40.5,0,1,1-1.175-24.168" transform="translate(-861.957 -243.039) rotate(-30)" fill="none" stroke="#8bd238" stroke-linecap="round" stroke-width="4"/>
    <g id="money" transform="translate(692.343 1465.979)">
      <g id="Group_2439" data-name="Group 2439" transform="translate(0 91.208)">
        <g id="Group_2438" data-name="Group 2438" transform="translate(0 0)">
          <path id="Path_7988" data-name="Path 7988" d="M46.844,113.159a1,1,0,0,0-1.391-.272l-7.518,4.928h-9.9v-4.132h10.2a1,1,0,0,0,.585-.2l7.76-5.6a1,1,0,0,0-1.179-1.623l-7.488,5.412H28.038v-4.233h10.2a1,1,0,0,0,.625-.191l7.76-6.118a1.012,1.012,0,0,0-1.25-1.592l-7.488,5.886H28.038v-4.031h10.2a1.074,1.074,0,0,0,.685-.282l7.76-7.2a1.047,1.047,0,0,0,.252-1.129A1.036,1.036,0,0,0,46,92.115H36.383c-.01,0-.03-.181-.06-.262a1.017,1.017,0,0,0-.937-.645H19.965a1.013,1.013,0,0,0-.685.272l-.675.635H8.768a1.033,1.033,0,0,0-.685.292L.323,99.593a1.047,1.047,0,0,0-.252,1.129,1.036,1.036,0,0,0,.937.665H10.6v4.031H1.008a1.008,1.008,0,1,0,0,2.016H10.6v4.233H1.008a1.008,1.008,0,1,0,0,2.016H10.6v4.132H1.008a1.008,1.008,0,1,0,0,2.016H38.237a.994.994,0,0,0,.554-.191l7.76-5.079A1.019,1.019,0,0,0,46.844,113.159ZM34.861,94.131h8.567l-5.583,5.241H29.268l5.553-5.2C34.831,94.171,34.841,94.131,34.861,94.131ZM10.885,99.371H3.578l5.583-5.241h7.277l-5.5,5.16C10.915,99.3,10.9,99.271,10.885,99.371Zm15.138.655v17.788h-13.4V100.47l6.9-6.44.837-.806H32.825l-6.48,6.037A1.043,1.043,0,0,0,26.022,100.027Z" transform="translate(0 -91.208)" fill="#125072"/>
        </g>
      </g>
      <g id="Group_2441" data-name="Group 2441" transform="translate(14.654 101.891)">
        <g id="Group_2440" data-name="Group 2440" transform="translate(0 0)">
          <path id="Path_7989" data-name="Path 7989" d="M154.308,200.645h-1.361a4.451,4.451,0,0,0-.585-1.411h1.945a1.028,1.028,0,0,0,1.018-1.018,1.011,1.011,0,0,0-1.008-1.008h-7.9a1.008,1.008,0,1,0,0,2.016h2.268a2.264,2.264,0,0,1,2.157,1.411h-4.424a1.008,1.008,0,1,0,0,2.016h4.424a3.323,3.323,0,0,1-.474.645,2.35,2.35,0,0,1-1.693.665h-2.268a1.015,1.015,0,0,0-1.008,1.028,1.04,1.04,0,0,0,.312.726l5.654,5.352a1.005,1.005,0,1,0,1.391-1.451l-.01-.01L148.926,206a4.366,4.366,0,0,0,2.852-1.26,4.691,4.691,0,0,0,1.169-2.076h1.361a1.008,1.008,0,0,0,0-2.016Z" transform="translate(-145.398 -197.208)" fill="#125072"/>
        </g>
      </g>
    </g>
  </g>
</svg>
