<svg xmlns="http://www.w3.org/2000/svg" width="257.505" height="257.504" viewBox="0 0 257.505 257.504">
  <g id="Group_3032" data-name="Group 3032" transform="translate(5 5)">
    <g id="Path_8639" data-name="Path 8639" transform="translate(0 0)" fill="#b8b9b9" opacity="0.269">
      <path d="M 123.7522583007812 250.0038146972656 C 115.1878280639648 250.0038146972656 106.628059387207 249.1408386230469 98.31069183349609 247.4388427734375 C 90.20339202880859 245.7798767089844 82.22882843017578 243.304443359375 74.60842132568359 240.0812683105469 C 67.12692260742188 236.9168701171875 59.91119003295898 233.0003356933594 53.16168975830078 228.4404754638672 C 46.47695922851562 223.9243774414062 40.19099044799805 218.738037109375 34.47842407226562 213.0254669189453 C 28.76589202880859 207.3129425048828 23.57952499389648 201.0270080566406 19.06339073181152 194.3423004150391 C 14.50349140167236 187.5928039550781 10.58695793151855 180.3771057128906 7.422558307647705 172.8956146240234 C 4.199391841888428 165.2752380371094 1.723924994468689 157.3006744384766 0.06495830416679382 149.1934356689453 C -1.637041687965393 140.8760681152344 -2.500008344650269 132.3163146972656 -2.500008344650269 123.7519073486328 C -2.500008344650269 115.1875076293945 -1.637041687965393 106.6277389526367 0.06495830416679382 98.31040954589844 C 1.723924994468689 90.20314025878906 4.199391841888428 82.22857666015625 7.422558307647705 74.60820770263672 C 10.58695793151855 67.12673950195312 14.50349140167236 59.91104125976562 19.06339073181152 53.16154098510742 C 23.57952499389648 46.476806640625 28.76589202880859 40.19087219238281 34.47842407226562 34.47834014892578 C 40.19099044799805 28.76580810546875 46.47695922851562 23.57944107055664 53.16168975830078 19.06334114074707 C 59.91119003295898 14.50347423553467 67.12692260742188 10.58694076538086 74.60842132568359 7.422540664672852 C 82.22882843017578 4.199374198913574 90.20339202880859 1.72394073009491 98.31069183349609 0.06497401744127274 C 106.628059387207 -1.637025952339172 115.187858581543 -2.499992609024048 123.7522583007812 -2.499992609024048 C 132.3166961669922 -2.499992609024048 140.87646484375 -1.637025952339172 149.1938629150391 0.06497401744127274 C 157.3011322021484 1.72394073009491 165.2757263183594 4.199374198913574 172.8960876464844 7.422540664672852 C 180.3776245117188 10.58694076538086 187.5933227539062 14.50347423553467 194.3428649902344 19.06334114074707 C 201.027587890625 23.57944107055664 207.3135223388672 28.76580810546875 213.0260925292969 34.47834014892578 C 218.7386627197266 40.19087219238281 223.9250183105469 46.476806640625 228.4411315917969 53.16154098510742 C 233.0010223388672 59.91104125976562 236.9175567626953 67.12673950195312 240.0819549560547 74.60820770263672 C 243.3051300048828 82.22857666015625 245.7805938720703 90.20314025878906 247.4395599365234 98.31040954589844 C 249.1415557861328 106.6277389526367 250.0045318603516 115.1875076293945 250.0045318603516 123.7519073486328 C 250.0045318603516 132.3163146972656 249.1415557861328 140.8760681152344 247.4395599365234 149.1934356689453 C 245.7805938720703 157.3006744384766 243.3051300048828 165.2752380371094 240.0819549560547 172.8956146240234 C 236.9175567626953 180.3771057128906 233.0010223388672 187.5928039550781 228.4411315917969 194.3423004150391 C 223.9250183105469 201.0270080566406 218.7386627197266 207.3129425048828 213.0260925292969 213.0254669189453 C 207.3135223388672 218.738037109375 201.027587890625 223.9243774414062 194.3428649902344 228.4404754638672 C 187.5933227539062 233.0003356933594 180.3775939941406 236.9168701171875 172.8960876464844 240.0812683105469 C 165.2757263183594 243.304443359375 157.3011322021484 245.7798767089844 149.1938629150391 247.4388427734375 C 140.87646484375 249.1408386230469 132.3166961669922 250.0038146972656 123.7522583007812 250.0038146972656 Z" stroke="none"/>
      <path d="M 123.7522583007812 -1.52587890625e-05 C 55.40576171875 -1.52587890625e-05 1.52587890625e-05 55.40562438964844 1.52587890625e-05 123.7519073486328 C 1.52587890625e-05 192.0981903076172 55.40576171875 247.5037994384766 123.7522583007812 247.5037994384766 C 192.0987548828125 247.5037994384766 247.5045013427734 192.0981903076172 247.5045013427734 123.7519073486328 C 247.5045013427734 55.40562438964844 192.0987548828125 -1.52587890625e-05 123.7522583007812 -1.52587890625e-05 M 123.7522583007812 -5.000015258789062 C 132.4846496582031 -5.000015258789062 141.2130737304688 -4.119979858398438 149.6950378417969 -2.384307861328125 C 157.9639739990234 -0.692230224609375 166.0976257324219 1.832550048828125 173.8699645996094 5.120010375976562 C 181.5001525878906 8.347259521484375 188.8590850830078 12.34150695800781 195.7423706054688 16.99176025390625 C 202.5589294433594 21.59693908691406 208.9687957763672 26.88551330566406 214.7938690185547 32.71055603027344 C 220.618896484375 38.53558349609375 225.9075012207031 44.94544982910156 230.5126953125 51.76197814941406 C 235.1629333496094 58.645263671875 239.1571807861328 66.004150390625 242.3844757080078 73.63429260253906 C 245.6719055175781 81.40666198730469 248.1967163085938 89.54026794433594 249.8887939453125 97.80918884277344 C 251.6244659423828 106.2911224365234 252.5045013427734 115.0195159912109 252.5045013427734 123.7519073486328 C 252.5045013427734 132.4842987060547 251.6244659423828 141.2126922607422 249.8887939453125 149.6946105957031 C 248.1967163085938 157.9635467529297 245.6719055175781 166.0971221923828 242.3844757080078 173.8694763183594 C 239.1571807861328 181.4996643066406 235.1629333496094 188.8585510253906 230.5126953125 195.7417907714844 C 225.9075012207031 202.5583801269531 220.618896484375 208.9682006835938 214.7938690185547 214.7932739257812 C 208.9687957763672 220.6183013916016 202.5589294433594 225.9068756103516 195.7423706054688 230.5120544433594 C 188.8590850830078 235.1622619628906 181.5001525878906 239.1565093994141 173.8699645996094 242.3838043212891 C 166.0976257324219 245.6712341308594 157.9639739990234 248.1960144042969 149.6950378417969 249.8880920410156 C 141.2130737304688 251.6237640380859 132.4846496582031 252.5037994384766 123.7522583007812 252.5037994384766 C 115.0198669433594 252.5037994384766 106.2914428710938 251.6237640380859 97.80947875976562 249.8880920410156 C 89.54054260253906 248.1960144042969 81.40690612792969 245.6712341308594 73.63453674316406 242.3838043212891 C 66.00436401367188 239.1565093994141 58.64543151855469 235.1622619628906 51.76214599609375 230.5120544433594 C 44.94558715820312 225.9068756103516 38.53572082519531 220.6183013916016 32.71064758300781 214.7932739257812 C 26.8856201171875 208.9682006835938 21.59701538085938 202.5583801269531 16.99183654785156 195.7417907714844 C 12.34158325195312 188.8585510253906 8.347335815429688 181.4996643066406 5.120040893554688 173.8694763183594 C 1.832611083984375 166.0971221923828 -0.69219970703125 157.9635467529297 -2.38427734375 149.6946105957031 C -4.119949340820312 141.2126922607422 -4.999984741210938 132.4842987060547 -4.999984741210938 123.7519073486328 C -4.999984741210938 115.0195159912109 -4.119949340820312 106.2911224365234 -2.38427734375 97.80918884277344 C -0.69219970703125 89.54026794433594 1.832611083984375 81.40666198730469 5.120040893554688 73.63429260253906 C 8.347335815429688 66.004150390625 12.34158325195312 58.645263671875 16.99183654785156 51.76197814941406 C 21.59701538085938 44.94544982910156 26.8856201171875 38.53558349609375 32.71064758300781 32.71055603027344 C 38.53572082519531 26.88551330566406 44.94558715820312 21.59693908691406 51.76214599609375 16.99176025390625 C 58.64543151855469 12.34150695800781 66.00436401367188 8.347259521484375 73.63453674316406 5.120010375976562 C 81.40690612792969 1.832550048828125 89.54054260253906 -0.692230224609375 97.80947875976562 -2.384307861328125 C 106.2914428710938 -4.119979858398438 115.0198669433594 -5.000015258789062 123.7522583007812 -5.000015258789062 Z" stroke="none" fill="#6098bf"/>
    </g>
    <g id="Ellipse_472" data-name="Ellipse 472" transform="translate(8.068 8.057)" fill="#fff" stroke="#6098bf" stroke-width="5">
      <ellipse cx="116" cy="115.5" rx="116" ry="115.5" stroke="none"/>
      <ellipse cx="116" cy="115.5" rx="118.5" ry="118" fill="none"/>
    </g>
  </g>
</svg>
