<svg xmlns="http://www.w3.org/2000/svg" width="115.559" height="115.915" viewBox="0 0 115.559 115.915">
  <g id="Group_3658" data-name="Group 3658" transform="translate(-853.14 -1511.968)">
    <path id="Path_8642" data-name="Path 8642" d="M499.68,2369.219a40.5,40.5,0,1,1-1.175-24.168" transform="translate(-666.958 -243.039) rotate(-30)" fill="none" stroke="#8bd238" stroke-linecap="round" stroke-width="4"/>
    <g id="Group_1685" data-name="Group 1685" transform="translate(883 1542.499)">
      <path id="Path_5374" data-name="Path 5374" d="M48.442,58.573l.271,1.261A12.983,12.983,0,0,0,57.7,52.653l-1.169-.545a11.7,11.7,0,0,1-8.089,6.465Z" transform="translate(-13.481 -14.703)" fill="#125072"/>
      <path id="Path_5375" data-name="Path 5375" d="M61.277,49.717l1.222.415a12.533,12.533,0,0,0,.391-1.418l-1.261-.271a11.7,11.7,0,0,1-.352,1.274Z" transform="translate(-17.759 -13.481)" fill="#125072"/>
      <path id="Path_5376" data-name="Path 5376" d="M44.852,22.988,34.065,8.769a1.944,1.944,0,0,0-3.1,0L22.741,19.613h-.547V16.387a1.938,1.938,0,0,0-1.935-1.936H12.516a1.938,1.938,0,0,0-1.935,1.936v3.225H9.935A1.938,1.938,0,0,0,8,21.549v1.29a1.938,1.938,0,0,0,1.935,1.935h.645V42.193a5.8,5.8,0,0,0,11.374,1.637A15.478,15.478,0,0,0,48,32.516v-.169a15.575,15.575,0,0,0-3.148-9.359Zm-32.981-6.6a.646.646,0,0,1,.645-.645h.645v2.581h1.29V15.742h1.291v2.581h1.29V15.742h1.291v2.581h1.29V15.742h.645a.646.646,0,0,1,.645.645v3.225H11.871ZM9.29,22.839v-1.29a.646.646,0,0,1,.645-.645h12.9a.646.646,0,0,1,.645.645v1.29a.647.647,0,0,1-.645.645H9.935A.647.647,0,0,1,9.29,22.839ZM20.9,38.955a2.8,2.8,0,0,1-2.581,1.3,6.03,6.03,0,0,1-3.006-1.223,5.164,5.164,0,0,1,3.006-1.357A2.859,2.859,0,0,1,20.9,38.952Zm0-14.181v1.291H17.032v1.29H20.9v1.291H18.323v1.29H20.9v1.291H17.032v1.29H20.9v1.291H18.323V35.1H20.9v2.055a4.682,4.682,0,0,0-2.581-.764,6.794,6.794,0,0,0-4.127,1.9,7.857,7.857,0,0,0-2.325-1.173V24.774ZM16.387,46.71a4.522,4.522,0,0,1-4.517-4.517V38.464a11.43,11.43,0,0,1,2.043,1.189c1.326.889,2.829,1.9,4.409,1.9a4.677,4.677,0,0,0,2.581-.765v1.409A4.521,4.521,0,0,1,16.387,46.71ZM46.71,32.516a14.19,14.19,0,0,1-24.519,9.733c0-.019,0-.037,0-.055V24.774h.645a1.937,1.937,0,0,0,1.935-1.935v-1.29a1.924,1.924,0,0,0-.737-1.509L32,9.55a.679.679,0,0,1,1.042,0L43.824,23.768a14.274,14.274,0,0,1,2.886,8.579Z" fill="#125072"/>
      <path id="Path_5377" data-name="Path 5377" d="M40.25,57.007a2.586,2.586,0,0,1,.867-1.719l-.912-.913a4.25,4.25,0,0,0-1.154,1.931,1.711,1.711,0,0,0,.25,1.653,1.376,1.376,0,0,0,.977.337,3.9,3.9,0,0,0,2.608-1.24l-.913-.912a2.725,2.725,0,0,1-1.724.862Z" transform="translate(-10.32 -15.459)" fill="#125072"/>
      <path id="Path_5378" data-name="Path 5378" d="M44.331,49.742c-1.745-1.747-4.991-1.341-7.234.9s-2.649,5.489-.9,7.235a3.876,3.876,0,0,0,2.8,1.084,6.44,6.44,0,0,0,4.438-1.987c2.243-2.243,2.649-5.489.9-7.234Zm-1.815,6.322c-1.741,1.74-4.167,2.146-5.409.9s-.838-3.669.9-5.409a5.178,5.178,0,0,1,3.518-1.624,2.613,2.613,0,0,1,1.893.721c1.241,1.242.836,3.669-.9,5.409Z" transform="translate(-9.037 -13.552)" fill="#125072"/>
      <path id="Path_5379" data-name="Path 5379" d="M40.792,39.855a4.24,4.24,0,0,0-1.153-1.93l-.913.912a2.589,2.589,0,0,1,.868,1.719,2.7,2.7,0,0,1-1.725-.861l-.912.912a3.9,3.9,0,0,0,2.608,1.239,1.376,1.376,0,0,0,.977-.337,1.715,1.715,0,0,0,.25-1.654Z" transform="translate(-9.652 -9.975)" fill="#125072"/>
      <path id="Path_5380" data-name="Path 5380" d="M40.46,41.428c1.746-1.746,1.341-4.991-.9-7.234s-5.489-2.649-7.234-.9-1.341,4.991.9,7.234a6.444,6.444,0,0,0,4.438,1.988,3.879,3.879,0,0,0,2.8-1.085ZM33.235,34.2a2.614,2.614,0,0,1,1.892-.721,5.178,5.178,0,0,1,3.518,1.624c1.741,1.741,2.146,4.167.9,5.41s-3.67.837-5.41-.9-2.145-4.167-.9-5.41Z" transform="translate(-7.746 -8.069)" fill="#125072"/>
      <path id="Path_5381" data-name="Path 5381" d="M52.849,44.412a1.376,1.376,0,0,0,.977.337,3.894,3.894,0,0,0,2.608-1.24l-.912-.913a2.726,2.726,0,0,1-1.725.861,2.591,2.591,0,0,1,.868-1.719l-.913-.912a4.252,4.252,0,0,0-1.153,1.93,1.715,1.715,0,0,0,.249,1.655Z" transform="translate(-14.836 -10.942)" fill="#125072"/>
      <path id="Path_5382" data-name="Path 5382" d="M50.644,37.1C48.4,39.34,48,42.585,49.742,44.33a3.871,3.871,0,0,0,2.8,1.085,6.444,6.444,0,0,0,4.438-1.988c2.244-2.243,2.648-5.489.9-7.234S52.888,34.853,50.644,37.1Zm6.323.009c1.243,1.242.837,3.669-.9,5.409s-4.167,2.147-5.409.9-.837-3.67.9-5.41a5.176,5.176,0,0,1,3.518-1.623,2.616,2.616,0,0,1,1.891.721Z" transform="translate(-13.552 -9.036)" fill="#125072"/>
      <path id="Path_5383" data-name="Path 5383" d="M39.613,26.064c1.423,0,2.581-1.447,2.581-3.225s-1.157-3.226-2.581-3.226-2.581,1.447-2.581,3.226S38.189,26.064,39.613,26.064Zm0-5.161c.7,0,1.291.887,1.291,1.936s-.591,1.935-1.291,1.935-1.29-.887-1.29-1.935S38.913,20.9,39.613,20.9Z" transform="translate(-9.677 -3.871)" fill="#125072"/>
      <path id="Path_5384" data-name="Path 5384" d="M49.291,30.9c1.423,0,2.581-1.447,2.581-3.226s-1.158-3.225-2.581-3.225S46.71,25.9,46.71,27.677,47.867,30.9,49.291,30.9Zm0-5.161c.7,0,1.29.887,1.29,1.935s-.591,1.936-1.29,1.936S48,28.727,48,27.677,48.591,25.742,49.291,25.742Z" transform="translate(-12.903 -5.484)" fill="#125072"/>
    </g>
  </g>
</svg>
