<svg xmlns="http://www.w3.org/2000/svg" width="115.559" height="115.915" viewBox="0 0 115.559 115.915">
  <g id="Group_3732" data-name="Group 3732" transform="translate(-1043.141 -1511.968)">
    <path id="Path_8642" data-name="Path 8642" d="M499.68,2369.219a40.5,40.5,0,1,1-1.175-24.168" transform="translate(-476.957 -243.039) rotate(-30)" fill="none" stroke="#8ad138" stroke-linecap="round" stroke-width="4"/>
    <g id="miscellaneous" transform="translate(1080.993 1550.499)">
      <g id="Group_2443" data-name="Group 2443" transform="translate(7.231 11.406)">
        <g id="Group_2442" data-name="Group 2442">
          <path id="Path_7990" data-name="Path 7990" d="M117.983,173.557l-1.959-5.781a.781.781,0,0,0-.74-.531h-.114V155.917a9.922,9.922,0,1,0-19.843,0v11.329h-.114a.781.781,0,0,0-.74.531l-1.959,5.781a.781.781,0,0,0,.74,1.032h23.989a.781.781,0,0,0,.74-1.032ZM96.89,155.917a8.359,8.359,0,0,1,16.718,0v11.329H96.89Zm-2.545,17.11,1.429-4.219h18.95l1.43,4.219Z" transform="translate(-92.474 -145.995)" fill="#125072"/>
        </g>
      </g>
      <g id="Group_2445" data-name="Group 2445" transform="translate(19.225)">
        <g id="Group_2444" data-name="Group 2444">
          <path id="Path_7991" data-name="Path 7991" d="M246.781,0A.781.781,0,0,0,246,.781V5.469a.781.781,0,0,0,1.563,0V.781A.781.781,0,0,0,246.781,0Z" transform="translate(-246)" fill="#125072"/>
        </g>
      </g>
      <g id="Group_2447" data-name="Group 2447" transform="translate(19.225 7.732)">
        <g id="Group_2446" data-name="Group 2446">
          <path id="Path_7992" data-name="Path 7992" d="M247.334,99.192a.782.782,0,1,0,.229.553A.786.786,0,0,0,247.334,99.192Z" transform="translate(-246 -98.964)" fill="#125072"/>
        </g>
      </g>
      <g id="Group_2449" data-name="Group 2449" transform="translate(3.099 20.911)">
        <g id="Group_2448" data-name="Group 2448">
          <path id="Path_7993" data-name="Path 7993" d="M43.956,267.66H40.368a.781.781,0,0,0,0,1.563h3.587a.781.781,0,1,0,0-1.562Z" transform="translate(-39.587 -267.66)" fill="#125072"/>
        </g>
      </g>
      <g id="Group_2451" data-name="Group 2451" transform="translate(0.007 20.911)">
        <g id="Group_2450" data-name="Group 2450">
          <path id="Path_7994" data-name="Path 7994" d="M1.341,267.889a.781.781,0,0,0-1.1,0,.781.781,0,0,0,.552,1.334.781.781,0,0,0,.552-1.334Z" transform="translate(-0.007 -267.66)" fill="#125072"/>
        </g>
      </g>
      <g id="Group_2453" data-name="Group 2453" transform="translate(12.184 3.914)">
        <g id="Group_2452" data-name="Group 2452">
          <path id="Path_7995" data-name="Path 7995" d="M158.439,53.132l-1.059-2.556a.781.781,0,1,0-1.444.6L157,53.73a.781.781,0,0,0,1.444-.6Z" transform="translate(-155.877 -50.093)" fill="#125072"/>
        </g>
      </g>
      <g id="Group_2455" data-name="Group 2455" transform="translate(2.228 13.87)">
        <g id="Group_2454" data-name="Group 2454">
          <path id="Path_7996" data-name="Path 7996" d="M32.067,178.658,29.511,177.6a.781.781,0,0,0-.6,1.444l2.556,1.059a.781.781,0,1,0,.6-1.444Z" transform="translate(-28.43 -177.54)" fill="#125072"/>
        </g>
      </g>
      <g id="Group_2457" data-name="Group 2457" transform="translate(32.089 20.911)">
        <g id="Group_2456" data-name="Group 2456">
          <path id="Path_7997" data-name="Path 7997" d="M415.031,267.66h-3.587a.781.781,0,0,0,0,1.563h3.587a.781.781,0,1,0,0-1.562Z" transform="translate(-410.662 -267.66)" fill="#125072"/>
        </g>
      </g>
      <g id="Group_2459" data-name="Group 2459" transform="translate(38.443 20.911)">
        <g id="Group_2458" data-name="Group 2458">
          <path id="Path_7998" data-name="Path 7998" d="M493.327,267.889a.781.781,0,1,0,.229.552A.787.787,0,0,0,493.327,267.889Z" transform="translate(-491.993 -267.66)" fill="#125072"/>
        </g>
      </g>
      <g id="Group_2461" data-name="Group 2461" transform="translate(30.278 6.014)">
        <g id="Group_2460" data-name="Group 2460">
          <path id="Path_7999" data-name="Path 7999" d="M392.651,77.21a.782.782,0,0,0-1.1,0L387.7,81.054a.781.781,0,0,0,1.1,1.1l3.844-3.844A.782.782,0,0,0,392.651,77.21Z" transform="translate(-387.473 -76.981)" fill="#125072"/>
        </g>
      </g>
      <g id="Group_2463" data-name="Group 2463" transform="translate(4.328 6.014)">
        <g id="Group_2462" data-name="Group 2462">
          <path id="Path_8000" data-name="Path 8000" d="M60.5,81.056l-3.844-3.844a.781.781,0,0,0-1.1,1.1l3.844,3.844a.781.781,0,0,0,1.1-1.105Z" transform="translate(-55.321 -76.983)" fill="#125072"/>
        </g>
      </g>
      <g id="Group_2465" data-name="Group 2465" transform="translate(25.207 3.914)">
        <g id="Group_2464" data-name="Group 2464">
          <path id="Path_8001" data-name="Path 8001" d="M324.7,50.153a.782.782,0,0,0-1.021.423l-1.059,2.556a.781.781,0,1,0,1.444.6l1.059-2.556A.781.781,0,0,0,324.7,50.153Z" transform="translate(-322.561 -50.094)" fill="#125072"/>
        </g>
      </g>
      <g id="Group_2467" data-name="Group 2467" transform="translate(33.666 13.87)">
        <g id="Group_2466" data-name="Group 2466">
          <path id="Path_8002" data-name="Path 8002" d="M434.9,178.021a.781.781,0,0,0-1.021-.423l-2.556,1.059a.781.781,0,1,0,.6,1.444l2.556-1.059A.781.781,0,0,0,434.9,178.021Z" transform="translate(-430.842 -177.539)" fill="#125072"/>
        </g>
      </g>
      <g id="Group_2469" data-name="Group 2469" transform="translate(17.663 16.329)">
        <g id="Group_2468" data-name="Group 2468">
          <path id="Path_8003" data-name="Path 8003" d="M228.345,209.008A2.346,2.346,0,0,0,226,211.352v3.75a2.344,2.344,0,0,0,4.687,0v-3.75A2.346,2.346,0,0,0,228.345,209.008Zm.781,6.094a.781.781,0,1,1-1.562,0v-3.75a.781.781,0,0,1,1.563,0Z" transform="translate(-226.001 -209.008)" fill="#125072"/>
        </g>
      </g>
      <g id="Group_2471" data-name="Group 2471" transform="translate(17.663 26.329)">
        <g id="Group_2470" data-name="Group 2470">
          <path id="Path_8004" data-name="Path 8004" d="M228.345,337.005a2.344,2.344,0,1,0,2.344,2.344A2.346,2.346,0,0,0,228.345,337.005Zm0,3.125a.781.781,0,1,1,.781-.781A.782.782,0,0,1,228.345,340.13Z" transform="translate(-226.001 -337.005)" fill="#125072"/>
        </g>
      </g>
    </g>
  </g>
</svg>
