<svg id="Page-1" xmlns="http://www.w3.org/2000/svg" width="107.716" height="111.924" viewBox="0 0 107.716 111.924">
  <g id="_033---Insurance" data-name="033---Insurance" transform="translate(0 0)">
    <path id="Shape" d="M43.576,74.906,64.115,60.284a19.442,19.442,0,0,0,8.212-15.831V14.374a.929.929,0,0,0-.557-.853L42.979,1.077a.929.929,0,0,0-.743,0L13.446,13.522a.929.929,0,0,0-.557.853v30.09A19.438,19.438,0,0,0,21.1,60.3L41.642,74.917A1.672,1.672,0,0,0,43.576,74.906Z" transform="translate(11.044 -0.999)" fill="#894b9d"/>
    <path id="Shape-2" data-name="Shape" d="M21.98,50.529a12.049,12.049,0,0,1-5.091-9.777V14.944L39.178,5.317l22.289,9.627V40.762a12.047,12.047,0,0,1-5.091,9.777l-17.2,12.242Z" transform="translate(14.473 2.703)" fill="#b49aca"/>
    <path id="Shape-3" data-name="Shape" d="M31.377,38.614a1.857,1.857,0,0,1-1.114-.371l-8.49-6.369A1.857,1.857,0,0,1,24,28.9l7.058,5.29L46.916,14.369a1.858,1.858,0,1,1,2.9,2.32L32.835,37.912A1.857,1.857,0,0,1,31.377,38.614Z" transform="translate(18.023 9.866)" fill="#fff"/>
    <path id="Shape-4" data-name="Shape" d="M24.73,56.192l-8.485-8.487a20.246,20.246,0,0,1-4.291-6.336L7.8,31.676A4.062,4.062,0,1,0,.368,34.96L7.647,50.975A18,18,0,0,0,11.3,56.25L24.73,69.681H42.717V64.367a17.562,17.562,0,0,0-3.663-11.005,11.605,11.605,0,0,0-5.329-3.914,39.853,39.853,0,0,1-11.243-7.166A6.657,6.657,0,0,0,13.5,42.7" transform="translate(-0.004 23.192)" fill="#fdd7ad"/>
    <path id="Shape-5" data-name="Shape" d="M52.985,56.192l8.487-8.487a20.246,20.246,0,0,0,4.291-6.336l4.159-9.694a4.062,4.062,0,1,1,7.43,3.284L70.071,50.975a18,18,0,0,1-3.655,5.275L52.985,69.681H35V64.367a17.562,17.562,0,0,1,3.665-11.005,11.605,11.605,0,0,1,5.329-3.914,39.844,39.844,0,0,0,11.241-7.166,6.661,6.661,0,0,1,8.988.416" transform="translate(30.001 23.192)" fill="#fdd7ad"/>
    <rect id="Rectangle-path" width="26" height="18" rx="1" transform="translate(86.089 111.416) rotate(180)" fill="#6098bf"/>
    <path id="Shape-6" data-name="Shape" d="M39.715,58.715H37.857a1.857,1.857,0,1,1,0-3.715h1.857a1.857,1.857,0,1,1,0,3.715Z" transform="translate(30.86 45.302)" fill="#2c3e50"/>
    <path id="Rectangle-path-2" data-name="Rectangle-path" d="M1.324,0H25.152a1.324,1.324,0,0,1,1.324,1.324V17.209a1.324,1.324,0,0,1-1.324,1.324H1.324A1.324,1.324,0,0,1,0,17.209V1.324A1.324,1.324,0,0,1,1.324,0Z" transform="translate(21.341 93.392)" fill="#6098bf"/>
    <path id="Shape-7" data-name="Shape" d="M22.715,58.715H20.857a1.857,1.857,0,1,1,0-3.715h1.857a1.857,1.857,0,1,1,0,3.715Z" transform="translate(16.283 45.302)" fill="#2c3e50"/>
    <path id="Shape-8" data-name="Shape" d="M21.762,51.175a1.883,1.883,0,0,1-2.638,0l-8.488-8.488a22.157,22.157,0,0,1-3.232-4.1c-.167-.279-.316-.539-.464-.817l.706-.65A6.393,6.393,0,0,1,10,35.61a18.257,18.257,0,0,0,3.269,4.458l8.488,8.47A1.872,1.872,0,0,1,21.762,51.175Z" transform="translate(5.943 28.677)" fill="#f09372"/>
    <path id="Shape-9" data-name="Shape" d="M43.409,51.175a1.883,1.883,0,0,0,2.638,0l8.488-8.488a22.157,22.157,0,0,0,3.232-4.1c.167-.279.316-.539.464-.817l-.706-.65a6.393,6.393,0,0,0-2.359-1.5A18.257,18.257,0,0,1,51.9,40.068l-8.488,8.47A1.872,1.872,0,0,0,43.409,51.175Z" transform="translate(36.747 28.677)" fill="#f09372"/>
  </g>
</svg>
