<svg xmlns="http://www.w3.org/2000/svg" width="40" height="40" viewBox="0 0 40 40">
  <g id="insurance-document-report-security-protect" transform="translate(-2 -2)">
    <path id="Path_7945" data-name="Path 7945" d="M39.236,38.626l-.943.943,2.667,2.667a.667.667,0,0,0,.943,0l6-6-.943-.943-5.529,5.529Z" transform="translate(-12.098 -11.098)" fill="#125072"/>
    <path id="Path_7946" data-name="Path 7946" d="M41.333,18H38a7.363,7.363,0,0,1-4.4-1.467l-3.2-2.4a.66.66,0,0,0-.8,0l-2.267,1.7V8.667H32A.667.667,0,0,0,32.667,8V5.333A3.333,3.333,0,0,0,29.333,2H10.667A3.333,3.333,0,0,0,7.333,5.333v30H2.667A.667.667,0,0,0,2,36v2.667A3.333,3.333,0,0,0,5.333,42H24a3.3,3.3,0,0,0,2.827-1.593l2.86,1.513a.653.653,0,0,0,.627,0l7.073-3.747A8.635,8.635,0,0,0,42,30.52V18.667A.667.667,0,0,0,41.333,18Zm-14-12.667a2,2,0,1,1,4,0v2h-4Zm-20,33.333a2,2,0,1,1-4,0v-2h4Zm16.667,2H7.98a3.283,3.283,0,0,0,.687-2V5.333a2.006,2.006,0,0,1,2-2h16.02a3.283,3.283,0,0,0-.687,2V16.807A7.359,7.359,0,0,1,22,18H18.667a.667.667,0,0,0-.667.667v.667H11.333v1.333H18v2.667H11.333v1.333H18v2.667H11.333v1.333H18V30.52c0,.273.02.547.04.813H11.333v1.333h6.94a8.8,8.8,0,0,0,1.187,2.667H11.333v1.333H20.56a8.544,8.544,0,0,0,2.053,1.507l3.04,1.613A1.991,1.991,0,0,1,24,40.667ZM40.667,30.52a7.325,7.325,0,0,1-3.9,6.48L30,40.58,23.233,37a7.325,7.325,0,0,1-3.9-6.48V19.333H22A8.7,8.7,0,0,0,27.2,17.6L30,15.5l2.8,2.1A8.7,8.7,0,0,0,38,19.333h2.667Z" fill="#125072"/>
    <path id="Path_7947" data-name="Path 7947" d="M26.667,8.667h-2v-2A.667.667,0,0,0,24,6H21.333a.667.667,0,0,0-.667.667v2h-2A.667.667,0,0,0,18,9.333V12a.667.667,0,0,0,.667.667h2v2a.667.667,0,0,0,.667.667H24a.667.667,0,0,0,.667-.667v-2h2A.667.667,0,0,0,27.333,12V9.333A.667.667,0,0,0,26.667,8.667ZM26,11.333H24a.667.667,0,0,0-.667.667v2H22V12a.667.667,0,0,0-.667-.667h-2V10h2A.667.667,0,0,0,22,9.333v-2h1.333v2A.667.667,0,0,0,24,10h2Z" transform="translate(-5.333 -1.333)" fill="#125072"/>
    <path id="Path_7948" data-name="Path 7948" d="M41.333,26.333l-1.6-1.2a.667.667,0,0,0-.8,0l-1.6,1.2a10.061,10.061,0,0,1-6,2h-.667A.667.667,0,0,0,30,29v9.183a5.987,5.987,0,0,0,3.193,5.3l5.829,3.085a.663.663,0,0,0,.624,0l5.828-3.085a5.986,5.986,0,0,0,3.193-5.3V29A.667.667,0,0,0,48,28.333h-.667a10.057,10.057,0,0,1-6-2Zm6,11.85a4.657,4.657,0,0,1-2.484,4.125l-5.516,2.92-5.517-2.92a4.658,4.658,0,0,1-2.483-4.125V29.667a11.4,11.4,0,0,0,6.8-2.267l1.2-.9,1.2.9a11.4,11.4,0,0,0,6.8,2.267Z" transform="translate(-9.333 -7.667)" fill="#125072"/>
    <rect id="Rectangle_783" data-name="Rectangle 783" width="12" height="1.333" transform="translate(11.333 15.333)" fill="#125072"/>
  </g>
</svg>
