<svg xmlns="http://www.w3.org/2000/svg" width="119.193" height="119.193" viewBox="0 0 119.193 119.193">
  <g id="Group_3731" data-name="Group 3731" transform="translate(-467.497 -985.923)">
    <path id="Union_10" data-name="Union 10" d="M0,48.66A48.661,48.661,0,0,1,48.66,0h48.66V48.841h0A48.66,48.66,0,0,1,0,48.66Z" transform="translate(561.501 985.923) rotate(75)" fill="#6098bf"/>
    <ellipse id="Ellipse_474" data-name="Ellipse 474" cx="45.042" cy="45.043" rx="45.042" ry="45.043" transform="translate(558.943 990.354) rotate(75)" fill="#8fd83a"/>
    <g id="Group_3661" data-name="Group 3661">
      <path id="Path_8640" data-name="Path 8640" d="M37.083,0A37.083,37.083,0,1,1,0,37.083,37.083,37.083,0,0,1,37.083,0Z" transform="translate(553.315 1000.102) rotate(75)" fill="#fff"/>
      <g id="Group_3016" data-name="Group 3016" transform="translate(501.15 1021.336)">
        <g id="Group_810" data-name="Group 810" transform="translate(40.618 16.587)">
          <g id="Group_809" data-name="Group 809" transform="translate(0 0)">
            <path id="Path_5340" data-name="Path 5340" d="M6.1.911A15.143,15.143,0,0,0,.776,0a.776.776,0,1,0,0,1.552A13.369,13.369,0,0,1,5.406,2.3a.786.786,0,0,0,.346.082A.776.776,0,0,0,6.1.911Z" fill="#125072"/>
          </g>
        </g>
        <g id="Group_812" data-name="Group 812" transform="translate(0 0)">
          <g id="Group_811" data-name="Group 811">
            <path id="Path_5341" data-name="Path 5341" d="M50.583,28.542l-3.2-.915a.326.326,0,0,1-.234-.312v-1.07a5.86,5.86,0,0,0,.741-.608,5.705,5.705,0,0,0,1.746-4.127V20.035l.31-.62a4.941,4.941,0,0,0,.519-2.2v-4a.775.775,0,0,0-.775-.776H42.223A4.929,4.929,0,0,0,37.3,17.363v.045a4.108,4.108,0,0,0,.433,1.831l.4.794V21.3a6.052,6.052,0,0,0,2.487,4.893v1.121c0,.173,0,.245-.64.428l-1.563.446-4.522-1.645a.774.774,0,0,0-.212-.595l-1.445-1.517V21.885c.153-.127.3-.256.449-.392a9.106,9.106,0,0,0,2.868-6.619V12.84a8.961,8.961,0,0,0,.829-3.77V.776A.775.775,0,0,0,35.609,0H24a7.419,7.419,0,0,0-7.41,7.412V9.07a8.956,8.956,0,0,0,.829,3.77v1.752a9.475,9.475,0,0,0,3.318,7.233v2.608L19.289,25.95a.776.776,0,0,0-.212.595L14.3,28.28a4.066,4.066,0,0,0-.958.5l-.75-.375A5.908,5.908,0,0,0,15.568,26a.766.766,0,0,0,0-.693,13.816,13.816,0,0,1-.681-4.815c-.018-.549-.035-1.067-.068-1.528a6.748,6.748,0,0,0-6.58-6.527,6.746,6.746,0,0,0-6.578,6.527c-.033.461-.05.979-.068,1.528a13.762,13.762,0,0,1-.682,4.814.779.779,0,0,0,0,.694,5.926,5.926,0,0,0,2.974,2.4L1.8,29.447A3.249,3.249,0,0,0,0,32.367V38.1a.775.775,0,0,0,1.551,0V32.367A1.7,1.7,0,0,1,2.5,30.834l2.592-1.295.9.856a3.261,3.261,0,0,0,4.5,0l.9-.856.846.422a4.088,4.088,0,0,0-.623,2.166V38.1a.775.775,0,0,0,1.551,0v-5.97a2.548,2.548,0,0,1,1.673-2.389l5.032-1.831,2.094,3.142a1.6,1.6,0,0,0,1.177.707,1.448,1.448,0,0,0,.16.009,1.6,1.6,0,0,0,1.133-.47l1.278-1.278V38.1a.775.775,0,0,0,1.551,0v-8.08L28.539,31.3a1.6,1.6,0,0,0,1.133.47c.053,0,.106,0,.159-.007a1.6,1.6,0,0,0,1.179-.708L33.1,27.91l5.032,1.829a2.55,2.55,0,0,1,1.673,2.389V38.1a.775.775,0,1,0,1.551,0v-5.97a4.1,4.1,0,0,0-1.147-2.838l.192-.054a4.35,4.35,0,0,0,.722-.262l1.98,1.982V38.1a.775.775,0,1,0,1.551,0V30.955l1.967-1.967a1.888,1.888,0,0,0,.33.13l3.2.915A1.721,1.721,0,0,1,51.4,31.681V38.1a.775.775,0,1,0,1.551,0V31.681A3.276,3.276,0,0,0,50.583,28.542ZM4.976,27.171a5.572,5.572,0,0,1-2.489-1.6,8.594,8.594,0,0,0,.442-1.858,5.786,5.786,0,0,0,2.047,2.526Zm4.443,2.1a1.712,1.712,0,0,1-2.359,0l-.722-.685a1.617,1.617,0,0,0,.189-.758V27a5.761,5.761,0,0,0,3.424,0v.826a1.6,1.6,0,0,0,.189.758ZM8.241,25.71a4.205,4.205,0,0,1-4.2-4.2.776.776,0,0,0-.776-.776.722.722,0,0,0-.127.012l.008-.2c.017-.534.033-1.038.065-1.469A5.756,5.756,0,0,1,4.776,15.46a4.821,4.821,0,0,1,6.927,0,5.755,5.755,0,0,1,1.567,3.617c.032.431.048.935.065,1.469l0,.138a6.961,6.961,0,0,0-3.831-2.8,9.7,9.7,0,0,0-2.95-.467.775.775,0,0,0-.537.236l-1.4,1.452A.775.775,0,1,0,5.74,20.182L6.9,18.975c1,.05,4.228.425,5.484,3.188A4.19,4.19,0,0,1,8.241,25.71ZM11.5,27.174V26.25a5.747,5.747,0,0,0,2.047-2.53,8.551,8.551,0,0,0,.442,1.853A5.6,5.6,0,0,1,11.5,27.174Zm7.463-12.583V12.667a.761.761,0,0,0-.077-.337,7.442,7.442,0,0,1-.752-3.26V7.412A5.865,5.865,0,0,1,24,1.552H34.833V9.07a7.442,7.442,0,0,1-.752,3.26.761.761,0,0,0-.077.337v2.207a7.445,7.445,0,0,1-2.378,5.487q-.288.268-.6.5l-.012.009a7.458,7.458,0,0,1-5.033,1.5A7.683,7.683,0,0,1,18.967,14.592ZM23.335,30.2a.05.05,0,0,1-.044.015.054.054,0,0,1-.039-.024L20.84,26.571l.776-.815,3.66,2.5Zm3.15-2.994-4.2-2.871V22.885a8.709,8.709,0,0,0,3.6,1.039c.206.014.408.02.611.02a8.979,8.979,0,0,0,4.192-1.027v1.416Zm3.235,2.985a.055.055,0,0,1-.083.009l-1.941-1.941,3.66-2.5.776.817Zm14.162-.654-1.759-1.761a2.159,2.159,0,0,0,.048-.46v-.327a5.507,5.507,0,0,0,1.536.271l.178,0A5.762,5.762,0,0,0,45.594,27v.312a1.871,1.871,0,0,0,.056.452Zm2.926-5.011a4.173,4.173,0,0,1-3.054,1.183A4.342,4.342,0,0,1,39.681,21.3V19.852A.79.79,0,0,0,39.6,19.5l-.48-.958a2.556,2.556,0,0,1-.268-1.138v-.045a3.374,3.374,0,0,1,3.371-3.371h6.688v3.221a3.39,3.39,0,0,1-.356,1.508l-.392.782a.769.769,0,0,0-.082.348V21.51A4.168,4.168,0,0,1,46.807,24.525Z" fill="#125072"/>
          </g>
        </g>
        <g id="Group_814" data-name="Group 814" transform="translate(48.083 32.345)">
          <g id="Group_813" data-name="Group 813" transform="translate(0 0)">
            <path id="Path_5342" data-name="Path 5342" d="M.776,0A.774.774,0,0,0,0,.775V5.752a.775.775,0,0,0,1.551,0V.775A.774.774,0,0,0,.776,0Z" fill="#125072"/>
          </g>
        </g>
        <g id="Group_816" data-name="Group 816" transform="translate(3.318 33.37)">
          <g id="Group_815" data-name="Group 815" transform="translate(0 0)">
            <path id="Path_5343" data-name="Path 5343" d="M.775,0A.775.775,0,0,0,0,.776V4.728a.775.775,0,0,0,1.551,0V.776A.776.776,0,0,0,.775,0Z" fill="#125072"/>
          </g>
        </g>
        <g id="Group_818" data-name="Group 818" transform="translate(19.904 7.047)">
          <g id="Group_817" data-name="Group 817" transform="translate(0 0)">
            <path id="Path_5344" data-name="Path 5344" d="M12.935,2.3C10-.63,3.864-.07,1.362.308A1.592,1.592,0,0,0,0,1.894V3.68a.776.776,0,1,0,1.552,0V1.894a.05.05,0,0,1,.041-.051A24.4,24.4,0,0,1,6.631,1.6c2.419.16,4.171.769,5.207,1.8a.776.776,0,0,0,1.1-1.1Z" fill="#125072"/>
          </g>
        </g>
        <g id="Group_820" data-name="Group 820" transform="translate(16.587 34.004)">
          <g id="Group_819" data-name="Group 819">
            <path id="Path_5345" data-name="Path 5345" d="M.775,0A.775.775,0,0,0,0,.776V4.094a.775.775,0,0,0,1.551,0V.776A.776.776,0,0,0,.775,0Z" fill="#125072"/>
          </g>
        </g>
        <g id="Group_822" data-name="Group 822" transform="translate(34.833 34.004)">
          <g id="Group_821" data-name="Group 821" transform="translate(0 0)">
            <path id="Path_5346" data-name="Path 5346" d="M.776,0A.776.776,0,0,0,0,.776V4.094a.775.775,0,0,0,1.551,0V.776A.775.775,0,0,0,.776,0Z" fill="#125072"/>
          </g>
        </g>
      </g>
    </g>
  </g>
</svg>
