<svg xmlns="http://www.w3.org/2000/svg" width="90.835" height="90.835" viewBox="0 0 90.835 90.835">
  <g id="Group_3662" data-name="Group 3662" transform="translate(-481.676 -1242.352)">
    <path id="Path_8640" data-name="Path 8640" d="M37.083,0A37.083,37.083,0,1,1,0,37.083,37.083,37.083,0,0,1,37.083,0Z" transform="translate(500.871 1242.352) rotate(15)" fill="#fff"/>
    <g id="Group_3018" data-name="Group 3018" transform="translate(511.889 1261.051)">
      <g id="Group_833" data-name="Group 833" transform="translate(2.788 5.405)">
        <g id="Group_832" data-name="Group 832" transform="translate(0 0)">
          <path id="Path_5350" data-name="Path 5350" d="M20.9,6.5A9.5,9.5,0,0,0,10.961.056a.789.789,0,0,0,.171,1.568A7.89,7.89,0,0,1,19.2,6.473a2.77,2.77,0,0,1-2.74-.135,1.976,1.976,0,0,0-2.2.04,6.917,6.917,0,0,1-8.984-.945,8.124,8.124,0,0,1,2.7-2.726.789.789,0,1,0-.823-1.346,9.765,9.765,0,0,0-3.476,3.7.8.8,0,0,0-.111.208A10.325,10.325,0,0,0,3.033,6.5a3.411,3.411,0,0,0-.008,6.779,9.6,9.6,0,0,0,8.2,6.472,25.322,25.322,0,0,1-6.964,1.336.788.788,0,0,0,.045,1.576h.048C11,22.269,18.724,19.469,20.9,13.279a3.412,3.412,0,0,0,0-6.779ZM2.58,11.525a1.836,1.836,0,0,1,0-3.271A10.411,10.411,0,0,0,2.58,11.525ZM11.965,18.2C6.313,18.2,2.6,12.274,4.55,6.937a8.493,8.493,0,0,0,10.609.735.4.4,0,0,1,.451,0,4.357,4.357,0,0,0,4.077.315C20.846,13.134,17.139,18.2,11.965,18.2Zm9.384-6.678a10.411,10.411,0,0,0,0-3.271A1.837,1.837,0,0,1,21.349,11.525Z" fill="#125072"/>
        </g>
      </g>
      <g id="Group_835" data-name="Group 835" transform="translate(0 10.121)">
        <g id="Group_834" data-name="Group 834" transform="translate(0 0)">
          <path id="Path_5351" data-name="Path 5351" d="M28.934.572a.789.789,0,0,0-1.517.434c.772,2.7.415,4.381.509,8.183A23.266,23.266,0,0,1,22.4,16.4C16.7,21.566,9.29,23.981,1.579,24.52V19A.789.789,0,0,0,0,19V28.98a14.752,14.752,0,0,0,29.5,0C29.5,1.328,29.62,2.968,28.934.572ZM10.7,41.517A30.6,30.6,0,0,0,27.919,29.4,13.19,13.19,0,0,1,10.7,41.517Zm17.224-15.34a21.872,21.872,0,0,1-4.013,5.728A30.646,30.646,0,0,1,8.369,40.5a13.248,13.248,0,0,1-5.593-6.036c10.058-.931,19.616-5.2,25.151-13.606Zm0-8.53c-1.96,4.359-6.752,9.329-13.365,12.263A38.186,38.186,0,0,1,2.183,32.93c-.877-2.783-.523-4.684-.6-6.83,12.846-.869,21.655-6.573,26.348-13.7Z" fill="#125072"/>
        </g>
      </g>
      <g id="Group_837" data-name="Group 837" transform="translate(0 0)">
        <g id="Group_836" data-name="Group 836">
          <path id="Path_5352" data-name="Path 5352" d="M27.376,7.129A14.753,14.753,0,0,0,0,14.765V25.438a.789.789,0,0,0,1.579,0V14.765A13.173,13.173,0,0,1,26.026,7.947a.789.789,0,0,0,1.349-.819Z" fill="#125072"/>
        </g>
      </g>
    </g>
  </g>
</svg>
