<svg xmlns="http://www.w3.org/2000/svg" width="137.632" height="137.632" viewBox="0 0 137.632 137.632">
  <g id="Group_3730" data-name="Group 3730" transform="translate(-389.44 -1097.168)">
    <g id="Group_3659" data-name="Group 3659">
      <path id="Union_10" data-name="Union 10" d="M0,48.66A48.661,48.661,0,0,1,48.66,0H97.321V48.841h0A48.66,48.66,0,0,1,0,48.66Z" transform="translate(458.257 1097.168) rotate(45)" fill="#6098bf"/>
      <circle id="Ellipse_474" data-name="Ellipse 474" cx="45.042" cy="45.042" r="45.042" transform="translate(458.257 1102.285) rotate(45)" fill="#8fd83a"/>
    </g>
    <g id="Group_3660" data-name="Group 3660">
      <path id="Path_8640" data-name="Path 8640" d="M37.083,0A37.083,37.083,0,1,1,0,37.083,37.083,37.083,0,0,1,37.083,0Z" transform="translate(458.257 1113.541) rotate(45)" fill="#fff"/>
      <g id="Group_3017" data-name="Group 3017" transform="translate(434.419 1141.326)">
        <path id="Path_5338" data-name="Path 5338" d="M4.053,0H2.027V2.027H0V4.053H2.027V6.081H4.053V4.053H6.08V2.027H4.053Z" transform="translate(21.31 4.055)" fill="#125072"/>
        <path id="Path_5339" data-name="Path 5339" d="M26.705,15.709V12.568h1.572A1.573,1.573,0,0,0,29.848,11v-.785h4.293l2.2,3.3,3-8.234,1.778,4.15H48.7V7.855H42.148L39.214,1.009l-3.29,9.046L34.981,8.64H29.848V1.571A1.573,1.573,0,0,0,28.277,0H20.422a1.573,1.573,0,0,0-1.571,1.571V5.5h-6.8l-1.779,4.15L7.278,1.415l-2.2,3.3H0V6.283H5.918l.942-1.415,3.29,9.047,2.935-6.847h5.766V11a1.573,1.573,0,0,0,1.571,1.572h1.572v3.141h1.571v4.713H19.637a8.681,8.681,0,0,0-3.863.912l-.545.273A3.921,3.921,0,0,0,11.5,18.851H8.64a3.887,3.887,0,0,0-2.357.806V16.494a2.356,2.356,0,0,0-4.713,0V28.277A1.572,1.572,0,0,0,0,29.848v1.571A1.573,1.573,0,0,0,1.571,32.99H3.928v8.649a3.924,3.924,0,1,0,4.713,0V32.99H40.059v8.644a3.928,3.928,0,1,0,4.713,0V32.99h2.357A1.573,1.573,0,0,0,48.7,31.418V29.848a1.572,1.572,0,0,0-1.571-1.571h-.04a8.649,8.649,0,0,0-8.6-7.855H25.135V15.709ZM8.64,20.422H11.5a2.356,2.356,0,1,1,0,4.713H8.64a2.356,2.356,0,1,1,0-4.713Zm3.141,6.283a2.354,2.354,0,0,1,2.212,1.572H6.428A2.354,2.354,0,0,1,8.64,26.705Zm-5.5-.8.024.019-.024.021ZM3.142,16.494a.785.785,0,0,1,1.571,0V28.277H3.142ZM6.283,47.129a2.359,2.359,0,0,1-2.356-2.357A2.308,2.308,0,0,1,4.076,44a2.343,2.343,0,0,0,4.416,0,2.314,2.314,0,0,1-2.209,3.13ZM7.069,43.2a.785.785,0,1,1-1.571,0V32.99H7.069Zm35.347,3.928A2.314,2.314,0,0,1,40.207,44a2.343,2.343,0,0,0,4.416,0,2.307,2.307,0,0,1,.149.773A2.359,2.359,0,0,1,42.416,47.129ZM43.2,43.2a.785.785,0,0,1-1.571,0V32.99H43.2Zm2.31-14.924H42.416v1.571h4.713v1.571H1.571V29.848H40.844V28.277H15.63A3.937,3.937,0,0,0,13.972,25.8a3.9,3.9,0,0,0,1.4-2.514l1.1-.55a7.1,7.1,0,0,1,3.161-.746H38.488A7.076,7.076,0,0,1,45.511,28.277ZM20.422,1.571h7.855V11H20.422Zm4.713,11v1.571H23.564V12.568Z" fill="#125072"/>
      </g>
    </g>
  </g>
</svg>
