<svg xmlns="http://www.w3.org/2000/svg" width="94.394" height="284.57" viewBox="0 0 94.394 284.57">
  <g id="Group_3733" data-name="Group 3733" transform="translate(-479.164 -437.157)">
    <g id="Group_1588" data-name="Group 1588" transform="translate(479.164 437.157)">
      <path id="Path_4113" data-name="Path 4113" d="M575.1,455.162s-2.225-72.723-1.368-79.365c1.784-13.824,19.737-69.528,19.737-69.528s19.418-4,22.329,17.007c-14.752,26.1-26.176,51.13-27.675,56.158l-12.1,75.441Z" transform="translate(-564.195 -172.231)" fill="#e85684"/>
      <path id="Path_4114" data-name="Path 4114" d="M595.238,306.114c8.162,1.06,9.279,3.844,10.983,16.147-14.752,26.1-21.682,47.2-23.18,52.228l-7.372,80.529.476-.147,13.391-75.5c1.5-5.027,15.064-31.411,29.815-57.516C616.871,303.942,601.225,305.709,595.238,306.114Z" transform="translate(-564.315 -172.226)" fill="#d13d72"/>
      <path id="Path_4115" data-name="Path 4115" d="M563.634,465.562h12.818s1.708-5.455-1.994-4.848S563.634,465.562,563.634,465.562Z" transform="translate(-563.634 -180.992)" fill="#ffdf97"/>
      <path id="Path_4116" data-name="Path 4116" d="M629.659,293.522c-22.634-22.055-30.721-38.832-24.535-53.241,6.31-14.7,7.234-39.907,20.1-43.934,11.845-12.946,28.088-4.284,33.48,17.7,7.992,32.587-17,43.1-22.869,55.022A67.336,67.336,0,0,0,629.659,293.522Z" transform="translate(-565.87 -165.68)" fill="#84474c"/>
      <path id="Path_4117" data-name="Path 4117" d="M658.7,214.678a44.4,44.4,0,0,0-5.444-13.23c.87,11.478-7.493,20.563-19.323,20.563a26.3,26.3,0,0,1-20.222-10.147c-3.207,9.264-5.052,20.809-8.589,29.049-6.186,14.409,1.9,31.186,24.535,53.241a67.343,67.343,0,0,1,6.174-24.455C641.7,257.782,666.694,247.265,658.7,214.678Z" transform="translate(-565.87 -166.313)" fill="#5e2a33"/>
      <path id="Path_4118" data-name="Path 4118" d="M629.79,295.594a67.342,67.342,0,0,1,6.174-24.455c1.631-3.312,4.741-6.519,8.208-10.12-16.065-14.54-2.292-34.135-11.419-34.135-9.505,0-24.177,18.769-27.313,36.188C609.054,272.605,617.147,283.276,629.79,295.594Z" transform="translate(-566.001 -167.753)" fill="#441d24"/>
      <path id="Path_4119" data-name="Path 4119" d="M638.871,455.233s-27.708-61.323-29.128-69.324c-.835-4.7-2.313-40.7-2.313-40.7l-11.08-3.755.608-33.358s16.465-4.7,32.585,7.749c8.438,26.139-5.453,63.418-3.272,67.9l13.084,71.485Z" transform="translate(-565.487 -172.303)" fill="#e85684"/>
      <path id="Path_4120" data-name="Path 4120" d="M623.517,314.864c8.438,26.138-2.8,64.46-.62,68.942l16.049,70.16.573,1.271H640L626.92,383.753c-2.181-4.483,11.71-41.762,3.272-67.9a40.3,40.3,0,0,0-22.371-8.545A40.815,40.815,0,0,1,623.517,314.864Z" transform="translate(-566.136 -172.307)" fill="#d13d72"/>
      <path id="Path_4121" data-name="Path 4121" d="M604.762,349.4l-13.98-8.025s17.569,2.876,22.49,1.886Z" transform="translate(-565.171 -174.236)" fill="#d13d72"/>
      <path id="Path_4122" data-name="Path 4122" d="M604.6,318.034c.4-.135-.546,14.612-.546,14.612l1.758-.068,3.1-14.275Z" transform="translate(-565.923 -172.915)" fill="#d13d72"/>
      <path id="Path_4123" data-name="Path 4123" d="M626.706,312.594l-34.633,1.163-2.586,8.809c13.3,3.761,26.265,4.961,38.778,3.144Z" transform="translate(-565.098 -172.607)" fill="#d13d72"/>
      <path id="Path_4124" data-name="Path 4124" d="M590.77,314.565c5.722,5.256,40.823,4.87,40.823,4.87-1.9-10.52-17.885-25.061-7.892-56.087L598.522,277.5C600.914,294.323,591.434,309.513,590.77,314.565Z" transform="translate(-565.171 -169.818)" fill="#663c49"/>
      <path id="Path_4125" data-name="Path 4125" d="M624.107,263.348,598.928,277.5a45.5,45.5,0,0,1-.978,16.692,8.777,8.777,0,0,1,6.2-3.023c7.55,0,13.711,12.385,14.195,28.029,7.538.3,13.655.238,13.655.238C629.839,305.779,614.115,294.375,624.107,263.348Z" transform="translate(-565.577 -169.818)" fill="#512b39"/>
      <path id="Path_4126" data-name="Path 4126" d="M582.979,218.153c3.763,13.191,15.961,32.829,19.838,36.868,3.112,3.242,12.818-2.052,8.455-6.726-5.381-5.766-15.447-27.866-20.216-31.357C586.424,213.547,582.979,218.153,582.979,218.153Z" transform="translate(-564.729 -167.119)" fill="#663c49"/>
      <path id="Path_4127" data-name="Path 4127" d="M609.552,246.142a4.086,4.086,0,0,1-3.6-.917c-3.19-3.323-12.01-17.205-17.133-29.369-3.459-.863-5.837,2.3-5.837,2.3,3.763,13.19,15.961,32.828,19.838,36.868,3.112,3.242,12.818-2.052,8.455-6.726A22.294,22.294,0,0,1,609.552,246.142Z" transform="translate(-564.729 -167.12)" fill="#512b39"/>
      <path id="Path_4128" data-name="Path 4128" d="M592.824,217.5c-1.716-3.278-5.267-4.782-7.931-3.358s-3.434,5.236-1.719,8.515,5.266,4.782,7.931,3.358S594.539,220.775,592.824,217.5Z" transform="translate(-564.689 -167.001)" fill="#e85684"/>
      <path id="Path_4129" data-name="Path 4129" d="M592.949,217.5a6.668,6.668,0,0,0-6.113-3.857A7.937,7.937,0,0,1,588,215.276c1.716,3.278.946,7.09-1.718,8.514a4.53,4.53,0,0,1-1.818.5c1.874,2.083,4.6,2.878,6.767,1.723C593.894,224.589,594.664,220.777,592.949,217.5Z" transform="translate(-564.814 -167.002)" fill="#c9356a"/>
      <path id="Path_4130" data-name="Path 4130" d="M575.182,175.807c1.719,19.191,6.739,41.4,8.9,43.387s8.408,2.83,8.2-1.939-15.917-41.143-15.917-41.143Z" transform="translate(-564.288 -164.86)" fill="#ffb882"/>
      <path id="Path_4131" data-name="Path 4131" d="M625.749,252.529c1.716,5.656-7.072,31.483-9.629,31.849s-25.394-3.993-26.149-6.743,16.7-29.989,19.815-30.654S625.024,250.141,625.749,252.529Z" transform="translate(-565.124 -168.887)" fill="#663c49"/>
      <path id="Path_4132" data-name="Path 4132" d="M614.267,247.013l-5.926,13.063,3.5.943,6.33-13.6Z" transform="translate(-566.166 -168.893)" fill="#e85684"/>
      <path id="Path_4133" data-name="Path 4133" d="M625.749,252.671c-.3-.986-2.546-2.212-5.292-3.271.068.1.231.221.175.308-3.2,4.915-7.207,29.094-9.764,29.459-1.823.26-13.825.508-20.913-1.74a.988.988,0,0,0,.015.349c.756,2.751,23.8,8.12,26.352,7.754S627.465,258.327,625.749,252.671Z" transform="translate(-565.124 -169.028)" fill="#512b39"/>
      <path id="Path_4134" data-name="Path 4134" d="M615.414,246.153l6.479-12.852,10.58,1.707a156.516,156.516,0,0,0-8.393,15.037s-4.06,1.8-7.663.374C612.863,249.01,615.414,246.153,615.414,246.153Z" transform="translate(-566.516 -168.116)" fill="#ffb882"/>
      <path id="Path_4135" data-name="Path 4135" d="M645.839,465.6h-9.09s1.414-4.848,4.04-4.242S645.839,465.6,645.839,465.6Z" transform="translate(-567.774 -181.028)" fill="#ffdf97"/>
      <g id="Group_1581" data-name="Group 1581" transform="translate(38.073 65.185)" opacity="0.6" style="mix-blend-mode: multiply;isolation: isolate">
        <path id="Path_4136" data-name="Path 4136" d="M613.279,261.893c3.578-.381,6.785-9.744,10.755-12.163-.106-.056-.2-.111-.313-.167a156.606,156.606,0,0,1,8.155-14.556L621.3,233.3l-6.479,12.852s-.05.058-.124.153l-.673-.069-.076.167a10.156,10.156,0,0,0-3.363-.193,1.3,1.3,0,0,0-.373.167c-1.236-1.8-2.6-4.059-4.02-6.5C601.36,248.749,604.834,262.791,613.279,261.893Z" transform="translate(-603.992 -233.301)" fill="#843131"/>
      </g>
      <g id="Group_1585" data-name="Group 1585" transform="translate(45.288 36.306)">
        <path id="Path_4137" data-name="Path 4137" d="M612.809,241.2c10.986.954,15.554-.3,23.179-7.521s11.808-21.17,5.881-27.419-17.856-4.472-24.61,6.686C608.211,227.895,612.809,241.2,612.809,241.2Z" transform="translate(-611.641 -202.689)" fill="#ffb882"/>
        <path id="Path_4138" data-name="Path 4138" d="M635.663,240.91c3.847,2.148,9.078.439,10.655-2.018s1.133-6.772-2.31-5.519S634.045,240.006,635.663,240.91Z" transform="translate(-612.987 -204.414)" fill="#ffb882"/>
        <path id="Path_4139" data-name="Path 4139" d="M638.216,240.068c2.361,1.318,5.572.269,6.539-1.239s.7-4.157-1.417-3.387S637.223,239.513,638.216,240.068Z" transform="translate(-613.137 -204.536)" fill="#ea7b59"/>
        <path id="Path_4140" data-name="Path 4140" d="M637.376,240.238a3.582,3.582,0,0,0,4.338-.822c.643-1,.461-2.757-.94-2.247S636.717,239.87,637.376,240.238Z" transform="translate(-613.092 -204.636)" fill="#ffb882"/>
        <g id="Group_1584" data-name="Group 1584" transform="translate(3.239 6.28)">
          <path id="Path_4141" data-name="Path 4141" d="M624.584,232.759l-7.431-4.319s-2.1,5.594.976,7.257C621.071,237.292,624.584,232.759,624.584,232.759Z" transform="translate(-615.153 -210.427)" fill="#491d2e"/>
          <path id="Path_4142" data-name="Path 4142" d="M623.806,233.017l-6.215-3.872s-1.313,1.673,2.188,3.949C623.464,235.489,623.806,233.017,623.806,233.017Z" transform="translate(-615.203 -210.467)" fill="#ffebeb"/>
          <path id="Path_4143" data-name="Path 4143" d="M634.088,222.895c.692-1.593.435-3.109-.62-3.429-1.112-.33-2.7.778-3.516,2.533-.831,1.79-.46,3.413.77,3.582C631.889,225.74,633.377,224.525,634.088,222.895Z" transform="translate(-615.892 -209.915)" fill="#563b36"/>
          <path id="Path_4144" data-name="Path 4144" d="M622.653,217.462c.888-1.5,1.026-3.062.281-3.522-.773-.474-2.2.431-3.162,2.048s-1.034,3.238-.183,3.592C620.405,219.924,621.762,218.965,622.653,217.462Z" transform="translate(-615.297 -209.599)" fill="#563b36"/>
          <path id="Path_4145" data-name="Path 4145" d="M619.653,214.325s3.417-.434,4.994,1.068a1.839,1.839,0,0,0-1.3-1.861C621.9,212.987,619.653,214.325,619.653,214.325Z" transform="translate(-615.334 -209.575)" fill="#563b36"/>
          <path id="Path_4146" data-name="Path 4146" d="M635.193,222.62s-1.19-2.961-3.781-3.866a2.62,2.62,0,0,1,2.851.483C635.618,220.368,635.193,222.62,635.193,222.62Z" transform="translate(-616 -209.866)" fill="#563b36"/>
          <g id="Group_1582" data-name="Group 1582" transform="translate(5.319)">
            <path id="Path_4147" data-name="Path 4147" d="M620.713,210.868l.052-.54a6.94,6.94,0,0,1,6.836-.16l-.3,1.144A7.319,7.319,0,0,0,620.713,210.868Z" transform="translate(-620.713 -209.345)" fill="#8c3b3f"/>
          </g>
          <g id="Group_1583" data-name="Group 1583" transform="translate(18.032 3.381)">
            <path id="Path_4148" data-name="Path 4148" d="M638.651,221.266c-.464-3.29-3.582-6.761-4.462-7.457l.876-.879a14.39,14.39,0,0,1,4.092,8.214Z" transform="translate(-634.189 -212.929)" fill="#8c3b3f"/>
          </g>
          <path id="Path_4149" data-name="Path 4149" d="M617.778,238.919c.163-.291-.439-.547-1.176-1s-1.331-.919-1.494-.628.3.891,1.04,1.339S617.615,239.21,617.778,238.919Z" transform="translate(-615.074 -210.923)" fill="#ea7b59"/>
          <path id="Path_4150" data-name="Path 4150" d="M624.214,223.044c-1.4.238-3.563,1.451-3.949,2.233s1.261,2.2,1.975,2.153S624.725,222.957,624.214,223.044Z" transform="translate(-615.365 -210.121)" fill="#ea7b59"/>
          <path id="Path_4151" data-name="Path 4151" d="M625.069,223.072c-1.4.238-3.562,1.451-3.949,2.233s1.261,2.2,1.976,2.153S625.58,222.985,625.069,223.072Z" transform="translate(-615.414 -210.123)" fill="#ffb882"/>
        </g>
      </g>
      <path id="Path_4152" data-name="Path 4152" d="M597.311,219.012c3.763,13.191,15.961,32.829,19.838,36.869,3.112,3.242,12.819-2.052,8.456-6.727-5.381-5.765-15.448-27.865-20.216-31.356C600.756,214.407,597.311,219.012,597.311,219.012Z" transform="translate(-565.541 -167.168)" fill="#663c49"/>
      <path id="Path_4153" data-name="Path 4153" d="M624.688,248.069c-1.791.532-3.64.442-4.71-.673-3.319-3.457-12.73-18.341-17.732-30.83-2.963-.181-4.934,2.446-4.934,2.446,3.763,13.191,17.269,35.974,21.146,40.013,3.112,3.241,11.512-5.2,7.149-9.871C625.313,248.842,625.006,248.472,624.688,248.069Z" transform="translate(-565.541 -167.168)" fill="#512b39"/>
      <ellipse id="Ellipse_335" data-name="Ellipse 335" cx="5.45" cy="7.509" rx="5.45" ry="7.509" transform="translate(28.563 50.95) rotate(-35.27)" fill="#e85684"/>
      <path id="Path_4154" data-name="Path 4154" d="M607.86,218.386a8.67,8.67,0,0,0-5.99-4.241,10.18,10.18,0,0,1,1.646,2.02c2.161,3.529,1.754,7.545-.911,8.969a4.57,4.57,0,0,1-2.75.429c2.175,2.088,5.01,2.906,7.093,1.793C609.612,225.932,610.021,221.917,607.86,218.386Z" transform="translate(-565.685 -167.032)" fill="#c9356a"/>
      <path id="Path_4155" data-name="Path 4155" d="M589.515,176.667c1.718,19.19,6.738,41.4,8.9,43.387s8.408,2.83,8.2-1.938S590.7,176.972,590.7,176.972Z" transform="translate(-565.1 -164.909)" fill="#ffb882"/>
      <path id="Path_4156" data-name="Path 4156" d="M600.227,215.116c-2.05-1.906-7.205-20.637-10.029-38.273l-.683-.175c1.718,19.19,6.738,41.4,8.9,43.387s8.408,2.83,8.2-1.938a7.752,7.752,0,0,0-.24-1.353A7.547,7.547,0,0,1,600.227,215.116Z" transform="translate(-565.1 -164.909)" fill="#ff9566"/>
      <path id="Path_4157" data-name="Path 4157" d="M585.857,213.987c-2-1.853-7.022-20.15-9.93-37.989l-.745-.191c1.719,19.191,6.739,41.4,8.9,43.387s8.408,2.831,8.2-1.938a9.159,9.159,0,0,0-.326-1.676A7.387,7.387,0,0,1,585.857,213.987Z" transform="translate(-564.288 -164.86)" fill="#ff9566"/>
      <g id="Group_1586" data-name="Group 1586" transform="translate(18.788 1.818)">
        <path id="Path_4158" data-name="Path 4158" d="M591.128,181.632c-1.538-2.317-2.5-3.173-2.815-3.783s-1.569-2.424-1.139-3.36c.441-.958,4.078-3.481,4.558-2.39s.03,4.917.462,8.583C592.477,183.074,591.128,181.632,591.128,181.632Z" transform="translate(-583.75 -166.453)" fill="#ffb882"/>
        <path id="Path_4159" data-name="Path 4159" d="M587.621,176.344c-1.006-1.581-4.258-5.916-4.062-6.6s5.123,4.8,5.123,4.8Z" transform="translate(-583.55 -166.332)" fill="#ffb882"/>
        <path id="Path_4160" data-name="Path 4160" d="M591.974,179.258c.7-2.757,3.708-6.671,3.335-7.2s-4.653,4.774-4.653,4.774Z" transform="translate(-583.952 -166.464)" fill="#ffb882"/>
        <path id="Path_4161" data-name="Path 4161" d="M588.927,174.395c-.52-1.907-2.48-7.4-2.1-8.142s3.615,6.379,3.615,6.379Z" transform="translate(-583.733 -166.134)" fill="#ffb882"/>
        <path id="Path_4162" data-name="Path 4162" d="M590.132,174.993c.251-2,.576-8.133,1.223-8.82.662-.7.785,7.438.785,7.438Z" transform="translate(-583.923 -166.13)" fill="#ffb882"/>
      </g>
      <g id="Group_1587" data-name="Group 1587" transform="translate(4.918)">
        <path id="Path_4163" data-name="Path 4163" d="M576.425,179.7c-1.538-2.317-2.5-3.173-2.816-3.783s-1.568-2.424-1.139-3.36c.44-.958,4.079-3.481,4.559-2.391s.03,4.918.462,8.584C577.773,181.147,576.425,179.7,576.425,179.7Z" transform="translate(-569.047 -164.526)" fill="#ffb882"/>
        <path id="Path_4164" data-name="Path 4164" d="M572.918,174.417c-1.007-1.582-4.259-5.916-4.062-6.6s5.122,4.8,5.122,4.8Z" transform="translate(-568.847 -164.405)" fill="#ffb882"/>
        <path id="Path_4165" data-name="Path 4165" d="M577.27,177.33c.7-2.757,3.707-6.671,3.335-7.2s-4.653,4.773-4.653,4.773Z" transform="translate(-569.249 -164.537)" fill="#ffb882"/>
        <path id="Path_4166" data-name="Path 4166" d="M574.224,172.468c-.52-1.907-2.481-7.4-2.1-8.142s3.616,6.378,3.616,6.378Z" transform="translate(-569.03 -164.207)" fill="#ffb882"/>
        <path id="Path_4167" data-name="Path 4167" d="M575.428,173.066c.251-2,.577-8.134,1.224-8.82.662-.7.784,7.438.784,7.438Z" transform="translate(-569.219 -164.203)" fill="#ffb882"/>
      </g>
    </g>
  </g>
</svg>
