<svg id="Group_1593" data-name="Group 1593" xmlns="http://www.w3.org/2000/svg" width="72.169" height="160.201" viewBox="0 0 72.169 160.201">
  <path id="Path_4168" data-name="Path 4168" d="M507.118,391.227c-4.813-2.524-5.743,4.66-5.962,6.457a261.882,261.882,0,0,0-1.09,37.814l.714.116C502.812,430.392,511.98,393.778,507.118,391.227Z" transform="translate(-479.292 -284.057)" fill="#ffb882"/>
  <path id="Path_4169" data-name="Path 4169" d="M506.285,408.347a3.025,3.025,0,0,1,.942.3c1.471-8.673,2.028-16.306-.1-17.422-4.813-2.524-5.744,4.66-5.962,6.457-.314,2.581-.858,8.492-1.138,16.444C501.766,410.364,504.058,408.066,506.285,408.347Z" transform="translate(-479.302 -284.057)" fill="#ff9566"/>
  <path id="Path_4170" data-name="Path 4170" d="M489.6,377.6c-5.814-1.393-5.086,7.042-4.889,9.147a316.2,316.2,0,0,0,7.948,43.229l.8-.086C494.391,423.343,495.468,379.006,489.6,377.6Z" transform="translate(-478.427 -283.307)" fill="#ffb882"/>
  <path id="Path_4171" data-name="Path 4171" d="M494.18,407.422c-.123-13.9-1.2-29.011-4.585-29.824-5.814-1.393-5.086,7.042-4.889,9.147a291.436,291.436,0,0,0,4.636,28.849C490.642,411.443,492.4,408.431,494.18,407.422Z" transform="translate(-478.427 -283.307)" fill="#ff9566"/>
  <path id="Path_4172" data-name="Path 4172" d="M528.234,334.149c7.858-1.075,17.525-11.912,19.479-27.883,1.863-15.235-7.722-14.08-7.722-14.08s.607-13.716-7.487-14.41-10.341,5.753-10.341,5.753-2.141-7.939-9.508-5.355c-11.556,4.053-10.427,12.91-10.427,12.91s-5.776-2.839-11.612,10.987c-8.384,19.867-.63,23.189-.63,23.189s-7.91,10.821,7.747,17.931C509.9,348.714,512.861,352.663,528.234,334.149Z" transform="translate(-478.549 -277.656)" fill="#d33c31"/>
  <path id="Path_4173" data-name="Path 4173" d="M526.08,306.013c-12.616-1.589-22.031-10.616-22.284-20.77a10.9,10.9,0,0,0-1.569,6.27s-5.776-2.839-11.612,10.987c-8.385,19.866-.63,23.189-.63,23.189s-7.91,10.821,7.747,17.931c12.168,5.524,15.129,9.473,30.5-9.041,7.858-1.075,17.525-11.912,19.479-27.883a23.878,23.878,0,0,0-.027-6.987C542.567,304.509,534.606,307.087,526.08,306.013Z" transform="translate(-478.549 -278.086)" fill="#bc2824"/>
  <path id="Path_4174" data-name="Path 4174" d="M512.394,310.719c-10.072-1.269-19.62,8.681-21.326,22.222a32.635,32.635,0,0,0-.1,7.311,20.68,20.68,0,0,0,7,4.8c11.93,5.416,15.017,9.3,29.624-8C529.076,323.714,522.349,311.972,512.394,310.719Z" transform="translate(-478.78 -279.522)" fill="#a01818"/>
  <path id="Path_4175" data-name="Path 4175" d="M510.79,344.667c3.719,2.908,35.247,18.99,35.247,18.99l.69-1.139s-24.49-20.161-28.321-21.98C514.647,338.755,509.075,343.326,510.79,344.667Z" transform="translate(-479.894 -281.194)" fill="#ffb882"/>
  <path id="Path_4176" data-name="Path 4176" d="M522.269,347.7c-.834-.724.069-2.262,1.641-3.368a48.227,48.227,0,0,0-5.5-3.8c-3.759-1.784-9.332,2.788-7.617,4.128,3.719,2.908,35.247,18.99,35.247,18.99l.534-.879C537.389,357.365,524.54,349.673,522.269,347.7Z" transform="translate(-479.894 -281.194)" fill="#ff9566"/>
  <path id="Path_4177" data-name="Path 4177" d="M484.851,396.709c27.247,5.065,31.382-.091,37.84-9.764,0,0-13.37-23.438-5.7-44.361,2.44-6.655-13.768-13.089-17.28-10.057C496.3,335.474,474.464,363.827,484.851,396.709Z" transform="translate(-478.286 -280.719)" fill="#ffb640"/>
  <path id="Path_4178" data-name="Path 4178" d="M515.677,336.735c.3-.736-1.6-2.41-4.242-3.74s-5.031-1.811-5.332-1.075,1.6,2.41,4.243,3.74S515.377,337.471,515.677,336.735Z" transform="translate(-479.645 -280.709)" fill="#ffecc7"/>
  <path id="Path_4179" data-name="Path 4179" d="M515.454,351.191c-.955,7.583.4,13.464,2.16,17.223a48.732,48.732,0,0,1,.049-20.994C517.181,347.71,516.031,346.6,515.454,351.191Z" transform="translate(-480.158 -281.606)" fill="#ff8e31"/>
  <path id="Path_4180" data-name="Path 4180" d="M501.667,339.612c2.6-4.661,2.752-7.815,1.057-8.478s-4.6,1.414-7.2,6.075-3.239,10.592-2.67,11.012S499.068,344.272,501.667,339.612Z" transform="translate(-478.886 -280.677)" fill="#ff8e31"/>
  <path id="Path_4181" data-name="Path 4181" d="M490.233,360.565c1.527-12.131,6.02-22.518,11.747-28.784a3.874,3.874,0,0,0-2.268.747c-3.413,2.947-25.248,31.3-14.861,64.181a106.237,106.237,0,0,0,15.786,1.949C492.564,393.133,488.061,377.811,490.233,360.565Z" transform="translate(-478.286 -280.721)" fill="#ff8e31"/>
  <path id="Path_4182" data-name="Path 4182" d="M502.062,337.4c2.6-4.66,2.361-8.033.161-8.977s-5.529.9-8.128,5.556-.94,10.5-.174,11.029S499.463,342.057,502.062,337.4Z" transform="translate(-478.887 -280.517)" fill="#ffecc7"/>
  <path id="Path_4183" data-name="Path 4183" d="M493.931,337.655c-1.974-5.521-9.764-50.144-9.764-50.144l1.384-.6s14.052,36.61,14.858,42C501.2,334.2,494.841,340.2,493.931,337.655Z" transform="translate(-478.404 -278.18)" fill="#ffb882"/>
  <path id="Path_4184" data-name="Path 4184" d="M500.409,328.919a28.717,28.717,0,0,0-.9-3.442c-1.641,2.143-3.789,3.252-4.346,1.881-1.524-3.754-6.809-26.715-9.882-40.322l-1.116.483s7.79,44.623,9.764,50.144C494.841,340.207,501.2,334.205,500.409,328.919Z" transform="translate(-478.404 -278.187)" fill="#ff9566"/>
  <path id="Path_4185" data-name="Path 4185" d="M516.647,354.442c.138-.19,6.429-12.428,6.429-12.428s-1.608-3.935-5.256-3.813C517.557,340.572,516.647,354.442,516.647,354.442Z" transform="translate(-480.244 -281.084)" fill="#ffecc7"/>
  <path id="Path_4186" data-name="Path 4186" d="M517.861,326.337l-6.092-2.7-3.777,8.312c2.089,2.036,4.141,3.342,6.092,2.7Z" transform="translate(-479.753 -280.26)" fill="#ffb882"/>
  <path id="Path_4187" data-name="Path 4187" d="M503.325,446.822c-5.12-4.615-5.242-8.146-3.364-10C504.428,432.4,503.325,446.822,503.325,446.822Z" transform="translate(-479.236 -286.622)" fill="#ffdf97"/>
  <path id="Path_4188" data-name="Path 4188" d="M490.438,441.805c-1.919-6.62-.162-9.685,2.413-10.273C498.975,430.134,490.438,441.805,490.438,441.805Z" transform="translate(-478.713 -286.363)" fill="#ffdf97"/>
  <path id="Path_4189" data-name="Path 4189" d="M510.132,341.008a23.029,23.029,0,0,0,11.432,1l.419-.815s-1.608-3.935-5.257-3.813v0a11.334,11.334,0,0,0-1.615-1.6,4.827,4.827,0,0,0-1.442-1.544l3.589-7.9-6.092-2.7-3.486,7.67c-1.109-.263-1.907-.236-2.071.166,0,.01,0,.026,0,.037-.487-.085-.958-.145-1.408-.178a3.123,3.123,0,0,0-1.713-3.167,3.326,3.326,0,0,0-2.08-.113c-.353-1.181-.814-2.616-1.348-4.216a6.526,6.526,0,0,0-1.393,2.321C495.892,331.467,501.473,338.117,510.132,341.008Z" transform="translate(-479.15 -280.26)" fill="#843131" opacity="0.6" style="mix-blend-mode: multiply;isolation: isolate"/>
  <g id="Group_1590" data-name="Group 1590" transform="translate(18.129 19.159)">
    <path id="Path_4190" data-name="Path 4190" d="M533.414,322.332c3.944-8.654,1.484-17.654-7.692-22.46s-17.9-.043-21.273,8.848-2.165,16,6.98,20.888C523.03,335.808,530.483,328.763,533.414,322.332Z" transform="translate(-497.584 -297.965)" fill="#ffb882"/>
    <g id="Group_1589" data-name="Group 1589" transform="translate(11.291 2.732)">
      <path id="Path_4191" data-name="Path 4191" d="M511.511,309.911c.956-2.014,3.092-2.82,4.772-1.8a4.327,4.327,0,0,1,1.315,5.5c-.956,2.014-2.635,1.928-4.316.907S510.557,311.926,511.511,309.911Z" transform="translate(-509.353 -301.247)" fill="#ea7b59"/>
      <path id="Path_4192" data-name="Path 4192" d="M523.863,315.881c.955-2.014,3.091-2.82,4.772-1.8a4.328,4.328,0,0,1,1.314,5.5c-.955,2.014-2.635,1.927-4.316.907S522.909,317.9,523.863,315.881Z" transform="translate(-510.052 -301.585)" fill="#ea7b59"/>
      <path id="Path_4193" data-name="Path 4193" d="M523.64,316.621c1-1.957,3.14-2.845,4.771-1.985s2.14,3.142,1.136,5.1-2.661,1.976-4.292,1.117S522.636,318.577,523.64,316.621Z" transform="translate(-510.037 -301.623)" fill="#fffbdd"/>
      <path id="Path_4194" data-name="Path 4194" d="M525.32,315.739a1.987,1.987,0,0,1,2.476-1.322,2.022,2.022,0,0,1,.933,2.669,1.987,1.987,0,0,1-2.476,1.321A2.021,2.021,0,0,1,525.32,315.739Z" transform="translate(-510.146 -301.622)" fill="#3f7fa5"/>
      <path id="Path_4195" data-name="Path 4195" d="M525.688,314.8a.767.767,0,0,1,.957-.51.782.782,0,0,1,.36,1.031.768.768,0,0,1-.958.51A.781.781,0,0,1,525.688,314.8Z" transform="translate(-510.172 -301.619)" fill="#fffbdd"/>
      <path id="Path_4196" data-name="Path 4196" d="M534.742,316.094l-1.751.308c.19-1.081-1.381-5.486-4.986-7.205l2.19-1.737S535.673,310.949,534.742,316.094Z" transform="translate(-510.307 -301.235)" fill="#d33c31"/>
      <path id="Path_4197" data-name="Path 4197" d="M511.5,310.825c.991-1.938,3.063-2.777,4.628-1.875s2.031,3.207,1.04,5.144-2.591,1.919-4.156,1.015S510.51,312.762,511.5,310.825Z" transform="translate(-509.35 -301.299)" fill="#fffbdd"/>
      <path id="Path_4198" data-name="Path 4198" d="M513.207,309.947a1.965,1.965,0,0,1,2.463-1.3,2.019,2.019,0,0,1,.943,2.655,1.965,1.965,0,0,1-2.463,1.3A2.019,2.019,0,0,1,513.207,309.947Z" transform="translate(-509.46 -301.296)" fill="#3f7fa5"/>
      <path id="Path_4199" data-name="Path 4199" d="M513.57,309.021a.759.759,0,0,1,.951-.5.781.781,0,0,1,.364,1.026.759.759,0,0,1-.952.5A.778.778,0,0,1,513.57,309.021Z" transform="translate(-509.486 -301.292)" fill="#fffbdd"/>
      <path id="Path_4200" data-name="Path 4200" d="M509.245,303.807l.984,1.5c.639-.89,4.852-2.791,8.554-1.335l-.271-2.815S512.264,299.553,509.245,303.807Z" transform="translate(-509.245 -300.861)" fill="#d33c31"/>
      <path id="Path_4201" data-name="Path 4201" d="M520.6,325.867l-9.525-4s-.244,3.717,2.883,5.358C517.512,329.091,520.6,325.867,520.6,325.867Z" transform="translate(-509.349 -302.051)" fill="#763224"/>
      <path id="Path_4202" data-name="Path 4202" d="M519.6,325.792l-7.949-3.382s.406,1.732,3.526,3.118C518.663,327.075,519.6,325.792,519.6,325.792Z" transform="translate(-509.381 -302.081)" fill="#fffbdd"/>
      <path id="Path_4203" data-name="Path 4203" d="M518.119,321.555a4.566,4.566,0,0,1-1.852-1.321l3.224-1.222C520.84,320.63,519.5,322.016,518.119,321.555Z" transform="translate(-509.643 -301.889)" fill="#ea7b59"/>
      <path id="Path_4204" data-name="Path 4204" d="M517.981,321.052a3.563,3.563,0,0,1-1.481-.976l2.577-.988C520,320.313,519,321.343,517.981,321.052Z" transform="translate(-509.656 -301.893)" fill="#ffb882"/>
      <path id="Path_4205" data-name="Path 4205" d="M512.909,328.923c.072-.149.759.065,1.533.479s1.345.872,1.273,1.021-.758-.064-1.533-.479S512.837,329.073,512.909,328.923Z" transform="translate(-509.452 -302.448)" fill="#ea7b59"/>
    </g>
    <path id="Path_4206" data-name="Path 4206" d="M536.335,324.074c2.369-2.065,5.069.586,2.9,2.423s-5.683,2.243-5.344,1.01A7.661,7.661,0,0,1,536.335,324.074Z" transform="translate(-499.348 -299.401)" fill="#ffb882"/>
    <path id="Path_4207" data-name="Path 4207" d="M536.742,325.022c1.348-1.175,2.885.333,1.652,1.377s-3.234,1.277-3.041.575A4.356,4.356,0,0,1,536.742,325.022Z" transform="translate(-499.431 -299.473)" fill="#d3583c"/>
    <path id="Path_4208" data-name="Path 4208" d="M535.817,326c.924-.8,1.975.228,1.131.944s-2.215.874-2.083.393A2.992,2.992,0,0,1,535.817,326Z" transform="translate(-499.404 -299.536)" fill="#ffb882"/>
    <path id="Path_4209" data-name="Path 4209" d="M501.461,309.669c.3-3.174-3.944-4.226-4.168-1.352s1.769,6.224,2.67,5.29A6.644,6.644,0,0,0,501.461,309.669Z" transform="translate(-497.276 -298.456)" fill="#ffb882"/>
    <path id="Path_4210" data-name="Path 4210" d="M500.49,309.916c.168-1.807-2.245-2.406-2.373-.769s1.007,3.542,1.52,3.01A3.791,3.791,0,0,0,500.49,309.916Z" transform="translate(-497.323 -298.544)" fill="#d3583c"/>
    <path id="Path_4211" data-name="Path 4211" d="M500.29,311.294c.115-1.238-1.538-1.648-1.624-.527s.689,2.426,1.041,2.062A2.594,2.594,0,0,0,500.29,311.294Z" transform="translate(-497.354 -298.653)" fill="#ffb882"/>
  </g>
  <g id="Group_1591" data-name="Group 1591" transform="translate(0 0.679)">
    <path id="Path_4212" data-name="Path 4212" d="M485.162,289.9c-1.439-1.68-2.328-2.29-2.625-2.736s-1.468-1.759-1.1-2.466c.375-.725,3.6-2.7,4.059-1.9s.137,3.655.608,6.367C486.411,290.935,485.162,289.9,485.162,289.9Z" transform="translate(-478.246 -278.616)" fill="#ffb882"/>
    <path id="Path_4213" data-name="Path 4213" d="M481.876,286.071c-.942-1.148-3.974-4.282-3.811-4.794s4.728,3.427,4.728,3.427Z" transform="translate(-478.058 -278.537)" fill="#ffb882"/>
    <path id="Path_4214" data-name="Path 4214" d="M485.873,288.112c.575-2.068,3.2-5.057,2.849-5.441s-4.091,3.673-4.091,3.673Z" transform="translate(-478.431 -278.618)" fill="#ffb882"/>
    <path id="Path_4215" data-name="Path 4215" d="M483.012,284.587c-.511-1.4-2.4-5.432-2.072-6s3.4,4.643,3.4,4.643Z" transform="translate(-478.219 -278.386)" fill="#ffb882"/>
    <path id="Path_4216" data-name="Path 4216" d="M484.123,285c.182-1.5.34-6.06.908-6.588s.873,5.507.873,5.507Z" transform="translate(-478.402 -278.376)" fill="#ffb882"/>
  </g>
  <g id="Group_1592" data-name="Group 1592" transform="translate(61.845 78.199)">
    <path id="Path_4217" data-name="Path 4217" d="M544.973,360.679c1.845,1.221,2.868,1.563,3.274,1.91s1.9,1.289,1.737,2.07c-.162.8-2.723,3.582-3.382,2.94s-1.135-3.476-2.332-5.956C543.488,360.026,544.973,360.679,544.973,360.679Z" transform="translate(-543.64 -360.549)" fill="#ffb882"/>
    <path id="Path_4218" data-name="Path 4218" d="M549.249,363.608c1.222.845,5,3.026,4.981,3.563s-5.487-2-5.487-2Z" transform="translate(-543.906 -360.722)" fill="#ffb882"/>
    <path id="Path_4219" data-name="Path 4219" d="M544.934,362.664c.015,2.146-1.686,5.741-1.245,6.015s2.926-4.655,2.926-4.655Z" transform="translate(-543.616 -360.669)" fill="#ffb882"/>
    <path id="Path_4220" data-name="Path 4220" d="M548.618,365.25c.877,1.208,3.8,4.563,3.638,5.2s-4.547-3.53-4.547-3.53Z" transform="translate(-543.847 -360.815)" fill="#ffb882"/>
    <path id="Path_4221" data-name="Path 4221" d="M547.52,365.092c.236,1.489,1.337,5.921.935,6.584-.411.678-2.352-5.056-2.352-5.056Z" transform="translate(-543.757 -360.806)" fill="#ffb882"/>
  </g>
</svg>
