<svg id="Group_1605" data-name="Group 1605" xmlns="http://www.w3.org/2000/svg" width="162.253" height="297.348" viewBox="0 0 162.253 297.348">
  <g id="Group_1595" data-name="Group 1595" transform="translate(124.725 2.649)">
    <g id="Group_1594" data-name="Group 1594">
      <path id="Path_4222" data-name="Path 4222" d="M358.845,170.489l13.794,8.46c-2.374,2.519-6.888,10.649-7.261,12.494l-9.686-6.756S359.7,176.257,358.845,170.489Z" transform="translate(-355.691 -154.43)" fill="#ff9566"/>
      <path id="Path_4223" data-name="Path 4223" d="M360.25,174.539c-.251-1.227-1.773-2.389-1.773-5.118,0-8.232,3.871-4.927,5.082-5.491,2-.931,3.313-5.512,4.316-5.9,2.188-.849,8.334,7.405,9.69,9.834s-1.593,9.678-6.714,12.552C368.973,181.468,360.25,174.539,360.25,174.539Z" transform="translate(-355.849 -153.721)" fill="#ff9566"/>
      <path id="Path_4224" data-name="Path 4224" d="M373.9,166.142c1.719,1.834,3.84,3.841,1.843,10.02,2.176-3.128,3.655-7.1,2.772-8.675-1.357-2.428-7.642-10.8-9.831-9.948-.1.039-2.691,5.871-2.8,5.982C369.315,164.5,371.3,163.368,373.9,166.142Z" transform="translate(-356.268 -153.693)" fill="#ff9566"/>
      <path id="Path_4225" data-name="Path 4225" d="M363.557,164.261c-1.21.564-4.474-3.536-5.081,5.491-.3,4.476,3.155,6.966,6.048,8.878a6.945,6.945,0,0,0,4.491-6.108C369.11,169.672,364.358,163.887,363.557,164.261Z" transform="translate(-355.848 -154.052)" fill="#ff9566"/>
      <path id="Path_4226" data-name="Path 4226" d="M367.188,159.576c1.851-2.635,3.579-5.358,4.414-5.974.885-.652,3.867,1.169,3.453,2.8-.488,1.915-4.157,6.89-4.683,7.113S366.155,161.049,367.188,159.576Z" transform="translate(-356.332 -153.466)" fill="#ffb882"/>
      <path id="Path_4227" data-name="Path 4227" d="M370.429,165.56c1.851-2.635,3.578-5.359,4.414-5.974.885-.652,3.867,1.168,3.453,2.8-.488,1.916-4.157,6.891-4.684,7.114S369.4,167.033,370.429,165.56Z" transform="translate(-356.515 -153.805)" fill="#ffb882"/>
      <path id="Path_4228" data-name="Path 4228" d="M374,171.138c.67-.912,3.238-4.913,4.025-5.559,1-.824,3.438,1.058,3.141,2.684-.279,1.529-4.448,6.765-4.945,6.955S373.008,172.482,374,171.138Z" transform="translate(-356.715 -154.141)" fill="#ffb882"/>
    </g>
    <path id="Path_4229" data-name="Path 4229" d="M367.188,159.576c1.851-2.635,3.579-5.358,4.414-5.974.885-.652,3.867,1.169,3.453,2.8-.488,1.915-4.157,6.89-4.683,7.113S366.155,161.049,367.188,159.576Z" transform="translate(-356.332 -153.466)" fill="#ffb882"/>
    <path id="Path_4230" data-name="Path 4230" d="M362.179,161.8c2.993,1.189,6.043,2.238,6.836,2.907.84.709-.239,4.033-1.918,4.007-1.976-.029-7.668-2.445-8.006-2.9S360.507,161.134,362.179,161.8Z" transform="translate(-355.881 -153.934)" fill="#ffb882"/>
    <path id="Path_4231" data-name="Path 4231" d="M370.429,165.56c1.851-2.635,3.578-5.359,4.414-5.974.885-.652,3.867,1.168,3.453,2.8-.488,1.916-4.157,6.891-4.684,7.114S369.4,167.033,370.429,165.56Z" transform="translate(-356.515 -153.805)" fill="#ffb882"/>
    <path id="Path_4232" data-name="Path 4232" d="M374,171.138c.67-.912,3.238-4.913,4.025-5.559,1-.824,3.438,1.058,3.141,2.684-.279,1.529-4.448,6.765-4.945,6.955S373.008,172.482,374,171.138Z" transform="translate(-356.715 -154.141)" fill="#ffb882"/>
  </g>
  <g id="Group_1597" data-name="Group 1597">
    <path id="Path_4233" data-name="Path 4233" d="M238.685,189c-11.313-2.7-15.459-6.634-13.484-10.942,0,0-2.889-6.577-1.138-9.166,0,0-2.664-6.5,3.382-7.956,0,0-.977-6.287,2.337-7.473,3.18-1.139,7.606.3,7.606.3s-1.108-3.276,3.208-3.1c4.07.169,5.439,2.62,5.439,2.62s3.384-1.758,6.372.159c2.851,1.83,2.957,4,2.957,4s1.134-1.162,4.051,1.851c2.775,2.866-1.079,9.689-1.079,9.689Z" transform="translate(-223.479 -150.659)" fill="#d33c31"/>
    <path id="Path_4234" data-name="Path 4234" d="M243.214,168.713c-7.183-3.523-11.644-9.841-11.519-15.5a7.76,7.76,0,0,0-1.913.4c-3.314,1.187-2.337,7.473-2.337,7.473-6.046,1.457-3.382,7.956-3.382,7.956-1.751,2.589,1.138,9.166,1.138,9.166-1.975,4.308,2.171,8.24,13.484,10.942l17.928-18.259A21.989,21.989,0,0,1,243.214,168.713Z" transform="translate(-223.479 -150.803)" fill="#ba2925"/>
    <path id="Path_4235" data-name="Path 4235" d="M231.278,181.656c3.523,9.511,14.569,12.961,23.508,7.46,10.152-6.246,10.195-13.158,7.554-21.205-1.482-4.512-13.9-12.15-20.731-8.367S228.032,172.894,231.278,181.656Z" transform="translate(-223.873 -151.104)" fill="#ffb882"/>
    <path id="Path_4236" data-name="Path 4236" d="M234.085,184.109c-3.13-6.79,5.375-17.627,1.382-20.647s-8.328,8.082-8.014,12.814S234.085,184.109,234.085,184.109Z" transform="translate(-223.703 -151.355)" fill="#ba2925"/>
    <path id="Path_4237" data-name="Path 4237" d="M232.991,186.5c-6.014-1.026-7.01-2.63-5.833-5.6s4.4-1.957,7.41,4.666C235.289,187.344,232.991,186.5,232.991,186.5Z" transform="translate(-223.663 -152.282)" fill="#ffb882"/>
    <path id="Path_4238" data-name="Path 4238" d="M232.08,185.516c-3.84-.655-4.475-1.679-3.724-3.574s2.806-1.25,4.731,2.979C233.548,186.055,232.08,185.516,232.08,185.516Z" transform="translate(-223.74 -152.373)" fill="#ea7b59"/>
    <path id="Path_4239" data-name="Path 4239" d="M232.969,186.093c-2.713-.461-3.164-1.187-2.636-2.531s1.981-.888,3.347,2.108C234.007,186.474,232.969,186.093,232.969,186.093Z" transform="translate(-223.857 -152.481)" fill="#ffb882"/>
    <g id="Group_1596" data-name="Group 1596" transform="translate(11.356 12.13)">
      <path id="Path_4240" data-name="Path 4240" d="M246.7,174.733a3.128,3.128,0,0,0-4.129-1.458,3.078,3.078,0,0,0-.822,4.273c.913,1.582,2.329,1.533,3.7.756S247.611,176.314,246.7,174.733Z" transform="translate(-235.841 -164.051)" fill="#fffbdd"/>
      <path id="Path_4241" data-name="Path 4241" d="M246.224,174.052a1.69,1.69,0,0,0-2.152-1,1.671,1.671,0,0,0-.719,2.249,1.689,1.689,0,0,0,2.152,1A1.669,1.669,0,0,0,246.224,174.052Z" transform="translate(-235.951 -164.05)" fill="#3f7fa5"/>
      <path id="Path_4242" data-name="Path 4242" d="M245.909,173.581a.61.61,0,1,0-.277.869A.652.652,0,0,0,245.909,173.581Z" transform="translate(-236.039 -164.062)" fill="#fffbdd"/>
      <path id="Path_4243" data-name="Path 4243" d="M257.733,170.18a2.562,2.562,0,0,0-3.407-1.559,2.925,2.925,0,0,0-1.15,3.787c.624,1.475,1.849,1.518,3.107.9S258.358,171.655,257.733,170.18Z" transform="translate(-236.502 -163.793)" fill="#fffbdd"/>
      <path id="Path_4244" data-name="Path 4244" d="M257.243,169.523a1.446,1.446,0,0,0-1.793-1.056,1.546,1.546,0,0,0-.9,1.939,1.448,1.448,0,0,0,1.793,1.057A1.547,1.547,0,0,0,257.243,169.523Z" transform="translate(-236.591 -163.793)" fill="#3f7fa5"/>
      <path id="Path_4245" data-name="Path 4245" d="M256.966,168.984a.558.558,0,0,0-.692-.408.6.6,0,0,0-.348.749.558.558,0,0,0,.692.408A.6.6,0,0,0,256.966,168.984Z" transform="translate(-236.671 -163.802)" fill="#fffbdd"/>
      <path id="Path_4246" data-name="Path 4246" d="M253.354,177.472a3.383,3.383,0,0,0-1.723.1l1.518,2.147C254.679,179.214,254.418,177.743,253.354,177.472Z" transform="translate(-236.43 -164.303)" fill="#ea7b59"/>
      <path id="Path_4247" data-name="Path 4247" d="M253.049,177.76a2.631,2.631,0,0,0-1.344.028l1.209,1.724C254.013,179.09,253.812,177.991,253.049,177.76Z" transform="translate(-236.434 -164.319)" fill="#ffb882"/>
      <path id="Path_4248" data-name="Path 4248" d="M255.96,182.022l-5.932,1.578c.561,1.978,2.262,3.236,3.875,2.807S256.407,184.031,255.96,182.022Z" transform="translate(-236.339 -164.565)" fill="#4f3735"/>
      <path id="Path_4249" data-name="Path 4249" d="M255.556,184.819a4.016,4.016,0,0,0-3.658,1.049,2.324,2.324,0,0,0,2.078.545A2.41,2.41,0,0,0,255.556,184.819Z" transform="translate(-236.445 -164.718)" fill="#ff9566"/>
      <path id="Path_4250" data-name="Path 4250" d="M256.62,188.864c-.134-.122-.711.014-1.289.3s-.937.621-.8.742.712-.014,1.29-.3S256.755,188.985,256.62,188.864Z" transform="translate(-236.592 -164.95)" fill="#ff9566"/>
      <path id="Path_4251" data-name="Path 4251" d="M236.286,175.063a21.541,21.541,0,0,1,4.854-5.352l-.692-.7a18.652,18.652,0,0,0-4.93,5.09Z" transform="translate(-235.517 -163.828)" fill="#d33c31"/>
      <path id="Path_4252" data-name="Path 4252" d="M250.523,165.1a17.855,17.855,0,0,1,6.8-.064l.322-1.05a14.844,14.844,0,0,0-6.606-.184Z" transform="translate(-236.367 -163.517)" fill="#d33c31"/>
    </g>
  </g>
  <path id="Path_4253" data-name="Path 4253" d="M247.661,194.558c-6.9,19.379-1.2,29.378,2.211,32.911s18.452,1.819,18.37-5.738-3.628-28.262-8.59-29.52S248.391,192.506,247.661,194.558Z" transform="translate(-224.665 -152.986)" fill="#e85684"/>
  <path id="Path_4254" data-name="Path 4254" d="M259.718,192.212c-4.961-1.256-11.261.294-11.992,2.346a61.9,61.9,0,0,0-2.144,7.425,1.616,1.616,0,0,1,1.143-.587c2.194,0,3.973,6.18,3.973,13.8,0,4.628-2.687,5.5-3.693,8.007.613,1.175,1.4,3.3,2.934,4.262,4.16,2.6,18.452,1.819,18.37-5.738S264.681,193.469,259.718,192.212Z" transform="translate(-224.731 -152.986)" fill="#cc366c"/>
  <path id="Path_4255" data-name="Path 4255" d="M332.874,211.166c-8.888,5.185-22,11.08-37.216,9.2-17.112-2.121-13.6,17.514-14.731,24.888-1.667,10.865,58.019-3.8,63.413-18.289C347.03,219.735,339.893,207.071,332.874,211.166Z" transform="translate(-226.731 -154.04)" fill="#ffcb57"/>
  <path id="Path_4256" data-name="Path 4256" d="M339.426,226.713c-11.671,2.44-28.255,17.516-33.465,20.065-4.2,2.054-24.5-4.182-25.033-.7-.755,4.917,20.1,18.263,28.467,6.221,3.366-4.848,35.384-14.339,38.337-22.274C350.421,222.8,347.381,225.049,339.426,226.713Z" transform="translate(-226.731 -154.87)" fill="#ffaa4d"/>
  <path id="Path_4257" data-name="Path 4257" d="M333.586,213.027c3.08-8.367,10.976-12.45,17.588-9.394,6.477,2.993,9.556,11.86,6.932,20.065-2.7,8.439-10.457,13.216-17.389,10.392C333.631,231.205,330.413,221.643,333.586,213.027Z" transform="translate(-229.645 -153.601)" fill="#ffecc7"/>
  <path id="Path_4258" data-name="Path 4258" d="M345.591,218.585a18.19,18.19,0,0,0-1.557-15.615,10.9,10.9,0,0,1,7.3.663c6.477,2.993,9.556,11.86,6.932,20.065-2.7,8.439-10.457,13.216-17.389,10.392a12.385,12.385,0,0,1-5.663-4.818A16.485,16.485,0,0,0,345.591,218.585Z" transform="translate(-229.807 -153.602)" fill="#f9e0b2"/>
  <path id="Path_4259" data-name="Path 4259" d="M336.038,220.567c-2.254-16.95,11.648-30.7,21.164-43.611,2.3-3.127,5.112-.593,7.585,2.4l1.313,1.591a5.922,5.922,0,0,1,1.269,4.82c-1.355,7.584-5.424,28.978-9.581,37C352.7,232.6,337.934,234.824,336.038,220.567Z" transform="translate(-229.84 -152.067)" fill="#ffb882"/>
  <path id="Path_4260" data-name="Path 4260" d="M346.831,217.926c-4.016-16.792,11.072-42.2,11.072-42.2-7.474,11.009-24.483,25.166-21.866,44.848,1.591,11.967,12.244,12.316,18.637,6.31C351.21,226.206,348.152,223.453,346.831,217.926Z" transform="translate(-229.838 -152.078)" fill="#ff9566"/>
  <path id="Path_4261" data-name="Path 4261" d="M379.917,453.2l-21.693-83.189-29.4-43.53L325.36,308.9l-39.783,23.35,7.111,18.354,44.756,31.358,41.163,71.966Z" transform="translate(-226.996 -159.62)" fill="#4b607f"/>
  <path id="Path_4262" data-name="Path 4262" d="M340.11,376.306,302,340.593l-7.962-11.821-10.5,6.142,7.4,18.122L336.192,384l42.3,71.056,1.3-.714-.049-.175Z" transform="translate(-226.881 -160.745)" fill="#344860"/>
  <path id="Path_4263" data-name="Path 4263" d="M261.081,454.51l44.061-66.671,5.97-35.267,11.471-11.756-14.977-44.709-39.223,25.274,14.868,63.9-23.567,68.635Z" transform="translate(-225.53 -158.895)" fill="#4b607f"/>
  <path id="Path_4264" data-name="Path 4264" d="M261.081,455.666l.3-.449,30.147-70.569-6.861-33.13c16.125-6.657,30.048-17.276,42.337-26.885l-1.4-8.091-57.213,6,13.735,63.956-22.432,68.583Z" transform="translate(-225.53 -160.052)" fill="#344860"/>
  <path id="Path_4265" data-name="Path 4265" d="M268.724,326.43c7.855,3.134,50.915-.084,58.389-11.167,0,0-8.646-62.815-32.223-87.884-4.015-4.269-34.149-7.733-44.009,4.668-5.2,6.538,9.977,42.49,11.324,60.409C263.075,304.015,268.724,326.43,268.724,326.43Z" transform="translate(-224.97 -154.781)" fill="#ffcb57"/>
  <path id="Path_4266" data-name="Path 4266" d="M293.31,226.061c-6.249-2.707-22.544-4.26-33.712.267,2.693,2.2,9.105,3.931,16.521,4.218C285.284,230.9,292.672,228.923,293.31,226.061Z" transform="translate(-225.525 -154.781)" fill="#ffecc7"/>
  <path id="Path_4267" data-name="Path 4267" d="M257.63,233.641c-.854-.992-2.744-1.952-5.281-2.745a15.377,15.377,0,0,0-1.468,1.573c-5.2,6.538,9.977,42.49,11.324,60.409.87,11.559,6.519,33.975,6.519,33.975,3.5,1.4,13.97,1.527,25.174.272C289.544,306.477,277.4,256.631,257.63,233.641Z" transform="translate(-224.97 -155.202)" fill="#ffaa4d"/>
  <path id="Path_4268" data-name="Path 4268" d="M244.142,285.527c-8.071-34.3,1.51-51.962,11.875-57.939S268.656,267,267.279,272.75c12.77,1.992,9.138,16.21.809,24.039C260.941,303.5,246.01,293.466,244.142,285.527Z" transform="translate(-224.479 -154.984)" fill="#ffcb57"/>
  <path id="Path_4269" data-name="Path 4269" d="M273.865,271.977c1.376-5.748-7.454-50.369-17.817-44.39a23.786,23.786,0,0,0-6.536,5.681c3.113,3.344,7.563,6.451,7.563,14.836,0,11.566-6.254,23.836-11.312,23.836-1.422,0-2.9.451-4.1-.871a116.862,116.862,0,0,0,2.506,14.456c1.868,7.939,15.039,16.408,24.5,13.838C275.189,297.6,277.612,276.788,273.865,271.977Z" transform="translate(-224.509 -154.984)" fill="#ffaa4d"/>
  <path id="Path_4270" data-name="Path 4270" d="M247.975,282.183c.735-10.091,7.757-16.782,15.685-14.943s13.759,11.511,13.025,21.6S268.928,305.625,261,303.785,247.241,292.275,247.975,282.183Z" transform="translate(-224.863 -157.243)" fill="#f9e0b2"/>
  <path id="Path_4271" data-name="Path 4271" d="M262.042,285.788a23.061,23.061,0,0,0-5.99-17.433,11.018,11.018,0,0,1,7.972-1.115c7.928,1.84,13.759,11.511,13.025,21.6s-7.757,16.783-15.685,14.943a14.456,14.456,0,0,1-7.035-4.168C258.53,297.284,261.572,292.238,262.042,285.788Z" transform="translate(-225.226 -157.243)" fill="#ffecc7"/>
  <path id="Path_4272" data-name="Path 4272" d="M265.738,200.7l22.472,5.412,2.091,14.141c-4.824,6.948-15.776,7.436-27.328,3.613Z" transform="translate(-225.716 -153.492)" fill="#ffb882"/>
  <g id="Group_1598" data-name="Group 1598" transform="translate(27.771 47.21)" opacity="0.6" style="mix-blend-mode: multiply;isolation: isolate">
    <path id="Path_4273" data-name="Path 4273" d="M300.563,227.939c-.694-.837-3.477-4.528-4.2-5.3-.428-.456-2.465,2.549-3.431,2.13h0a25.351,25.351,0,0,0-4.459-1.365l-.027-.007q-.727-.16-1.506-.3a12.175,12.175,0,0,0,2.793-2.841l-2.091-14.141L265.168,200.7,262.4,223.868c.042.014.084.025.125.039a32.477,32.477,0,0,0-3.309,1.131h0a21.77,21.77,0,0,0-6.3,3.79c5.363,3.658,13.752,6.58,23.393,7.723C288.543,238,297.979,231.529,300.563,227.939Z" transform="translate(-252.917 -200.702)" fill="#b23232"/>
  </g>
  <path id="Path_4274" data-name="Path 4274" d="M248.553,227.563a80.412,80.412,0,0,0,25.27,19.632l1.193-1.242-13.243-20.679Z" transform="translate(-224.899 -154.884)" fill="#e85684"/>
  <path id="Path_4275" data-name="Path 4275" d="M268.13,243.812c-4.816-5.788-10.833-14.215-4.142-15.107l-2.214-3.457c-3.539-1.14-8.229.208-13.22,2.29a80.179,80.179,0,0,0,20.031,16.8C268.433,244.162,268.279,243.991,268.13,243.812Z" transform="translate(-224.899 -154.859)" fill="#cc366c"/>
  <g id="Group_1599" data-name="Group 1599" transform="translate(34.317 99.354)" opacity="0.6" style="mix-blend-mode: multiply;isolation: isolate">
    <path id="Path_4276" data-name="Path 4276" d="M260.462,275.6,314,262.35q-1.2-3.218-2.512-6.373L259.856,266.51Z" transform="translate(-259.856 -255.977)" fill="#cc366c"/>
    <path id="Path_4277" data-name="Path 4277" d="M316.061,268.745,260.794,283.17c.709,3.045,1.288,5.93,1.662,8.551l55.611-16.741C317.433,272.911,316.766,270.828,316.061,268.745Z" transform="translate(-259.909 -256.7)" fill="#cc366c"/>
  </g>
  <path id="Path_4278" data-name="Path 4278" d="M254.7,291.361c-9.862-15.275,4.423-29.388,10.293-44.3l13.052,3.589s4.025,28.5,1.368,37.524S261.84,302.428,254.7,291.361Z" transform="translate(-225.056 -156.118)" fill="#ffb882"/>
  <path id="Path_4279" data-name="Path 4279" d="M264.844,286.543c-9.423-12.628-1.256-25.382,4.206-38.361l-4.06-1.116c-5.871,14.907-20.155,29.02-10.293,44.3,6.019,9.322,17.547,7.082,22.62.751A13.083,13.083,0,0,1,264.844,286.543Z" transform="translate(-225.056 -156.118)" fill="#ff9566"/>
  <g id="Group_1601" data-name="Group 1601" transform="translate(31.686 5.314)">
    <path id="Path_4280" data-name="Path 4280" d="M257.631,171.986c2.114-3.517,3.9-2.456,3.9-2.456s4.443-7.854,7.324-8.889c0,0,6.625-5.353,10.76-3.141,0,0,10.144-3.762,15.134,1.994s1.375,15.079,1.375,15.079,1.438,19.366-3.706,30.757l-24.045,1.807c-7.252-13.209-8.347-21.42-8.347-21.42S255.518,175.5,257.631,171.986Z" transform="translate(-257.067 -156.292)" fill="#9e2b20"/>
    <path id="Path_4281" data-name="Path 4281" d="M260.024,185.946s-4.506-10.212-2.392-13.729,3.9-2.456,3.9-2.456,4.443-7.854,7.324-8.889c0,0,.241-.193.656-.491-3.109,3.945-4.24,8.312-2.592,11.9,2.552,5.557,10.929,7.407,19.765,4.806a31.064,31.064,0,0,0,2.724,9.435,30.705,30.705,0,0,0,5.872,8.733,41.541,41.541,0,0,1-2.861,10.305l-24.045,1.807C261.119,194.158,260.024,185.946,260.024,185.946Z" transform="translate(-257.067 -156.524)" fill="#841a15"/>
    <path id="Path_4282" data-name="Path 4282" d="M265.35,192.9c1.9,13.721,2.688,26.895,9.487,32.126s23.185,6.965,29.936,1.331c0,0-5.516-8.058-4.959-12.921s-5.8-21.6-5.8-21.6l-25.769-.155Z" transform="translate(-257.536 -158.296)" fill="#9e2b20"/>
    <path id="Path_4283" data-name="Path 4283" d="M264.232,192.873l3.95-1.187,2.7.18c1.811,13.393,1.961,25.94,8.61,31.056,5.355,4.122,16.647,6.054,24.505,3.941-7.118,4.992-22.646,3.226-29.224-1.835C267.974,219.8,266.129,206.594,264.232,192.873Z" transform="translate(-257.473 -158.296)" fill="#841a15"/>
    <path id="Path_4284" data-name="Path 4284" d="M294.347,175.179c1.484,5.05,1.858,25.105.668,27.252s-17.47,4.6-19.894,1.769c-2.489-2.9-2.6-24.763-1.112-28.1C275.485,172.8,292.641,169.375,294.347,175.179Z" transform="translate(-257.972 -157.184)" fill="#ffb882"/>
    <path id="Path_4285" data-name="Path 4285" d="M266.016,194.035l3.494,6.483,2.666.055s2.75-25.079-3.866-26.38S266.016,194.035,266.016,194.035Z" transform="translate(-257.495 -157.302)" fill="#841a15"/>
    <path id="Path_4286" data-name="Path 4286" d="M269.8,198.161c-1.635-6.937-8.451-6.437-8.213-1.9.239,4.568,5.2,9.388,6.483,8.263A7.168,7.168,0,0,0,269.8,198.161Z" transform="translate(-257.323 -158.365)" fill="#ffb882"/>
    <path id="Path_4287" data-name="Path 4287" d="M268.49,198.506c-1.065-4.518-5.5-4.191-5.349-1.234.156,2.975,3.389,6.115,4.222,5.382A4.67,4.67,0,0,0,268.49,198.506Z" transform="translate(-257.411 -158.488)" fill="#d3583c"/>
    <path id="Path_4288" data-name="Path 4288" d="M268.582,200.271c-.8-3.4-4.131-3.152-4.015-.928s2.544,4.6,3.17,4.046A3.511,3.511,0,0,0,268.582,200.271Z" transform="translate(-257.492 -158.636)" fill="#ffb882"/>
    <g id="Group_1600" data-name="Group 1600" transform="translate(16.588 23.365)">
      <path id="Path_4289" data-name="Path 4289" d="M294.36,192.195c-.2-1.565-1.113-2.726-2.037-2.59s-1.5,1.518-1.3,3.085,1.113,2.724,2.032,2.588S294.566,193.764,294.36,192.195Z" transform="translate(-275.576 -181.543)" fill="#4f3131"/>
      <path id="Path_4290" data-name="Path 4290" d="M286.132,188.359c1.185-1.913,5.961,14.691,5.576,16.45-.178.824-5.117.886-5.117.886S285.924,188.684,286.132,188.359Z" transform="translate(-275.298 -181.464)" fill="#ffb882"/>
      <path id="Path_4291" data-name="Path 4291" d="M286.757,188.782c1.7,3.627,5.065,14.416,4.74,15.88-.139.632-3.284.83-4.521.851.011.263.014.414.014.414s5.279.185,5.454-.618C292.8,203.667,288.127,188.893,286.757,188.782Z" transform="translate(-275.336 -181.497)" fill="#ef8f6f"/>
      <path id="Path_4292" data-name="Path 4292" d="M282.771,193.726c-.207-1.569-1.12-2.725-2.04-2.59s-1.509,1.513-1.3,3.077,1.114,2.73,2.04,2.6S282.971,195.291,282.771,193.726Z" transform="translate(-274.919 -181.63)" fill="#4f3131"/>
      <path id="Path_4293" data-name="Path 4293" d="M284.366,186.7c-1.416,2.347-8.414,2.22-9.1,1s-1.075-2.507.333-3.318,7.784-3.074,8.806-2.147S285.017,185.621,284.366,186.7Z" transform="translate(-274.651 -181.114)" fill="#9e2b20"/>
      <path id="Path_4294" data-name="Path 4294" d="M289.881,186.071c1.432,2.057,6.429.452,6.7-.913s.321-2.743-.833-3.258-6.132-1.435-6.7-.292S289.219,185.127,289.881,186.071Z" transform="translate(-275.455 -181.06)" fill="#9e2b20"/>
      <path id="Path_4295" data-name="Path 4295" d="M295.239,208.714l-11,1.754s1.568,6.123,3.493,6.189,6.185-1.124,6.861-2.322S295.239,208.714,295.239,208.714Z" transform="translate(-275.194 -182.626)" fill="#542a29"/>
      <path id="Path_4296" data-name="Path 4296" d="M294.593,212.558a31.429,31.429,0,0,0,.191-3.572l-10.028,1.6a22.576,22.576,0,0,0,1.265,3.539Z" transform="translate(-275.223 -182.641)" fill="#fff7e9"/>
    </g>
  </g>
  <g id="Group_1602" data-name="Group 1602" transform="translate(37.443 8.29)">
    <path id="Path_4297" data-name="Path 4297" d="M267.97,171.45c1.027-1.939,1.746-2.717,1.939-3.214s1.04-2.023.554-2.64c-.5-.632-3.933-1.9-4.207-1.03s.591,3.6.681,6.357C266.994,172.719,267.97,171.45,267.97,171.45Z" transform="translate(-263.342 -159.719)" fill="#ffb882"/>
    <path id="Path_4298" data-name="Path 4298" d="M270.326,166.989c.664-1.317,2.908-5,2.655-5.472s-3.79,4.321-3.79,4.321Z" transform="translate(-263.511 -159.562)" fill="#ffb882"/>
    <path id="Path_4299" data-name="Path 4299" d="M266.947,169.851c-.95-1.907-4.016-4.3-3.762-4.744s4.588,2.759,4.588,2.759Z" transform="translate(-263.17 -159.764)" fill="#ffb882"/>
    <path id="Path_4300" data-name="Path 4300" d="M269.049,165.768c.207-1.477,1.2-5.808.774-6.291s-2.3,5.24-2.3,5.24Z" transform="translate(-263.417 -159.446)" fill="#ffb882"/>
    <path id="Path_4301" data-name="Path 4301" d="M268.154,166.407c-.467-1.427-1.515-5.863-2.157-6.263s.261,5.569.261,5.569Z" transform="translate(-263.317 -159.485)" fill="#ffb882"/>
  </g>
  <path id="Path_4302" data-name="Path 4302" d="M255.183,200.8c11.695-15.16,12.955-30.562,12.4-30.923l-1.757-.474A90.28,90.28,0,0,1,249.1,193.062Z" transform="translate(-224.93 -151.72)" fill="#e85684"/>
  <path id="Path_4303" data-name="Path 4303" d="M259.4,181.115A87.149,87.149,0,0,1,249.1,193.726l6.08,7.733a65.419,65.419,0,0,0,6.97-11.219C260.787,188.452,259.761,185.13,259.4,181.115Z" transform="translate(-224.93 -152.383)" fill="#cc366c"/>
  <path id="Path_4304" data-name="Path 4304" d="M315.026,357.811c.4-.269,9.7-10.37,9.7-10.37l-8.271,6.014-12.2,2.066Z" transform="translate(-228.054 -161.802)" fill="#344860"/>
  <path id="Path_4305" data-name="Path 4305" d="M251.551,465.425h12.818s-.092-8.006-3.594-7.116S251.551,465.425,251.551,465.425Z" transform="translate(-225.069 -168.077)" fill="#ffdf97"/>
  <path id="Path_4306" data-name="Path 4306" d="M394.664,465.449H381.206s.007-7.555,3.694-6.716S394.664,465.449,394.664,465.449Z" transform="translate(-232.411 -168.101)" fill="#ffdf97"/>
  <path id="Path_4307" data-name="Path 4307" d="M318.024,331.163l-7.3,2.866.943,3.359,5.242-1.488Z" transform="translate(-228.42 -160.88)" fill="#f9e0b2"/>
  <g id="Group_1604" data-name="Group 1604" transform="translate(34.201 70.699)">
    <g id="Group_1603" data-name="Group 1603" transform="translate(0.291)">
      <path id="Path_4308" data-name="Path 4308" d="M262.9,244.693l18.684.275c-.807,2.973-2.123,16.144-1.48,17.786l-12.347-4.133S267.306,249.12,262.9,244.693Z" transform="translate(-260.204 -226.683)" fill="#ffb882"/>
      <path id="Path_4309" data-name="Path 4309" d="M266.991,247.249c-1-.9-3.455-1.088-5.1-3.423-5.008-7.122,1.614-5.972,2.659-6.952,1.673-1.569.534-5.782,1.4-6.443,1.837-1.4,12.013,2.88,14.4,4.2,2.321,1.286,3.419,7.648.466,12.024C279.669,248.355,266.991,247.249,266.991,247.249Z" transform="translate(-260.042 -225.86)" fill="#ffb882"/>
      <path id="Path_4310" data-name="Path 4310" d="M276.237,234.785c2.49.756,5.326,1.468,6.687,6.745.282-3.129-.42-6.523-1.928-7.364-2.371-1.321-12.689-5.656-14.517-4.268-.084.063.378,5.726.328,5.858C270.937,235.212,272.309,233.594,276.237,234.785Z" transform="translate(-260.406 -225.83)" fill="#ffb882"/>
      <path id="Path_4311" data-name="Path 4311" d="M264.56,237.272c-1.045.98-7.393-1.123-2.659,6.952,2.337,3.986,7.69,4.227,11.791,4.28,1.73-1.966,2.668-4.476,1.123-6.917C273.385,239.329,265.239,236.636,264.56,237.272Z" transform="translate(-260.049 -226.258)" fill="#ffb882"/>
      <path id="Path_4312" data-name="Path 4312" d="M266.046,233.6c-.04-2.834-.584-6.531-.225-7.352.375-.857,4.121-.968,4.792.3.794,1.5.869,6.7.563,7.128S266.069,235.221,266.046,233.6Z" transform="translate(-260.362 -225.602)" fill="#ffb882"/>
      <path id="Path_4313" data-name="Path 4313" d="M272.6,234.666c-.4-2.8-.944-5.5-.724-6.366.23-.9,3.626-1.5,4.4-.322.917,1.391,1.65,6.531,1.426,7S272.833,236.266,272.6,234.666Z" transform="translate(-260.71 -225.7)" fill="#ffb882"/>
    </g>
    <path id="Path_4314" data-name="Path 4314" d="M261.557,235.794c4.072-.213,7.894-.547,9.066-.318,1.222.24,1.936,3.263.231,3.938-2.075.822-9.9,1.376-10.588,1.141S259.174,235.919,261.557,235.794Z" transform="translate(-259.734 -226.157)" fill="#ffb882"/>
    <path id="Path_4315" data-name="Path 4315" d="M278.6,237.9c.041-1.1-.1-5.646.2-6.5.376-1.071,3.472-.276,4.155,1.213.644,1.4.288,7.578-.011,7.959S278.538,239.531,278.6,237.9Z" transform="translate(-260.802 -225.902)" fill="#ffb882"/>
  </g>
</svg>
