<svg xmlns="http://www.w3.org/2000/svg" width="176.187" height="274.727" viewBox="0 0 176.187 274.727">
  <g id="Group_2419" data-name="Group 2419" transform="translate(-0.316)">
    <g id="Group_2414" data-name="Group 2414" transform="translate(0 0)">
      <g id="Group_2409" data-name="Group 2409" transform="translate(0 37.718)">
        <path id="Path_7774" data-name="Path 7774" d="M445.72,184.384c.224-2.715,2.037-3.723,2.848-3.283.283.152.516,7.247-.761,7.59C446.9,188.931,445.494,187.106,445.72,184.384Z" transform="translate(-438.523 -174.801)" fill="#ffcd9c"/>
        <path id="Path_7775" data-name="Path 7775" d="M459.5,187.877c.3-.2-.683-1.918-1.014-2.481-.3-.512-.833-.662-.994-.317C457.07,185.995,459.091,188.143,459.5,187.877Z" transform="translate(-457.085 -176.113)" fill="#ffcd9c"/>
        <path id="Path_7776" data-name="Path 7776" d="M458.835,183.3c.338.031.092-1.537-.12-2.178-.184-.559-.311-.563-.582-.316C457.42,181.45,458.005,183.234,458.835,183.3Z" transform="translate(-456.792 -174.682)" fill="#ffcd9c"/>
        <path id="Path_7777" data-name="Path 7777" d="M457.446,179.195c.339.027-.332-1.379-.59-2.109-.172-.49-.311-.833-.582-.588C455.562,177.144,456.365,179.109,457.446,179.195Z" transform="translate(-454.127 -173.264)" fill="#ffcd9c"/>
        <g id="Group_2406" data-name="Group 2406" transform="translate(1.236 3.992)">
          <path id="Path_7778" data-name="Path 7778" d="M449.671,195.588c-1.522-3.867-8.22-5.565-6.652-7.928,1.406-2.12,6.342-3.264,8.559,6.438Z" transform="translate(-440.609 -180.537)" fill="#ffcd9c"/>
          <path id="Path_7779" data-name="Path 7779" d="M453.625,188.166c.226,4.6-6.359.9-7.444-.389-1.19-1.42.489-6.319,1.664-5.5C451.423,184.792,453.324,182.077,453.625,188.166Z" transform="translate(-444.651 -179.19)" fill="#ffcd9c"/>
          <path id="Path_7780" data-name="Path 7780" d="M450.646,181.057c-1.38-1.668-1.755-2.913-1.309-3.293s.7.585,2.081,2.247,3.987,3.414,3.547,3.8S452.03,182.717,450.646,181.057Z" transform="translate(-448.285 -177.679)" fill="#ffcd9c"/>
          <path id="Path_7781" data-name="Path 7781" d="M452.089,184.9c-1.694-1.33-1.916-2.858-1.553-3.32s1.646,1.189,3.338,2.523,2.717,2.3,2.351,2.761S453.778,186.229,452.089,184.9Z" transform="translate(-450.387 -178.96)" fill="#ffcd9c"/>
          <path id="Path_7782" data-name="Path 7782" d="M452.89,190.1c-1.679-1.351-2.327-2.549-1.964-3.013s1.309.67,2.984,2.025,2.831,2.323,2.466,2.787S454.566,191.448,452.89,190.1Z" transform="translate(-450.825 -180.795)" fill="#ffcd9c"/>
        </g>
        <path id="Path_7793" data-name="Path 7793" d="M446.726,182.072c.835-1.111,1.4-1.395,1.66-.794a2.913,2.913,0,0,1-1.068,2.039c-.4.393-.91.9-1.169.7C445.7,183.684,445.7,183.435,446.726,182.072Z" transform="translate(-438.239 -174.79)" fill="#ffcd9c"/>
        <path id="Path_7794" data-name="Path 7794" d="M456.476,176.858c.655.314.8.659.581,1.108a1,1,0,0,1-1.164.189c-.39-.136-1.031-.366-1.026-.838C454.88,176.37,455.521,176.147,456.476,176.858Z" transform="translate(-452.985 -173.272)" fill="#ffcd9c"/>
        <path id="Path_7795" data-name="Path 7795" d="M457.823,181.116c.658.312.8.658.582,1.1a.994.994,0,0,1-1.16.192c-.392-.139-1.033-.364-1.027-.84C456.226,180.627,456.93,180.344,457.823,181.116Z" transform="translate(-455.23 -174.69)" fill="#ffcd9c"/>
        <path id="Path_7796" data-name="Path 7796" d="M459.2,184.914c.527.262.646.547.475.906-.033.073-.352.343-.917.131-.312-.117-.821-.312-.821-.7C457.933,184.489,458.117,184.363,459.2,184.914Z" transform="translate(-457.621 -175.998)" fill="#ffcd9c"/>
      </g>
      <path id="Path_7797" data-name="Path 7797" d="M384.733,152.445l9.784.061-.649.876-9.135.219Z" transform="translate(-343.715 -127.513)" fill="#6d4a47"/>
      <path id="Path_7798" data-name="Path 7798" d="M395.46,247.973c.831-13.648,9.908-44.652,15.246-46.791,5.8-2.326,3.592,37.805.785,44.873-2.745,6.918-14.247,12.064-14.781,12.578S395.21,252.037,395.46,247.973Z" transform="translate(-370.653 -143.812)" fill="#ffc85a"/>
      <path id="Path_7799" data-name="Path 7799" d="M411.887,232.073c3.191-9.331,3.961-24.382,3.821-30.808.049-.024.1-.063.151-.082,5.8-2.326,3.592,37.805.785,44.873-2.745,6.918-12.506,14.47-15.562,15.205-.573.136-4.068-4.863-5.662-9.041C400.577,248.631,407.536,244.789,411.887,232.073Z" transform="translate(-375.806 -143.812)" fill="#ffa348"/>
      <path id="Path_7800" data-name="Path 7800" d="M436.344,243.637s.017-17.567-15.583-46.518l-3.576,1.33s1.219,34.3,11.268,52.621S436.344,243.637,436.344,243.637Z" transform="translate(-407.316 -142.483)" fill="#ffc85a"/>
      <path id="Path_7801" data-name="Path 7801" d="M439.073,200.313,433.7,202.54l.621,7.965s5.4-.2,8.138-2.688Z" transform="translate(-424.216 -143.553)" fill="#ffa348"/>
      <path id="Path_7802" data-name="Path 7802" d="M414.159,198.831l1.543-.574c1.015,12.194,2.827,29.826,8.563,40.276,4.658,8.492,8.83,5.43,10.9,2.876,1.807,6.157-3.174,28.765-11.436,14.107C413.47,237.318,414.159,198.831,414.159,198.831Z" transform="translate(-404.289 -142.864)" fill="#ffa348"/>
      <path id="Path_7803" data-name="Path 7803" d="M373.425,452.629h-3.314l-13.4-57.34-10.125-49.433-5.709.478-21.655,104.86h-3.47s-1.032-102.255,4.1-140.961c0,0,45.023-10.323,46.438.865C371.12,349.325,373.425,452.629,373.425,452.629Z" transform="translate(-276.703 -178.932)" fill="#6b95bf"/>
      <path id="Path_7804" data-name="Path 7804" d="M357.884,347.373l-1.477-17.754h4.563L359.9,348.594l-4.428.406Z" transform="translate(-290.71 -186.883)" fill="#477093"/>
      <g id="Group_2410" data-name="Group 2410" transform="translate(38.967 213.727)">
        <path id="Path_7805" data-name="Path 7805" d="M330.685,436.387c1.273,32.124,1.9,59.97,1.9,59.97h-3.314l-13.4-57.34-.2-.975C320.811,437.672,325.827,437.116,330.685,436.387Z" transform="translate(-274.824 -436.387)" fill="#5b89af"/>
        <path id="Path_7806" data-name="Path 7806" d="M394.848,438.6l-11.692,56.619h-3.47s-.269-26.686.152-57.951Q387.143,438.2,394.848,438.6Z" transform="translate(-379.601 -436.682)" fill="#5b89af"/>
      </g>
      <path id="Path_7807" data-name="Path 7807" d="M373.47,328.909s-34.717-1.627-45.812-3.615l-.18-8.31,46.885,3.795Z" transform="translate(-285.492 -182.649)" fill="#477093"/>
      <g id="Group_2411" data-name="Group 2411" transform="translate(41.986 129.094)">
        <path id="Path_7808" data-name="Path 7808" d="M315.669,309.1c1.3.769,4.968,1.343,5.137,2.684,4.831,38.229,6.114,141.919,6.114,141.919l-1.41-.777C325.3,437.579,320.192,345.564,315.669,309.1Z" transform="translate(-272.183 -309.101)" fill="#477093"/>
        <path id="Path_7809" data-name="Path 7809" d="M375.237,364.4l8.257-.952.412,2.306-5.478.735L357.284,470.48l-1.33-.787Z" transform="translate(-355.954 -327.312)" fill="#477093"/>
        <path id="Path_7810" data-name="Path 7810" d="M343.895,360.418l11.111,4.8,5.7-.017,7.8-5.549-10.739,2.891Z" transform="translate(-332.532 -326.04)" fill="#477093"/>
      </g>
      <path id="Path_7811" data-name="Path 7811" d="M375.5,280.538c-2.735,4.139-47.813-1.477-49.391-3.073s-6.823-71.64-2.4-78.967,42.276-8.6,46.692-2.867S378.654,275.759,375.5,280.538Z" transform="translate(-284.123 -140.782)" fill="#ffc85a"/>
      <path id="Path_7812" data-name="Path 7812" d="M326.277,286.86c2.686,5.42,20.222,5.692,36.864,5.964,8.843.143,7.017-21.949,6.8-37.4-.138-9.859,2.318-10.692,2.327-21.863,3.9,17.262,5.31,57.455,2.5,61.7-2.733,4.14-49.422-1.387-51-2.981-1.217-1.227-4.239-28.761-3.507-51.494C322.068,262.935,324.536,283.346,326.277,286.86Z" transform="translate(-282.502 -154.693)" fill="#ffa348"/>
      <path id="Path_7813" data-name="Path 7813" d="M318.209,256.815c-2.5-16.978-24.084-57.937-29.78-59.838s1.961,40.148,5.4,48,12.126,13.137,12.8,13.935S318.94,261.767,318.209,256.815Z" transform="translate(-202.049 -142.415)" fill="#ffc85a"/>
      <path id="Path_7814" data-name="Path 7814" d="M308.6,268.685c2.528-2.583,1.243-12.237-2.389-23.316,4.652,10.093,8.475,20.244,9.444,26.809.731,4.952-10.952,4.16-11.628,3.36s-9.748-6.105-13.184-13.955c-1.251-2.866-3.008-10.442-4.459-18.82C293.6,261.342,304.871,272.494,308.6,268.685Z" transform="translate(-199.497 -157.778)" fill="#ffa348"/>
      <path id="Path_7815" data-name="Path 7815" d="M358.26,230.817l14.718-38.341c-10.592-2.168-17.03-1.454-28.784,1.025Z" transform="translate(-295.223 -140.495)" fill="#fffae3"/>
      <path id="Path_7816" data-name="Path 7816" d="M357.7,229.527l14.355-36.8c.44.081.876.16,1.331.251l-15.5,39.709-15.047-38.5c.332-.068.647-.13.971-.195Z" transform="translate(-294.721 -141.012)" fill="#ffa348"/>
      <path id="Path_7817" data-name="Path 7817" d="M245.79,283.961s16.266,1.148,40.1-7.176l-.312-3.35s-29.837-8.572-44.951-3.148S245.79,283.961,245.79,283.961Z" transform="translate(-135.553 -166.398)" fill="#ffc85a"/>
      <path id="Path_7818" data-name="Path 7818" d="M245.5,279.453l-.471-4.715-5.418-1.02s-1.084,6.134.259,7.015Z" transform="translate(-97.939 -168.151)" fill="#ffa348"/>
      <g id="Group_2412" data-name="Group 2412" transform="translate(103.854 101.938)">
        <path id="Path_7819" data-name="Path 7819" d="M235.453,270.688c.379-.163.2-.5.634-.655,15.116-5.424,45.539,3.325,45.539,3.325l.032.34C276.231,272.755,249.1,268.287,235.453,270.688Z" transform="translate(-235.453 -268.26)" fill="#ffa348"/>
        <path id="Path_7820" data-name="Path 7820" d="M235.031,285.576c.032,0,23.661.412,44.888-5.774l.072.774c-23.837,8.325-41.453,7.949-41.453,7.949S235.45,287.057,235.031,285.576Z" transform="translate(-233.506 -272.128)" fill="#ffa348"/>
      </g>
      <path id="Path_7821" data-name="Path 7821" d="M369.938,182.762l-1.459-19.041-18.908,7.871-.335,11.951,9.463,4.269Z" transform="translate(-295.534 -131.292)" fill="#ffcd9c"/>
      <path id="Path_7822" data-name="Path 7822" d="M393.334,525.215h15.087s-.517-5.277-3.429-5.755S393.334,525.215,393.334,525.215Z" transform="translate(-363.338 -250.488)" fill="#f7eecb"/>
      <path id="Path_7823" data-name="Path 7823" d="M312.573,525.215h8.888s-.491-5.277-3.275-5.755S312.573,525.215,312.573,525.215Z" transform="translate(-222.68 -250.488)" fill="#f7eecb"/>
      <path id="Path_7825" data-name="Path 7825" d="M348.4,201.538c-10.493-.295-14.746-9.764-16.464-16.861.022,0,.041-.011.065-.017l-.069-.176c.293-.06.572-.116.857-.173,1.681-.354,3.245-.668,4.736-.948l.328-11.756,18.849-7.847.062.011,1.448,18.906c.529.084,1.062.173,1.608.271.443.047.87.1,1.295.152l.03-.078c.44.081.876.16,1.331.251l-.008.019c3.409.531,6.028,1.356,7.261,2.489C366.459,193.047,359.413,201.847,348.4,201.538Z" transform="translate(-283.813 -131.304)" fill="#d15443" opacity="0.5" style="mix-blend-mode: multiply;isolation: isolate"/>
      <path id="Path_7826" data-name="Path 7826" d="M383.03,152.8c-19.119-17.31-6.366-34.967-5.123-35.489,4.317-1.816,6.829-2.087,8.442,2.567C389.483,128.94,384.759,149.872,383.03,152.8Z" transform="translate(-328.525 -115.33)" fill="#ceae9f"/>
      <path id="Path_7827" data-name="Path 7827" d="M375.494,131.731s-3.634,26.283-5.847,29.469c-3.725,5.366-19.94,5.944-22.673,1.291s-3.795-39.9,1.656-43.759S378.473,108.616,375.494,131.731Z" transform="translate(-298.345 -114.948)" fill="#ffcd9c"/>
      <path id="Path_7828" data-name="Path 7828" d="M342.233,157.081s-2.887-9.485-4.761-13.149-3.91-20.572-.263-23.546,8.606-4.088,11.095-.054C353.153,128.178,353.854,141,342.233,157.081Z" transform="translate(-267.867 -115.874)" fill="#ceae9f"/>
      <path id="Path_7829" data-name="Path 7829" d="M343.569,129.094a28.757,28.757,0,0,0,.687-11.1,5.21,5.21,0,0,1,3.182,2.431c4.848,7.847,5.549,20.668-6.071,36.749a2.1,2.1,0,0,1-1.031-1.743c-.076-2.533-.076-6.335-3.456-.777-1.189-6.241-1.894-15.025-1.644-15.893C338.011,137.071,342.1,135.176,343.569,129.094Z" transform="translate(-267.001 -115.969)" fill="#b78e7e"/>
      <path id="Path_7830" data-name="Path 7830" d="M439.966,195.769l-6.077,2.521.7,9.006s8.547-.573,9.208-3.039Z" transform="translate(-425.681 -142.031)" fill="#fffae3"/>
      <path id="Path_7831" data-name="Path 7831" d="M345.086,249.046l-11.274-.542v3.525l6.04,1.9,5.273-1.936Z" transform="translate(-260.466 -159.702)" fill="#ffa348"/>
      <path id="Path_7832" data-name="Path 7832" d="M345.891,247.619l-11.273-.54V250.6l6.039,1.9,5.273-1.936Z" transform="translate(-261.807 -159.224)" fill="#fffae3"/>
      <path id="Path_7833" data-name="Path 7833" d="M391.334,248.806l-11.284.268.249,3.514,6.158,1.459,5.123-2.307Z" transform="translate(-337.665 -159.803)" fill="#ffa348"/>
      <path id="Path_7834" data-name="Path 7834" d="M392.243,247.441l-11.285.268.249,3.514,6.158,1.459,5.122-2.309Z" transform="translate(-339.175 -159.346)" fill="#fffae3"/>
      <g id="Group_2413" data-name="Group 2413" transform="translate(50.481 38.656)">
        <path id="Path_7835" data-name="Path 7835" d="M381.143,173.6l-7.813,1.485s.395,6.035,5.46,4.913C381.937,179.3,381.143,173.6,381.143,173.6Z" transform="translate(-373.33 -173.258)" fill="#3f2422"/>
        <path id="Path_7836" data-name="Path 7836" d="M380.472,173.085l-.456,3.339-5.227.2-.43-1.619Z" transform="translate(-373.254 -173.085)" fill="#fff1e3"/>
      </g>
      <path id="Path_7837" data-name="Path 7837" d="M367.2,140.442c-1.249.311-2.77-2.088-1.81-4.287s10.019,2.442,9.172,4.531S372.782,139.057,367.2,140.442Z" transform="translate(-310.759 -121.86)" fill="#b78e7e"/>
      <path id="Path_7838" data-name="Path 7838" d="M389.9,141.655c1.087.283,1.754-2.2.453-4.414s-7.559,2.749-6.376,4.86S385.043,140.394,389.9,141.655Z" transform="translate(-339.668 -122.231)" fill="#b78e7e"/>
      <path id="Path_7839" data-name="Path 7839" d="M369.979,141.972c3.078-.37,6.069,2.685,6.688,6.813s-1.383,7.777-4.457,8.144-6.077-2.683-6.688-6.815S366.9,142.34,369.979,141.972Zm-3.585,8.151c.416,3.389,2.861,5.836,5.458,5.456s4.362-3.416,3.945-6.8-2.864-5.833-5.463-5.458S365.975,146.736,366.394,150.123Z" transform="translate(-313.129 -123.993)" fill="#6d4a47"/>
      <path id="Path_7840" data-name="Path 7840" d="M373.074,153.92c-.035-.752.37-1.4.9-1.428s1,.543,1.035,1.3-.372,1.4-.9,1.437S373.107,154.678,373.074,153.92Z" transform="translate(-316.458 -127.528)" fill="#543432"/>
      <path id="Path_7841" data-name="Path 7841" d="M387.537,154.586a1.181,1.181,0,0,1,.593-1.489c.5-.135,1.038.316,1.21,1a1.18,1.18,0,0,1-.591,1.493C388.252,155.724,387.713,155.275,387.537,154.586Z" transform="translate(-340.422 -127.723)" fill="#543432"/>
      <path id="Path_7842" data-name="Path 7842" d="M388.173,143.037c2.968-.346,5.805,2.722,6.342,6.858s-1.433,7.761-4.4,8.108-5.814-2.718-6.349-6.855S385.2,143.381,388.173,143.037Zm-3.567,8.125c.362,3.39,2.678,5.849,5.186,5.492s4.244-3.386,3.884-6.776-2.674-5.853-5.177-5.495S384.25,147.774,384.606,151.162Z" transform="translate(-343.102 -124.351)" fill="#6d4a47"/>
      <path id="Path_7843" data-name="Path 7843" d="M383.68,153.5l-1.586.207.043.735,1.606-.119Z" transform="translate(-331.186 -127.867)" fill="#6d4a47"/>
      <path id="Path_7844" data-name="Path 7844" d="M348.326,149.16l12.411,1.729-.972.7-11.635-1.359Z" transform="translate(-285.598 -126.412)" fill="#6d4a47"/>
      <path id="Path_7845" data-name="Path 7845" d="M382.76,171.986l-16.981.835s4.324-6.259,6.7-6.29c4.109-.052,10.335,5.736,10.335,5.736Z" transform="translate(-319.41 -132.233)" fill="#ceae9f"/>
      <path id="Path_7846" data-name="Path 7846" d="M343.2,156.1c.4-3.854,5.341-7.971,7.353-5.237,2.285,3.111-4.031,16.565-6.428,12.863C341.99,160.431,342.941,158.562,343.2,156.1Z" transform="translate(-272.333 -126.685)" fill="#ffcd9c"/>
      <path id="Path_7847" data-name="Path 7847" d="M345.625,158.981c.176-2.38,3.253-5.132,4.479-3.3,1.33,1.989-2.508,9.482-3.845,7.575C345.01,161.475,345.516,160.422,345.625,158.981Z" transform="translate(-273.448 -128.397)" fill="#ef8f6f"/>
      <path id="Path_7848" data-name="Path 7848" d="M347.495,162.182c.127-1.717,2.346-3.7,3.233-2.38.959,1.436-1.809,6.843-2.776,5.467C347.049,163.982,347.416,163.222,347.495,162.182Z" transform="translate(-275.272 -129.833)" fill="#ffcd9c"/>
      <path id="Path_7849" data-name="Path 7849" d="M383.777,155c.081-.132.126-.2.126-.2l2.121,7.626s-4.328,4.248-5.919,2.511C378.661,163.36,382.973,156.287,383.777,155Z" transform="translate(-331.949 -128.302)" fill="#ffcd9c"/>
      <path id="Path_7850" data-name="Path 7850" d="M386.952,155l.132-.2.171.6c-1.368,2.217-4.686,7.942-3.368,9.349a1.777,1.777,0,0,0,1.945.253c-1.034.5-2.055.7-2.676.039C381.662,163.445,386.124,156.3,386.952,155Z" transform="translate(-335.203 -128.302)" fill="#ef8f6f"/>
      <path id="Path_7851" data-name="Path 7851" d="M374.73,131.873c0-.3,1.615-.537,3.608-.537s3.607.241,3.607.537-1.614.536-3.607.536S374.73,132.169,374.73,131.873Z" transform="translate(-324.493 -120.439)" fill="#ffae85"/>
      <path id="Path_7852" data-name="Path 7852" d="M373.208,128.185c0-.213,1.37-.386,3.062-.386s3.06.173,3.06.386-1.37.385-3.06.385S373.208,128.4,373.208,128.185Z" transform="translate(-320.865 -119.254)" fill="#ffae85"/>
      <path id="Path_7853" data-name="Path 7853" d="M242.068,279.283l-.576-5.769-6.625-1.245s-1.325,7.5.315,8.58Z" transform="translate(-91.283 -167.665)" fill="#fffae3"/>
      <path id="Path_7854" data-name="Path 7854" d="M228.635,275.834c.49-.09,1.209-.166,1.907-.261,1.167-.156,2.389-.861,2.4-1.39,0-.441-.893.088-1.715.192-.761.1-1.029.156-1.013-.06a7.771,7.771,0,0,1,2.067-.865c1.275-.451,2.083-.981,2.081-1.519s-.8-.007-1.969.251c-1.088.231-1.587.406-1.636-.165-.025-.275.735-.517,1.84-1.15,1.224-.692,1.917-1.455,1.818-1.9-.147-.656-.626.127-2.112.688-2.084.787-2.341,1.444-3.651.914-1.332-.539,2.894-4.959,1.706-4.846-.984.1-7.7,7.979-8.048,9.649C222.254,278.223,224.707,275.437,228.635,275.834Z" transform="translate(-75.63 -165.472)" fill="#ffcd9c"/>
    </g>
    <g id="Group_2418" data-name="Group 2418" transform="translate(87.037 0.419)">
      <path id="Path_7855" data-name="Path 7855" d="M225.355,205.3l-1.681.494a178.531,178.531,0,0,1,8.337,50.7l3.248-.331S234.543,224.564,225.355,205.3Z" transform="translate(-164.406 -145.645)" fill="#a85a3b"/>
      <path id="Path_7856" data-name="Path 7856" d="M215.713,234.577l7.188-6.327c8.794,13.415,6.552,27.59,3.686,26.988C223.673,254.626,219.91,242.209,215.713,234.577Z" transform="translate(-152.988 -153.334)" fill="#ffcd9c"/>
      <path id="Path_7857" data-name="Path 7857" d="M227.646,252.657c0-5.483-2.252-9.929-5.031-9.929a3.387,3.387,0,0,0-2.5,1.317c-1.4-3.256-2.87-6.682-4.4-9.468l7.188-6.327c7.807,11.91,6.916,24.41,4.61,26.645A19.061,19.061,0,0,0,227.646,252.657Z" transform="translate(-152.989 -153.334)" fill="#ffae85"/>
      <path id="Path_7858" data-name="Path 7858" d="M244.35,190.431c7.543-1.507,23.135-8.78,20.991-20.278-.856-4.6-16.291-14.218-16.31-18.491s.231-22.947-5.315-28.94-24.981-12.231-25.1-.6c0,0-4.119-5.962-11.028-3.269-6.887,2.684-20.149,20.253-4.813,43.785,10.147,15.568,2.061,21.687,9.775,25.81S237,191.9,244.35,190.431Z" transform="translate(-176.075 -115.578)" fill="#ceae9f"/>
      <path id="Path_7859" data-name="Path 7859" d="M195.68,155.985c8.757,6.781,23.889-.789,34.5-12.773,6.273-7.085,9.654-11.779,9.686-19.053a13.857,13.857,0,0,1,1.6,1.438c5.546,5.993,5.3,24.666,5.315,28.94s15.454,13.893,16.31,18.491c2.144,11.5-13.448,18.771-20.991,20.278-7.354,1.471-24.082,2.136-31.794-1.987s.372-10.242-9.775-25.81A47.577,47.577,0,0,1,195.68,155.985Z" transform="translate(-173.821 -118.454)" fill="#b78e7e"/>
      <path id="Path_7860" data-name="Path 7860" d="M215.377,211.892c-3.2-13.932.561-26.662,9.266-29.577,9.637-3.225,21.685,6.807,26.907,22.407a47.851,47.851,0,0,1,1.312,4.71,37.1,37.1,0,0,1-8.846,3.16C237.549,213.886,223.835,214.554,215.377,211.892Z" transform="translate(-175.741 -137.739)" fill="#8c6053"/>
      <path id="Path_7861" data-name="Path 7861" d="M236.114,313.3l41.892,1.263c10.5,46.424-1.537,87.78-10.077,139.458h-1.877c-.378-7.926-3.441-96.262-3.441-96.262l-12.293-2.944c-.024,12.881-.615,99.206-.615,99.206h-2.79C228.71,352.158,236.114,313.3,236.114,313.3Z" transform="translate(-218.524 -181.835)" fill="#ffcd9c"/>
      <path id="Path_7862" data-name="Path 7862" d="M236.114,313.3l41.892,1.263c7.94,35.1,2.992,67.308-3.584,103.266-2.075-8.46-5.345-14.058-8.839-14.058a3.39,3.39,0,0,0-1.352.3c-.828-23.487-1.62-46.309-1.62-46.309l-12.293-2.944c-.013,6.926-.19,35.079-.35,59.633-2.916-9.13-6.92-15.071-10.62-14.75a3.212,3.212,0,0,0-.6.114C231.4,338.051,236.114,313.3,236.114,313.3Z" transform="translate(-218.524 -181.835)" fill="#ffae85"/>
      <path id="Path_7863" data-name="Path 7863" d="M287.881,371.127s-37.551.6-62.6-11.281c0,0-4.017-49.3,9.115-79.844,4.4-10.232,7.449-41.6,7.449-41.6l36.053-2.8s-7.186,23.562,1.185,40.114C291.268,299.812,287.881,371.127,287.881,371.127Z" transform="translate(-218.142 -155.796)" fill="#e25959"/>
      <g id="Group_2415" data-name="Group 2415" transform="translate(7.137 79.801)">
        <path id="Path_7864" data-name="Path 7864" d="M266.069,360.357c2.338-39-6.322-90.117-20.3-93.455-9.672-2.309-14.563-1.324-21.071,13.1,4.4-10.232,7.449-41.6,7.449-41.6l36.053-2.8s-7.186,23.562,1.185,40.114c12.187,24.1,8.8,95.416,8.8,95.416s-5.245-.2-13.133-.978C265.5,367.289,265.847,364.042,266.069,360.357Z" transform="translate(-215.586 -235.597)" fill="#d34040"/>
        <path id="Path_7865" data-name="Path 7865" d="M319.419,421.886l-.165-.076s.01-.456.041-1.3C319.334,420.973,319.372,421.434,319.419,421.886Z" transform="translate(-319.254 -297.562)" fill="#d34040"/>
      </g>
      <path id="Path_7866" data-name="Path 7866" d="M307.6,222.559l7.442,4.377c-8.515,10.4-24.179,13.063-24.517,10.109S302.037,227.485,307.6,222.559Z" transform="translate(-288.637 -151.427)" fill="#ffcd9c"/>
      <path id="Path_7867" data-name="Path 7867" d="M293.172,235.328c4.767-1.414,8.294-3.7,7.878-5.1-.176-.6-1.045-.934-2.344-1.02,3.166-2.252,6.576-4.6,8.9-6.65l7.442,4.377c-8.515,10.4-24.179,13.063-24.517,10.109a1.9,1.9,0,0,1,.331-1.132C291.6,235.755,292.378,235.563,293.172,235.328Z" transform="translate(-288.636 -151.427)" fill="#ffae85"/>
      <path id="Path_7868" data-name="Path 7868" d="M279.41,218.365s10.357,9.981,13.387,10.311,9.618-25.577,8.157-26.6S285.905,209.907,279.41,218.365Z" transform="translate(-267.369 -144.537)" fill="#e25959"/>
      <path id="Path_7869" data-name="Path 7869" d="M287.355,215.3c5.893-4.578,9.838-9.8,10.143-13.024.73-.273,1.243-.352,1.467-.2,1.461,1.02-5.127,26.924-8.157,26.6-2.2-.239-8.236-5.544-11.4-8.449A41.74,41.74,0,0,0,287.355,215.3Z" transform="translate(-265.38 -144.537)" fill="#d34040"/>
      <path id="Path_7870" data-name="Path 7870" d="M308.545,232.567l-8.914-8.561-1.766,1.942,9.71,9.09.793-2.293Z" transform="translate(-287.022 -151.912)" fill="#ffe7d4"/>
      <path id="Path_7871" data-name="Path 7871" d="M298.15,229.153a9.6,9.6,0,0,0,2.48-.884L306.593,234l-.176.178-.794,2.294-7.757-7.263C297.958,229.187,298.053,229.173,298.15,229.153Z" transform="translate(-285.07 -153.34)" fill="#f2b6b6"/>
      <path id="Path_7872" data-name="Path 7872" d="M272.934,237.235c-1.584,3.6-29.768,4.5-32.292-1.678s9.242-29.774,12.695-33.354,25.743-2.287,28.114.344S274.211,234.334,272.934,237.235Z" transform="translate(-222.019 -143.869)" fill="#e25959"/>
      <path id="Path_7873" data-name="Path 7873" d="M266.52,200.005s0,4.583-2.648,5.561c-1.374.508-4.254.186-6.532-2.561,0,0-6.251,1.857-7.5.53-.6-.632-1.325-3.178,3.618-4.5C253.458,199.034,261.577,196.034,266.52,200.005Z" transform="translate(-212.781 -143.18)" fill="#ffe7d4"/>
      <path id="Path_7874" data-name="Path 7874" d="M269.284,236.32c1.18-2.677,8.709-27.993,8.006-33.962a7.01,7.01,0,0,1,3.09,1.3c2.37,2.63-6.375,32.144-7.652,35.045-1.558,3.537-30.608,3.8-33.987-2.057C247.383,239.95,267.981,239.283,269.284,236.32Z" transform="translate(-219.949 -144.658)" fill="#d34040"/>
      <path id="Path_7875" data-name="Path 7875" d="M236.4,225.882s-14.22,6.107-17.434,5.447-4.594-28.3.286-28.3C226.265,203.032,232.842,215.811,236.4,225.882Z" transform="translate(-160.478 -144.883)" fill="#e25959"/>
      <path id="Path_7876" data-name="Path 7876" d="M231.549,203.032a6.1,6.1,0,0,1,1.19.126c-1.894,3.059-1.518,9.419,1.237,15.958a27.192,27.192,0,0,0,6.747,9.9c-3.828,1.38-8.555,2.8-10.1,2.478C227.406,230.836,226.669,203.032,231.549,203.032Z" transform="translate(-172.778 -144.883)" fill="#d34040"/>
      <path id="Path_7877" data-name="Path 7877" d="M234.87,233.962l1.074,2.323c-7.176,3.481-12.234,5.152-20.139,5.974l-.926-2.455C221.56,239.434,227.72,237.227,234.87,233.962Z" transform="translate(-159.242 -155.248)" fill="#ffe7d4"/>
      <path id="Path_7878" data-name="Path 7878" d="M249.911,178l12.694-.495L261.21,193.6c-5.024,1.9-8.283,2.252-12.441-.494Z" transform="translate(-208.437 -136.328)" fill="#ffcd9c"/>
      <g id="Group_2416" data-name="Group 2416" transform="translate(6.62 59.738)" opacity="0.6" style="mix-blend-mode: overlay;isolation: isolate">
        <path id="Path_7879" data-name="Path 7879" d="M297.062,402.152a3.181,3.181,0,1,1-3.046,3.178A3.113,3.113,0,0,1,297.062,402.152Z" transform="translate(-282.643 -271.345)" fill="#e5c19a"/>
        <path id="Path_7880" data-name="Path 7880" d="M316.282,352.365a3.113,3.113,0,0,1-3.045,3.178,2.927,2.927,0,0,1-1.5-.428c.192-1.918.415-3.853.667-5.791a2.821,2.821,0,0,1,.833-.136A3.113,3.113,0,0,1,316.282,352.365Z" transform="translate(-310.601 -253.597)" fill="#e5c19a"/>
        <path id="Path_7881" data-name="Path 7881" d="M298.453,311.749a3.181,3.181,0,1,1-3.044,3.178A3.114,3.114,0,0,1,298.453,311.749Z" transform="translate(-284.962 -241.052)" fill="#e5c19a"/>
        <path id="Path_7882" data-name="Path 7882" d="M268.586,300.6a3.181,3.181,0,1,1-3.045,3.178A3.114,3.114,0,0,1,268.586,300.6Z" transform="translate(-235.235 -237.315)" fill="#e5c19a"/>
        <path id="Path_7883" data-name="Path 7883" d="M243.1,320.1a3.18,3.18,0,1,1,3.044-3.178A3.113,3.113,0,0,1,243.1,320.1Z" transform="translate(-192.803 -241.719)" fill="#e5c19a"/>
        <path id="Path_7884" data-name="Path 7884" d="M249.073,266.75a3.181,3.181,0,1,1-3.045,3.178A3.114,3.114,0,0,1,249.073,266.75Z" transform="translate(-202.748 -225.973)" fill="#e5c19a"/>
        <path id="Path_7885" data-name="Path 7885" d="M291.288,290.628a3.18,3.18,0,1,1,3.043-3.177A3.113,3.113,0,0,1,291.288,290.628Z" transform="translate(-273.029 -231.844)" fill="#e5c19a"/>
        <path id="Path_7886" data-name="Path 7886" d="M273.506,268.734a3.048,3.048,0,1,1,3.045,3.178A3.113,3.113,0,0,1,273.506,268.734Z" transform="translate(-248.496 -225.573)" fill="#e5c19a"/>
        <path id="Path_7887" data-name="Path 7887" d="M300.148,246.033a3.113,3.113,0,0,1-3.045,3.178,2.96,2.96,0,0,1-2.067-.856,17.618,17.618,0,0,1,.592-5.086,2.917,2.917,0,0,1,1.475-.413A3.113,3.113,0,0,1,300.148,246.033Z" transform="translate(-283.347 -217.966)" fill="#e5c19a"/>
        <path id="Path_7888" data-name="Path 7888" d="M273.763,244.432a3.18,3.18,0,1,1,3.046-3.177A3.113,3.113,0,0,1,273.763,244.432Z" transform="translate(-243.854 -216.364)" fill="#e5c19a"/>
        <path id="Path_7889" data-name="Path 7889" d="M240.454,236.078a3.149,3.149,0,0,1,2.3-3.071c-.2.684-.4,1.364-.6,2.032l.911-.072c-.092-.632-.172-1.3-.245-1.981a2.961,2.961,0,0,1,.683-.086,3.18,3.18,0,1,1-3.046,3.178Z" transform="translate(-193.467 -214.63)" fill="#e5c19a"/>
        <path id="Path_7890" data-name="Path 7890" d="M261.416,220.141a3.18,3.18,0,1,1,3.047-3.178A3.113,3.113,0,0,1,261.416,220.141Z" transform="translate(-223.301 -208.225)" fill="#e5c19a"/>
        <path id="Path_7891" data-name="Path 7891" d="M291.288,227.706a3.18,3.18,0,1,1,3.043-3.178A3.113,3.113,0,0,1,291.288,227.706Z" transform="translate(-273.029 -210.76)" fill="#e5c19a"/>
        <path id="Path_7892" data-name="Path 7892" d="M287.96,208.6a3.048,3.048,0,1,1-6.091,0,3.206,3.206,0,0,1,1.266-2.569c.105-.069.209-.135.313-.2a2.911,2.911,0,0,1,1.465-.408A3.113,3.113,0,0,1,287.96,208.6Z" transform="translate(-262.42 -205.422)" fill="#e5c19a"/>
        <path id="Path_7893" data-name="Path 7893" d="M228.257,207.974a3.226,3.226,0,0,1,.737-2.049,22.051,22.051,0,0,1,4.2,4.525,2.937,2.937,0,0,1-1.886.7A3.114,3.114,0,0,1,228.257,207.974Z" transform="translate(-172.003 -205.591)" fill="#e5c19a"/>
        <path id="Path_7894" data-name="Path 7894" d="M219.859,222.6a3.145,3.145,0,0,1,2.229-3.047c.979,1.761,1.892,3.624,2.726,5.5a2.942,2.942,0,0,1-1.909.719A3.113,3.113,0,0,1,219.859,222.6Z" transform="translate(-158.043 -210.159)" fill="#e5c19a"/>
        <path id="Path_7895" data-name="Path 7895" d="M300.879,218.021a2.908,2.908,0,0,1-.692-.091c1.188-1.158,2.438-2.287,3.711-3.357.008.091.027.178.027.271A3.114,3.114,0,0,1,300.879,218.021Z" transform="translate(-290.565 -208.488)" fill="#e5c19a"/>
        <path id="Path_7896" data-name="Path 7896" d="M258.373,367.5a3.048,3.048,0,1,1,3.043,3.176A3.113,3.113,0,0,1,258.373,367.5Z" transform="translate(-223.301 -258.668)" fill="#e5c19a"/>
        <path id="Path_7897" data-name="Path 7897" d="M230.1,344a3.048,3.048,0,1,1,3.045,3.179A3.114,3.114,0,0,1,230.1,344Z" transform="translate(-176.226 -250.794)" fill="#e5c19a"/>
        <path id="Path_7898" data-name="Path 7898" d="M266.455,336.035a3.048,3.048,0,1,1-3.045-3.178A3.113,3.113,0,0,1,266.455,336.035Z" transform="translate(-226.617 -248.125)" fill="#e5c19a"/>
        <path id="Path_7899" data-name="Path 7899" d="M288.5,376.268a3.18,3.18,0,1,1-3.045,3.176A3.112,3.112,0,0,1,288.5,376.268Z" transform="translate(-268.387 -262.671)" fill="#e5c19a"/>
        <path id="Path_7900" data-name="Path 7900" d="M288.1,350.365a3.181,3.181,0,1,1,3.045-3.178A3.113,3.113,0,0,1,288.1,350.365Z" transform="translate(-267.725 -251.862)" fill="#e5c19a"/>
        <path id="Path_7901" data-name="Path 7901" d="M314.506,379.453a3.18,3.18,0,0,1,0,6.354,2.979,2.979,0,0,1-2.37-1.206q.041-1.993.116-4.09A2.973,2.973,0,0,1,314.506,379.453Z" transform="translate(-312.136 -263.739)" fill="#e5c19a"/>
        <path id="Path_7902" data-name="Path 7902" d="M265.054,399.826A3.181,3.181,0,1,1,262.009,403,3.114,3.114,0,0,1,265.054,399.826Z" transform="translate(-229.354 -270.566)" fill="#e5c19a"/>
        <path id="Path_7903" data-name="Path 7903" d="M234.877,373.869a3.048,3.048,0,1,1,3.045,3.178A3.113,3.113,0,0,1,234.877,373.869Z" transform="translate(-184.183 -260.803)" fill="#e5c19a"/>
        <path id="Path_7904" data-name="Path 7904" d="M278.992,424.518a3.18,3.18,0,1,1-3.045,3.178A3.113,3.113,0,0,1,278.992,424.518Z" transform="translate(-252.56 -278.84)" fill="#e5c19a"/>
        <path id="Path_7905" data-name="Path 7905" d="M243.152,418.145a3.18,3.18,0,1,1-3.046,3.178A3.113,3.113,0,0,1,243.152,418.145Z" transform="translate(-192.888 -276.704)" fill="#e5c19a"/>
        <path id="Path_7906" data-name="Path 7906" d="M224.7,397.445a3.114,3.114,0,0,1,2.769-3.148c.032,2.168.051,4.276.059,6.3A3.113,3.113,0,0,1,224.7,397.445Z" transform="translate(-163.98 -268.713)" fill="#e5c19a"/>
      </g>
      <path id="Path_7907" data-name="Path 7907" d="M251.272,202.038l2.031.495a133.267,133.267,0,0,0-8.329,51.038l-3.892-.33S241.455,221.352,251.272,202.038Z" transform="translate(-194.024 -144.55)" fill="#ffab5f"/>
      <path id="Path_7908" data-name="Path 7908" d="M257.43,260.773a120.349,120.349,0,0,0-.139,12.48l-3.892-.33s.046-3.9.523-9.777A9.451,9.451,0,0,0,257.43,260.773Z" transform="translate(-206.341 -164.232)" fill="#e58e4c"/>
      <path id="Path_7909" data-name="Path 7909" d="M235.771,264.213c-4.936.291-12.46-6.522-19.526-11.869l.551-2.075s18.843,4.848,22.181,8.264C240.574,260.169,239.6,263.985,235.771,264.213Z" transform="translate(-163.919 -160.712)" fill="#ffcd9c"/>
      <path id="Path_7910" data-name="Path 7910" d="M217.457,250.441c6.707,5.174,13.667,11.222,18.324,10.946a4.022,4.022,0,0,0,3.616-2.268c.944,1.819-.188,4.89-3.616,5.094-4.936.291-12.46-6.522-19.526-11.869l.551-2.075S217.045,250.331,217.457,250.441Z" transform="translate(-163.929 -160.712)" fill="#ffae85"/>
      <path id="Path_7911" data-name="Path 7911" d="M246.71,279.946l-25.9-3.136s-4.571,18.984,0,24.1,25.052,5.777,27.59,1.65S246.71,279.946,246.71,279.946Z" transform="translate(-175.109 -169.606)" fill="#e58e4c"/>
      <path id="Path_7912" data-name="Path 7912" d="M240.072,281.46l-19.879-2.777s-2.884,18.415.912,22.516,20.464,5.286,22.571,1.975S240.072,281.46,240.072,281.46Z" transform="translate(-170.277 -170.234)" fill="#a85a3b"/>
      <path id="Path_7913" data-name="Path 7913" d="M238.988,279.8l-21.517-2.515s-1.91,18.947,1.887,23.048,20.815,4.631,22.922,1.323S238.988,279.8,238.988,279.8Z" transform="translate(-167.473 -169.765)" fill="#ffbf85"/>
      <path id="Path_7914" data-name="Path 7914" d="M230.308,299.519a22.231,22.231,0,0,0,10.4-6.363c1.25,5.45,2.394,11.982,1.221,13.819-2.107,3.308-19.124,2.779-22.922-1.323-1.071-1.158-1.686-3.5-2.021-6.257A21.816,21.816,0,0,0,230.308,299.519Z" transform="translate(-167.126 -175.083)" fill="#f9b169"/>
      <path id="Path_7915" data-name="Path 7915" d="M282.422,525.185h14.216s-.485-5.333-3.232-5.815S282.422,525.185,282.422,525.185Z" transform="translate(-264.847 -250.877)" fill="#ffeea9"/>
      <path id="Path_7916" data-name="Path 7916" d="M253.218,525.185h8.769s-.485-5.333-3.232-5.815S253.218,525.185,253.218,525.185Z" transform="translate(-210.777 -250.877)" fill="#ffeea9"/>
      <path id="Path_7917" data-name="Path 7917" d="M235.484,173.691c-2.846-3.987,2.543-11.839,5.966-6.921C242.958,168.942,237.015,175.839,235.484,173.691Z" transform="translate(-178.159 -132.206)" fill="#ffcd9c"/>
      <path id="Path_7918" data-name="Path 7918" d="M238.069,239.548a6.4,6.4,0,0,0,2.06,2.111,52.312,52.312,0,0,1-11.834,2.471l-.926-2.455A41.577,41.577,0,0,0,238.069,239.548Z" transform="translate(-171.732 -157.12)" fill="#f2b6b6"/>
      <path id="Path_7919" data-name="Path 7919" d="M288.489,426.96a40.177,40.177,0,0,0,.4,6.542s-39.38,1.471-64.431-10.414a17.26,17.26,0,0,0,1.044-5.08C247.731,424.99,275.234,426.6,288.489,426.96Z" transform="translate(-218.557 -216.92)" fill="#ffe7d4"/>
      <path id="Path_7920" data-name="Path 7920" d="M231.293,313.867c0-1.169.593-2.118,1.324-2.118s1.324.949,1.324,2.118-.593,2.12-1.324,2.12S231.293,315.038,231.293,313.867Z" transform="translate(-168.154 -181.314)" fill="#ffd19f"/>
      <path id="Path_7921" data-name="Path 7921" d="M245.947,209.218c-9.886-1.884-13.8-8.319-13.594-15.486a23.953,23.953,0,0,1,6.537-1.144c.288-.111.6-.218.95-.318L240.919,178l12.694-.495-1.305,15.045a8.363,8.363,0,0,1,.877.608s0,.02,0,.057a28.085,28.085,0,0,1,3.449.728c.021-.041.04-.084.06-.123l2.031.495-.077.189c.056.005.112.005.17.011a9.963,9.963,0,0,1,5.717,3.2C260.791,202.48,256.012,211.134,245.947,209.218Z" transform="translate(-199.446 -136.328)" fill="#d15443" opacity="0.5" style="mix-blend-mode: multiply;isolation: isolate"/>
      <path id="Path_7922" data-name="Path 7922" d="M271.921,163.541c-.655,6.525-5.7,12.994-14.913,14.231,0,0-12.971-4.186-10.915-18.272,1.32-9.3-2.448-17.242,2.94-19.907C255.413,136.437,275.251,130.581,271.921,163.541Z" transform="translate(-216.2 -122.779)" fill="#ffcd9c"/>
      <path id="Path_7923" data-name="Path 7923" d="M316.181,224.089c-2.12-5.626,5.529-24.393,8.057-34.713l1.166-.092s-1.185,29.259-3.238,34.479C321.18,226.267,317.824,228.452,316.181,224.089Z" transform="translate(-315.814 -140.277)" fill="#ffcd9c"/>
      <path id="Path_7924" data-name="Path 7924" d="M319.759,220.19c1.809-3.757,3.816-21.806,4.727-30.834l.912-.072s-.5,31.072-2.552,36.293c-.985,2.5-5.027,2.874-6.67-1.488a7.339,7.339,0,0,1-.362-2.534A2.985,2.985,0,0,0,319.759,220.19Z" transform="translate(-315.809 -140.277)" fill="#ffae85"/>
      <path id="Path_7925" data-name="Path 7925" d="M237.142,172.422c-1.636-2.291,1.461-6.807,3.43-3.979C241.44,169.692,238.023,173.657,237.142,172.422Z" transform="translate(-178.507 -132.99)" fill="#ef8f6f"/>
      <path id="Path_7926" data-name="Path 7926" d="M239.4,174.317c-1.12-1.57,1-4.664,2.352-2.727C242.351,172.447,240.009,175.164,239.4,174.317Z" transform="translate(-181.248 -134.14)" fill="#ffcd9c"/>
      <g id="Group_2417" data-name="Group 2417" transform="translate(30.081 25.358)">
        <path id="Path_7927" data-name="Path 7927" d="M259.861,159.09c-3.65-2.726-7.3-4.818-11.464-1.882.213-1.009,1.985-3.551,4.578-3.491C257.76,153.827,259.861,159.09,259.861,159.09Z" transform="translate(-235.528 -153.715)" fill="#b78e7e"/>
        <path id="Path_7928" data-name="Path 7928" d="M271.128,159.693c2.647-3.2,5.6-4.057,9.22-2.719a5.08,5.08,0,0,0-5.38-2.166C271.528,155.713,271.128,159.693,271.128,159.693Z" transform="translate(-271.128 -154.026)" fill="#b78e7e"/>
        <path id="Path_7929" data-name="Path 7929" d="M270.5,171.716l.089.443c-1.133.693-2.015,1.469-1.943,2.163.128,1.251,1.818,1.909,2.836,2.2l.031.132s-3.434-.582-3.608-2.387C267.813,173.445,269.068,172.5,270.5,171.716Z" transform="translate(-260.142 -159.747)" fill="#ef8f6f"/>
        <path id="Path_7932" data-name="Path 7932" d="M262.535,182.461l7.922-.556a4.415,4.415,0,0,1-3.957,4.622C263.19,186.961,262.535,182.461,262.535,182.461Z" transform="translate(-255.526 -163.161)" fill="#543732"/>
        <path id="Path_7933" data-name="Path 7933" d="M263.625,184.474a6.2,6.2,0,0,1-.7-1.965l6.487-.453a4.281,4.281,0,0,1-.477,2.011Z" transform="translate(-254.734 -163.212)" fill="#fff7f0"/>
        <path id="Path_7934" data-name="Path 7934" d="M260.387,165.35c-1.821-1.377-3.9-2.624-6.912-1.232a2.8,2.8,0,0,1,3.263-1.635A5.2,5.2,0,0,1,260.387,165.35Z" transform="translate(-239.43 -156.636)" fill="#543732"/>
        <path id="Path_7935" data-name="Path 7935" d="M277.437,163.742c-1.861-.733-3.9-1.231-5.938,1.291a3,3,0,0,1,2.173-2.871C275.854,161.619,277.437,163.742,277.437,163.742Z" transform="translate(-268.464 -156.516)" fill="#543732"/>
        <path id="Path_7936" data-name="Path 7936" d="M256.653,168.608s5.2,1.243,4.418,1.907S256.653,168.608,256.653,168.608Z" transform="translate(-242.307 -158.706)" fill="#ffae85"/>
        <path id="Path_7937" data-name="Path 7937" d="M277.694,169.554s-4.684,2.639-4.537,1.61S277.694,169.554,277.694,169.554Z" transform="translate(-269.821 -159.023)" fill="#ffae85"/>
      </g>
      <path id="Path_7938" data-name="Path 7938" d="M260.642,145.254c-.029.018-15.786-3.73-17.053-11.077C241.424,121.659,268.7,140.531,260.642,145.254Z" transform="translate(-204.443 -120.397)" fill="#ceae9f"/>
      <path id="Path_7939" data-name="Path 7939" d="M272.517,145.634c.02.01,11.428-5.681,11.684-10.522C284.636,126.867,266.733,143.017,272.517,145.634Z" transform="translate(-245.066 -121.346)" fill="#ceae9f"/>
      <path id="Path_7940" data-name="Path 7940" d="M251.869,250.929c-.473.025-1.168.1-1.837.154-1.125.1-2.351-.245-2.409-.678-.039-.362.857-.1,1.648-.176.735-.067.993-.071.96-.247a7.681,7.681,0,0,0-2.043-.31c-1.254-.125-2.07-.406-2.116-.85s.76-.158,1.9-.176c1.054-.019,1.546.031,1.542-.451,0-.231-.745-.285-1.853-.59-1.225-.334-1.954-.829-1.9-1.214.082-.568.609-.016,2.071.16,2.053.245,2.355.734,3.555.045,1.221-.7-3.19-3.524-2.05-3.662.947-.1,8.037,5.081,8.51,6.391C258.152,251.662,255.572,249.841,251.869,250.929Z" transform="translate(-201.7 -158.254)" fill="#ffcd9c"/>
      <path id="Path_7941" data-name="Path 7941" d="M312.05,183.216c-.162-.447-.435-1.088-.685-1.713-.422-1.047-.453-2.319-.056-2.5.335-.143.344.791.648,1.525.28.683.36.929.517.846a7.685,7.685,0,0,0-.3-2.044c-.247-1.235-.217-2.1.193-2.272s.374.681.723,1.764c.327,1,.423,1.487.882,1.342.221-.067.055-.8.023-1.946-.039-1.27.221-2.11.606-2.17.567-.088.192.578.451,2.027.367,2.035-.013,2.466,1,3.412,1.031.963,2.438-4.081,2.9-3.031.377.875-2.509,9.171-3.624,10.008C313.185,189.439,314.173,186.44,312.05,183.216Z" transform="translate(-306.217 -135.839)" fill="#ffcd9c"/>
    </g>
  </g>
</svg>
