<svg id="Group_1580" data-name="Group 1580" xmlns="http://www.w3.org/2000/svg" width="102.191" height="223.066" viewBox="0 0 102.191 223.066">
  <path id="Path_4059" data-name="Path 4059" d="M719.767,320.321c3.421-6.256,11.148-29.96,16.765-34.582,3.492-2.874,7.14,1.707,5.647,7.455-1.485,5.715-12.128,29.518-15.861,31.71C724.82,325.783,718.212,323.164,719.767,320.321Z" transform="translate(-692.037 -232.54)" fill="#ffa33e"/>
  <path id="Path_4060" data-name="Path 4060" d="M739.338,284.965a7.814,7.814,0,0,1,.95,6.2c-1.484,5.715-13.657,29.026-17.391,31.219a4.475,4.475,0,0,1-3.11-.3c1.041,2.044,5.367,3.521,6.544,2.829,3.734-2.192,15.907-25.5,17.392-31.218C744.845,289.374,742.2,285.439,739.338,284.965Z" transform="translate(-692.052 -232.546)" fill="#ff8533"/>
  <path id="Path_4061" data-name="Path 4061" d="M729.544,318.706c-1.448-2.32-4.882-2.789-7.671-1.047s-3.875,5.033-2.427,7.352,4.882,2.789,7.67,1.047S730.992,321.025,729.544,318.706Z" transform="translate(-691.996 -234.338)" fill="#e85684"/>
  <path id="Path_4062" data-name="Path 4062" d="M729.555,318.722a4.375,4.375,0,0,0-2.415-1.83,5.833,5.833,0,0,1-2.894,6.237,6.357,6.357,0,0,1-5.256.784,4.147,4.147,0,0,0,.468,1.114c1.448,2.32,4.882,2.788,7.671,1.047S731,321.041,729.555,318.722Z" transform="translate(-692.006 -234.354)" fill="#cc366c"/>
  <path id="Path_4063" data-name="Path 4063" d="M697.237,350.254c7.815-9.939,19.565-28.839,22.91-30.41,2.446-1.149,6.371,1.394,4.273,5.009-3.763,6.484-26.093,25.53-26.093,25.53Z" transform="translate(-690.775 -234.505)" fill="#ffb882"/>
  <path id="Path_4064" data-name="Path 4064" d="M721.73,319.582a3.307,3.307,0,0,1,1.233,4.524c-2.9,5.44-19.233,20.7-25.228,26.2l.62.074s23.8-18.931,27.559-25.413C727.633,322.009,724.327,319.692,721.73,319.582Z" transform="translate(-690.803 -234.506)" fill="#ff9566"/>
  <path id="Path_4065" data-name="Path 4065" d="M737.91,345.2s-27.056,38.523-31.14,47.814c-1.1,2.5-5.124,64.2-5.124,64.2h.861l14.484-56.36,38.458-37.974Z" transform="translate(-691.024 -235.957)" fill="#ffb882"/>
  <path id="Path_4066" data-name="Path 4066" d="M738.158,345.2s-27.056,38.523-31.14,47.814a63.5,63.5,0,0,0-1,8.08l10.225,3.619.992-3.863L755.7,362.872Z" transform="translate(-691.272 -235.957)" fill="#ff9566"/>
  <path id="Path_4067" data-name="Path 4067" d="M768.23,413.041l23,43.924-.614.552s-33.147-41.392-33.976-44.159c-1.49-4.979-9.521-41.328-9.521-41.328l-9.882-7.317,6.372-24.14,22.711,2.522Z" transform="translate(-693.04 -235.695)" fill="#ffb882"/>
  <path id="Path_4068" data-name="Path 4068" d="M761.82,420.784h10.465l-4.056-7.743-1.906-69.946-22.711-2.522-6.372,24.14,9.882,7.317s8.031,36.349,9.521,41.328C756.84,414.013,758.865,416.854,761.82,420.784Z" transform="translate(-693.04 -235.695)" fill="#ff9566"/>
  <path id="Path_4069" data-name="Path 4069" d="M707.9,387.084l18.893,18.964,25.746-42.3-18.9-19.653Z" transform="translate(-691.378 -235.894)" fill="#ffdf97"/>
  <path id="Path_4070" data-name="Path 4070" d="M734.593,344.091l-1.1,1.842,15.964,16.6-24.672,40.538,2.966,2.977,25.746-42.3Z" transform="translate(-692.334 -235.894)" fill="#f4bd7a"/>
  <path id="Path_4071" data-name="Path 4071" d="M746.787,412.348l25.973.243-1.347-51.831-28.181-7.635-4.217,25.363,6.335,5.018Z" transform="translate(-693.141 -236.406)" fill="#ffdf97"/>
  <path id="Path_4072" data-name="Path 4072" d="M771.141,376.01l-.4-15.475-39.443-11.381-4.208,7.98C741.44,365.371,756.074,371.962,771.141,376.01Z" transform="translate(-692.465 -236.181)" fill="#f4bd7a"/>
  <path id="Path_4073" data-name="Path 4073" d="M750.023,382.29c-5.316.867-10.042-1.74-14.444-6.262l3.878,5.741,4.621,3.14,2.513,28.736,3.23.03-3.03-28.355Z" transform="translate(-692.946 -237.703)" fill="#f4bd7a"/>
  <path id="Path_4074" data-name="Path 4074" d="M737.239,285.176c1.171-1.127,4.553-5.916,9.778-5.072a14.2,14.2,0,0,1,11.034,7.923c2.38,4.92,18.691,37.452,15.415,74.583-17.655,3.094-44.845-13.13-44.845-13.13C746.2,309.282,727.154,294.889,737.239,285.176Z" transform="translate(-692.552 -232.265)" fill="#ffa33e"/>
  <path id="Path_4075" data-name="Path 4075" d="M759.17,290.186c-4.7-3.082,6.06,32.326,6.06,60.466a71.7,71.7,0,0,1-1,12.428,34.4,34.4,0,0,0,10.9.1C778.4,326.045,763.479,293.013,759.17,290.186Z" transform="translate(-694.215 -232.831)" fill="#ff8533"/>
  <path id="Path_4076" data-name="Path 4076" d="M736.005,330.9c9.78-12.366,11.911-38.063,17.619-43.683,3.585-3.529,7.561,5.218,6.5,12.329-1.07,7.2-8.282,30.3-14.226,36.215C744.533,337.12,733.584,333.958,736.005,330.9Z" transform="translate(-692.95 -232.628)" fill="#ffa33e"/>
  <path id="Path_4077" data-name="Path 4077" d="M749.883,295.034c-3.485,10.164-6.512,27.038-13.878,36.352a1.365,1.365,0,0,0-.132,1.629c5.869-6.48,12.8-28.766,13.851-35.811A16.363,16.363,0,0,0,749.883,295.034Z" transform="translate(-692.951 -233.116)" fill="#ff8533"/>
  <path id="Path_4078" data-name="Path 4078" d="M757.648,287.307a17.553,17.553,0,0,1,1.251,9.37c-1.252,7.614-10.394,31.91-16.551,38.313a2.331,2.331,0,0,1-1.583.379c2.36.761,4.823,1.041,5.425.441,5.944-5.914,14.444-28.736,15.515-35.932C762.42,295.067,760.241,289.391,757.648,287.307Z" transform="translate(-693.24 -232.678)" fill="#ff8533"/>
  <path id="Path_4079" data-name="Path 4079" d="M748.686,331.159c-1.22-2.876-5.012-4.018-8.47-2.552s-5.272,4.988-4.053,7.863,5.012,4.018,8.47,2.551S749.906,334.034,748.686,331.159Z" transform="translate(-692.957 -234.981)" fill="#e85684"/>
  <path id="Path_4080" data-name="Path 4080" d="M748.69,331.2a5,5,0,0,0-2.4-2.5c.283,2.555-1.446,5.277-4.38,6.522a7.263,7.263,0,0,1-6.072-.055,4.776,4.776,0,0,0,.328,1.341c1.22,2.875,5.012,4.018,8.47,2.551S749.909,334.076,748.69,331.2Z" transform="translate(-692.961 -235.023)" fill="#cc366c"/>
  <path id="Path_4081" data-name="Path 4081" d="M707.013,357.6c10.354-8.408,27.489-25.761,31.36-26.578,2.872-.606,6.252,4.1,2.962,7.609-5.87,6.258-33.37,19.49-33.37,19.49Z" transform="translate(-691.328 -235.151)" fill="#ffb882"/>
  <path id="Path_4082" data-name="Path 4082" d="M738.379,331.021c-.017,0-.039.013-.057.018,2.087,1.3,3.637,4.122,1.455,6.538-4.485,4.966-24.226,15.642-32.654,20.078l.848.465s29.127-13.417,35-19.675C746.256,334.939,741.25,330.415,738.379,331.021Z" transform="translate(-691.335 -235.151)" fill="#ff9566"/>
  <path id="Path_4083" data-name="Path 4083" d="M798.166,465.6h-9.089s1.413-4.848,4.04-4.242S798.166,465.6,798.166,465.6Z" transform="translate(-695.975 -242.532)" fill="#ffdf97"/>
  <path id="Path_4084" data-name="Path 4084" d="M691.432,465.562H704.25s-.044-5.455-3.553-4.848S691.432,465.562,691.432,465.562Z" transform="translate(-690.446 -242.496)" fill="#ffdf97"/>
  <path id="Path_4085" data-name="Path 4085" d="M739.447,291.236s11,1.684,12.323-9.891a16.79,16.79,0,0,0-4.161-1.24,8.513,8.513,0,0,0-6.856,2.151C738.033,287.555,739.447,291.236,739.447,291.236Z" transform="translate(-693.144 -232.265)" fill="#e85684"/>
  <path id="Path_4086" data-name="Path 4086" d="M770.441,251.323c-1.708-7.044-6.947-4.26-6.947-4.26,2.735-5.882,2.062-10.347-.053-10.763.081-1.955-.763-3.639-3.261-4.563-4.8-1.78-6.6,3.665-6.6,3.665-1.361-4.667-4.018-6.188-5.587-4.913-1.192-1.125-2.771-1.506-4.875-.531-4.6,2.127-2.283,7.437-2.283,7.437-7.075-4.306-10.629,1.277-2.864,6.322l4.426,32.63c1.209-.445,2.331-.9,3.4-1.371a2.128,2.128,0,0,0,1.528,1.277c3.448.911,6.082-4.243,6.082-4.243.175,7.42,7.119,4.483,6.711-6.907a17.059,17.059,0,0,0,2.1-3.042C767.036,261.424,772.313,259.039,770.441,251.323Z" transform="translate(-692.833 -229.399)" fill="#b54131"/>
  <path id="Path_4087" data-name="Path 4087" d="M770.782,251.793c-1.707-7.044-6.947-4.26-6.947-4.26,2.1-4.511,2.186-8.181,1.161-9.837a17.243,17.243,0,0,1-.472,4.647c-2.369,9.621-9.7-3.974-19.964-.549-.812.271-4.186,12.236-4.961,11.9l3.136,23.119c1.209-.445,2.331-.9,3.4-1.371a2.129,2.129,0,0,0,1.528,1.277c3.448.911,6.082-4.243,6.082-4.243.176,7.42,7.119,4.483,6.711-6.907a17.052,17.052,0,0,0,2.1-3.042C767.377,261.893,772.654,259.509,770.782,251.793Z" transform="translate(-693.174 -229.869)" fill="#9b281c"/>
  <path id="Path_4088" data-name="Path 4088" d="M750.3,280.01c-3.357-7.365-3.593-16.375-3.593-16.375l-10.717-2.985,4.817,27.151C745.905,287.572,749.421,285.363,750.3,280.01Z" transform="translate(-692.969 -231.169)" fill="#ffb882"/>
  <g id="Group_1574" data-name="Group 1574" transform="translate(42.922 30.904)" opacity="0.6" style="mix-blend-mode: multiply;isolation: isolate">
    <path id="Path_4089" data-name="Path 4089" d="M738.862,300.662c6.548,2.041,14.264-4.287,18.183-15.969a13.8,13.8,0,0,0-6.884-4.918c-3.221-7.3-3.458-16.054-3.458-16.054l-5.608-1.562a28.7,28.7,0,0,0-3.956,5.072l2.614,14.734c-.974.918-1.683,1.8-2.1,2.2-.262.253-.494.511-.719.771l-.063.069c-.026.031-.059.061-.085.092C735.218,286.742,735.57,299.635,738.862,300.662Z" transform="translate(-735.885 -262.158)" fill="#843131"/>
  </g>
  <g id="Group_1577" data-name="Group 1577" transform="translate(31.215 10.546)">
    <path id="Path_4090" data-name="Path 4090" d="M749.848,255.817c-4.35,13.134-5.536,19.367-9.359,21.609s-13.9,1.231-17.014-.977c0,0,5.463-29.094,12.287-34.425S752.7,247.195,749.848,255.817Z" transform="translate(-723.475 -240.578)" fill="#ffb882"/>
    <path id="Path_4091" data-name="Path 4091" d="M744.142,267.638a106.477,106.477,0,0,1,7.645-21.023,3,3,0,0,1,5.311-.158l5.832,9.576-11.649,15.834-2.319-3.6Z" transform="translate(-724.645 -240.825)" fill="#9b281c"/>
    <path id="Path_4092" data-name="Path 4092" d="M748.25,262.535c2.4-3.824,7.777-1.425,5.532,2.854s-7.138,5.89-7.858,4.639S747.25,264.129,748.25,262.535Z" transform="translate(-724.738 -241.713)" fill="#ffb882"/>
    <path id="Path_4093" data-name="Path 4093" d="M748.831,263.972c1.424-2.249,4.6-.844,3.273,1.672s-4.231,3.467-4.656,2.732S748.237,264.91,748.831,263.972Z" transform="translate(-724.828 -241.839)" fill="#d3583c"/>
    <path id="Path_4094" data-name="Path 4094" d="M747.852,266.486c.973-1.537,3.148-.577,2.237,1.142S747.2,270,746.905,269.5,747.446,267.126,747.852,266.486Z" transform="translate(-724.798 -242.002)" fill="#ffb882"/>
    <g id="Group_1576" data-name="Group 1576" transform="translate(4.783 4.298)">
      <path id="Path_4095" data-name="Path 4095" d="M733.878,275.331c.038-.277-.467-.121-1.08-.19s-1.1-.336-1.138-.059.428.559,1.041.626S733.84,275.608,733.878,275.331Z" transform="translate(-728.721 -246.823)" fill="#ea7b59"/>
      <g id="Group_1575" data-name="Group 1575" transform="translate(0.147 23.028)">
        <path id="Path_4096" data-name="Path 4096" d="M728.7,272.88l.058-.168c2.681,1.26,5.121,1.153,6.661.209a6.038,6.038,0,0,0,2.046-3.376l.535.233a6.163,6.163,0,0,1-2.486,3.544C733.823,274.359,731.531,274.21,728.7,272.88Z" transform="translate(-728.701 -269.545)" fill="#ea7b59"/>
      </g>
      <path id="Path_4097" data-name="Path 4097" d="M732.595,255.725c.639-1.36,1.632-2.316,2.222-2.139s.554,1.424-.081,2.791-1.643,2.353-2.237,2.17S731.946,257.1,732.595,255.725Z" transform="translate(-728.745 -245.612)" fill="#4f3131"/>
      <path id="Path_4098" data-name="Path 4098" d="M737.664,255.852c-.438-.883-7.652,8-8.187,9.859-.28.966,4.331,2.525,4.331,2.525S737.746,256.013,737.664,255.852Z" transform="translate(-728.597 -245.738)" fill="#ffb882"/>
      <path id="Path_4099" data-name="Path 4099" d="M737.232,255.947c-1.541,1.4-7.071,8.1-7.5,9.649-.2.728,2.6,1.875,3.765,2.274-.11.325-.171.518-.171.518s-5.078-1.384-4.769-2.351C729.13,264.253,736.437,255.821,737.232,255.947Z" transform="translate(-728.545 -245.747)" fill="#ea7b59"/>
      <path id="Path_4100" data-name="Path 4100" d="M740.134,257.837c.625-1.383,1.608-2.346,2.206-2.168s.6,1.44-.019,2.824-1.617,2.391-2.226,2.206S739.512,259.226,740.134,257.837Z" transform="translate(-729.174 -245.73)" fill="#4f3131"/>
      <path id="Path_4101" data-name="Path 4101" d="M741.322,249.971c-.1,1.839,4.42,3.782,5.375,3.221s1.744-1.24,1.176-2.142-3.663-4.058-4.693-3.787S741.372,249.131,741.322,249.971Z" transform="translate(-729.268 -245.254)" fill="#b54131"/>
      <path id="Path_4102" data-name="Path 4102" d="M737.546,248.59c-.826,1.439-5.691.719-5.893-.271s-.262-1.963.438-2.291,5.419-1.414,5.812-.591A4.4,4.4,0,0,1,737.546,248.59Z" transform="translate(-728.713 -245.134)" fill="#b54131"/>
    </g>
  </g>
  <g id="Group_1578" data-name="Group 1578" transform="translate(10.303 119.333)">
    <path id="Path_4103" data-name="Path 4103" d="M711.777,356.793c-.962,1.992-1.163,3.051-1.453,3.5s-1.021,2.052-1.816,2c-.814-.054-3.916-2.216-3.37-2.956s3.291-1.591,5.588-3.112C712.223,355.234,711.777,356.793,711.777,356.793Z" transform="translate(-701.521 -355.896)" fill="#ffb882"/>
    <path id="Path_4104" data-name="Path 4104" d="M709.679,361.434c-.674,1.325-2.326,5.358-2.86,5.416s1.241-5.706,1.241-5.706Z" transform="translate(-701.614 -356.193)" fill="#ffb882"/>
    <path id="Path_4105" data-name="Path 4105" d="M709.849,357.065c-2.124.3-5.916-.9-6.128-.425s5.007,2.273,5.007,2.273Z" transform="translate(-701.444 -355.932)" fill="#ffb882"/>
    <path id="Path_4106" data-name="Path 4106" d="M707.863,361.031c-1.079,1.032-4.01,4.381-4.658,4.3s2.886-4.981,2.886-4.981Z" transform="translate(-701.41 -356.148)" fill="#ffb882"/>
    <path id="Path_4107" data-name="Path 4107" d="M707.773,359.92c-1.443.434-5.687,2.122-6.4,1.813-.728-.317,4.692-3.011,4.692-3.011Z" transform="translate(-701.308 -356.056)" fill="#ffb882"/>
  </g>
  <g id="Group_1579" data-name="Group 1579" transform="translate(0 112.397)">
    <path id="Path_4108" data-name="Path 4108" d="M700.856,349.441c-.961,1.992-1.163,3.052-1.452,3.5s-1.022,2.052-1.817,2c-.814-.053-3.916-2.216-3.37-2.956s3.291-1.591,5.587-3.112C701.3,347.882,700.856,349.441,700.856,349.441Z" transform="translate(-690.6 -348.544)" fill="#ffb882"/>
    <path id="Path_4109" data-name="Path 4109" d="M698.758,354.082c-.673,1.323-2.326,5.358-2.86,5.415s1.24-5.707,1.24-5.707Z" transform="translate(-690.693 -348.841)" fill="#ffb882"/>
    <path id="Path_4110" data-name="Path 4110" d="M698.928,349.713c-2.125.3-5.916-.9-6.128-.424s5.008,2.272,5.008,2.272Z" transform="translate(-690.523 -348.58)" fill="#ffb882"/>
    <path id="Path_4111" data-name="Path 4111" d="M696.943,353.679c-1.08,1.032-4.01,4.381-4.659,4.3S695.17,353,695.17,353Z" transform="translate(-690.489 -348.796)" fill="#ffb882"/>
    <path id="Path_4112" data-name="Path 4112" d="M696.852,352.568c-1.443.434-5.687,2.122-6.4,1.813-.728-.317,4.692-3.011,4.692-3.011Z" transform="translate(-690.387 -348.704)" fill="#ffb882"/>
  </g>
</svg>
