<svg xmlns="http://www.w3.org/2000/svg" width="119.193" height="119.193" viewBox="0 0 119.193 119.193">
  <g id="Group_3727" data-name="Group 3727" transform="translate(-823.172 -1226.851)">
    <g id="Group_3669" data-name="Group 3669">
      <path id="Union_10" data-name="Union 10" d="M0,48.66A48.661,48.661,0,0,1,48.66,0h48.66V48.841h0A48.66,48.66,0,0,1,0,48.66Z" transform="matrix(-0.259, -0.966, 0.966, -0.259, 848.36, 1346.044)" fill="#6098bf"/>
      <ellipse id="Ellipse_474" data-name="Ellipse 474" cx="45.042" cy="45.043" rx="45.042" ry="45.043" transform="matrix(-0.259, -0.966, 0.966, -0.259, 850.919, 1341.613)" fill="#8fd83a"/>
    </g>
    <g id="Group_3668" data-name="Group 3668">
      <path id="Path_8640" data-name="Path 8640" d="M37.083,0A37.083,37.083,0,1,1,0,37.083,37.083,37.083,0,0,1,37.083,0Z" transform="matrix(-0.259, -0.966, 0.966, -0.259, 856.547, 1331.865)" fill="#fff"/>
      <g id="Group_3031" data-name="Group 3031" transform="translate(856.974 1257.063)">
        <path id="Path_3185" data-name="Path 3185" d="M521.388,530.026a.745.745,0,0,0,.745-.745v-8.015a.746.746,0,0,0-.745-.746h-4.041a.746.746,0,0,0-.745.746v8.015a.745.745,0,0,0,.745.745Zm-3.3-8.015h2.55v6.525h-2.55Z" transform="translate(-501.616 -502.687)" fill="#125072"/>
        <path id="Path_3186" data-name="Path 3186" d="M527.921,530.026h4.041a.745.745,0,0,0,.745-.745v-8.015a.746.746,0,0,0-.745-.746h-4.041a.745.745,0,0,0-.745.746v8.015A.744.744,0,0,0,527.921,530.026Zm.745-8.015h2.55v6.525h-2.55Z" transform="translate(-504.506 -502.687)" fill="#125072"/>
        <path id="Path_3187" data-name="Path 3187" d="M507.156,545.906a.745.745,0,0,0,.745-.745v-8.014a.745.745,0,0,0-.745-.745h-4.04a.745.745,0,0,0-.746.745v8.014a.745.745,0,0,0,.746.745Zm-3.3-8.014h2.551v6.524h-2.551Z" transform="translate(-497.726 -507.028)" fill="#125072"/>
        <path id="Path_3188" data-name="Path 3188" d="M552.725,545.906h4.04a.745.745,0,0,0,.746-.745v-8.014a.745.745,0,0,0-.746-.745h-4.04a.745.745,0,0,0-.745.745v8.014A.744.744,0,0,0,552.725,545.906Zm.745-8.014h2.551v6.524H553.47Z" transform="translate(-511.285 -507.028)" fill="#125072"/>
        <path id="Path_3189" data-name="Path 3189" d="M538.493,530.026h4.041a.745.745,0,0,0,.745-.745v-8.015a.746.746,0,0,0-.745-.746h-4.041a.746.746,0,0,0-.745.746v8.015A.745.745,0,0,0,538.493,530.026Zm.746-8.015h2.55v6.525h-2.55Z" transform="translate(-507.396 -502.687)" fill="#125072"/>
        <path id="Path_3190" data-name="Path 3190" d="M529.1,504.93a.745.745,0,1,0,1.49,0v-1.54h1.54a.745.745,0,0,0,0-1.49h-1.54v-1.54a.745.745,0,0,0-1.49,0v1.54h-1.54a.745.745,0,0,0,0,1.49h1.54Z" transform="translate(-504.406 -496.974)" fill="#125072"/>
        <path id="Path_3191" data-name="Path 3191" d="M546.1,517.671a.745.745,0,0,0,.745-.745v-2.682a.746.746,0,0,0-.745-.746h-4.521a.745.745,0,0,0,0,1.49h3.776v1.193H534.6v-1.193h3.276a.745.745,0,0,0,0-1.49H534.6v-3.493h1.144a.745.745,0,0,0,.745-.745v-2.683a.745.745,0,0,0-.745-.745h-6.647v-9.107a.746.746,0,0,0-.746-.746H514.48a.746.746,0,0,0-.746.746v9.108h-6.647a.744.744,0,0,0-.745.745v2.682a.745.745,0,0,0,.745.745h1.144V513.5H496.726a.746.746,0,0,0-.746.746v2.682a.746.746,0,0,0,.746.745h.331v4.9a.745.745,0,0,0,1.49,0v-4.9h9.685v24.871h-9.685V526.274a.745.745,0,1,0-1.49,0v16.268h-.331a.746.746,0,0,0-.746.745V546.1a.746.746,0,0,0,.746.745H546.1a.745.745,0,0,0,.745-.745v-2.818a.745.745,0,0,0-.745-.745h-.331v-24.87Zm-38.271-10.347h11.581a.745.745,0,1,0,0-1.49h-4.188V497.47H527.6v8.363h-3.971a.745.745,0,1,0,0,1.49H535v1.191H507.832Zm-10.362,7.665h10.761v1.193H497.47Zm12.251-4.984h23.385v32.536h-4.291V530.754a.745.745,0,0,0-.745-.745H514.758a.745.745,0,0,0-.745.745v11.788h-4.291Zm5.782,32.536V531.5h5.166v11.043ZM522.16,531.5h5.166v11.043H522.16Zm23.2,13.86H497.47v-1.327h47.888Zm-1.076-2.817H534.6v-24.87h9.684v24.87Z" transform="translate(-495.98 -495.98)" fill="#125072"/>
      </g>
    </g>
  </g>
</svg>
