<svg xmlns="http://www.w3.org/2000/svg" xmlns:xlink="http://www.w3.org/1999/xlink" width="137.632" height="137.632" viewBox="0 0 137.632 137.632">
  <defs>
    <filter id="Path_3193" x="41.607" y="41.299" width="52.054" height="60.568" filterUnits="userSpaceOnUse">
      <feOffset dy="3" input="SourceAlpha"/>
      <feGaussianBlur stdDeviation="3" result="blur"/>
      <feFlood flood-opacity="0.161"/>
      <feComposite operator="in" in2="blur"/>
      <feComposite in="SourceGraphic"/>
    </filter>
  </defs>
  <g id="Group_3728" data-name="Group 3728" transform="translate(-882.789 -1097.168)">
    <g id="Group_3667" data-name="Group 3667">
      <path id="Union_10" data-name="Union 10" d="M0,48.66A48.661,48.661,0,0,1,48.66,0H97.321V48.841h0A48.66,48.66,0,0,1,0,48.66Z" transform="translate(951.606 1234.801) rotate(-135)" fill="#6098bf"/>
      <circle id="Ellipse_474" data-name="Ellipse 474" cx="45.042" cy="45.042" r="45.042" transform="translate(951.606 1229.684) rotate(-135)" fill="#88ce38"/>
    </g>
    <g id="Group_3666" data-name="Group 3666">
      <path id="Path_8640" data-name="Path 8640" d="M37.083,0A37.083,37.083,0,1,1,0,37.083,37.083,37.083,0,0,1,37.083,0Z" transform="translate(951.606 1218.428) rotate(-135)" fill="#fff"/>
      <g id="Group_3035" data-name="Group 3035" transform="translate(933.396 1144.468)">
        <path id="Path_3192" data-name="Path 3192" d="M276.206,264.1l-1.083,1.029a8.409,8.409,0,0,1-2.533,1.653l-2.557,1.081a.709.709,0,0,0-.429.731l.239,2.165a13.6,13.6,0,0,0,6.343,9.982l.128.081a.711.711,0,0,0,.38.111.72.72,0,0,0,.381-.11l.128-.081a13.592,13.592,0,0,0,6.343-9.982l.24-2.165a.709.709,0,0,0-.429-.731l-2.557-1.08a8.408,8.408,0,0,1-2.532-1.653l-1.082-1.029a.71.71,0,0,0-.979,0Zm3.327,12.686a12.7,12.7,0,0,1-2.838,2.593,12.7,12.7,0,0,1-2.838-2.593v-.821a2.131,2.131,0,0,1,2.128-2.128H277.4a2.131,2.131,0,0,1,2.129,2.128ZM275.276,271a1.419,1.419,0,1,1,1.419,1.419A1.421,1.421,0,0,1,275.276,271Zm4.971-2.911,2.07.875-.182,1.639a11.8,11.8,0,0,1-1.363,4.305,3.545,3.545,0,0,0-1.871-2.146,2.813,2.813,0,0,0,.632-1.762,2.838,2.838,0,1,0-5.676,0,2.809,2.809,0,0,0,.632,1.762,3.543,3.543,0,0,0-1.871,2.146,11.824,11.824,0,0,1-1.363-4.305l-.182-1.639,2.069-.874a9.8,9.8,0,0,0,2.958-1.932l.594-.566.594.565a9.811,9.811,0,0,0,2.958,1.932Z" transform="translate(-243.35 -236.944)" fill="#125072"/>
        <g transform="matrix(1, 0, 0, 1, -50.61, -47.3)" filter="url(#Path_3193)">
          <path id="Path_3193-2" data-name="Path 3193" d="M227.826,221.709v41.149a.71.71,0,0,0,.709.709h28.378v-1.419H229.245V250.8h25.54v-1.419h-25.54V238.027h31.216v9.223h1.419v-25.54a.709.709,0,0,0-.709-.709H228.535A.71.71,0,0,0,227.826,221.709Zm1.419.709h31.216v14.189H229.245Z" transform="translate(-177.22 -173.7)" fill="#125072"/>
        </g>
        <path id="Path_3194" data-name="Path 3194" d="M256.532,228.354H254.4v-2.128a.71.71,0,0,0-.709-.709h-4.257a.709.709,0,0,0-.709.709v2.128H246.6a.71.71,0,0,0-.709.71v4.257a.709.709,0,0,0,.709.709h2.129v2.129a.709.709,0,0,0,.709.71h4.257a.71.71,0,0,0,.709-.71v-2.129h2.128a.709.709,0,0,0,.709-.709v-4.257A.71.71,0,0,0,256.532,228.354Zm-.709,4.257h-2.128a.71.71,0,0,0-.709.709v2.129h-2.838V233.32a.71.71,0,0,0-.709-.709h-2.129v-2.838h2.129a.71.71,0,0,0,.709-.709v-2.128h2.838v2.128a.71.71,0,0,0,.709.709h2.128Z" transform="translate(-234.539 -222.678)" fill="#125072"/>
        <path id="Path_3197" data-name="Path 3197" d="M254,254.653l-1,1,2.129,2.128a.708.708,0,0,0,1,0l4.966-4.966-1-1-4.465,4.465Z" transform="translate(-237.179 -232.452)" fill="#125072"/>
        <path id="Path_3198" data-name="Path 3198" d="M254,274.975l-1,1,2.129,2.128a.709.709,0,0,0,1,0l4.966-4.966-1-1-4.465,4.465Z" transform="translate(-237.179 -240.004)" fill="#125072"/>
        <path id="Path_3225" data-name="Path 3225" d="M923.98,526.073v-.758h-5.685v.758h2.654a1.139,1.139,0,0,1,1.072.758h-2.967v.758h2.967a1.141,1.141,0,0,1-1.072.758h-1.79a.863.863,0,0,0-.445,1.6l3.555,2.133.391-.65L919.1,529.3a.1.1,0,0,1,.054-.2h1.79a1.9,1.9,0,0,0,1.856-1.516h.8v-.758h-.8a1.879,1.879,0,0,0-.342-.758Z" transform="translate(-913.752 -505.728)" fill="#125072"/>
        <path id="Path_3225-2" data-name="Path 3225" d="M923.98,526.073v-.758h-5.685v.758h2.654a1.139,1.139,0,0,1,1.072.758h-2.967v.758h2.967a1.141,1.141,0,0,1-1.072.758h-1.79a.863.863,0,0,0-.445,1.6l3.555,2.133.391-.65L919.1,529.3a.1.1,0,0,1,.054-.2h1.79a1.9,1.9,0,0,0,1.856-1.516h.8v-.758h-.8a1.879,1.879,0,0,0-.342-.758Z" transform="translate(-913.752 -493.161)" fill="#125072"/>
      </g>
    </g>
  </g>
</svg>
