<svg xmlns="http://www.w3.org/2000/svg" width="119.193" height="119.193" viewBox="0 0 119.193 119.193">
  <g id="Group_3729" data-name="Group 3729" transform="translate(-823.172 -984.601)">
    <g id="Group_3665" data-name="Group 3665">
      <path id="Union_10" data-name="Union 10" d="M0,48.66A48.661,48.661,0,0,1,48.66,0H97.321V48.841h0A48.66,48.66,0,0,1,0,48.66Z" transform="translate(917.177 1103.794) rotate(-165)" fill="#6098bf"/>
      <ellipse id="Ellipse_474" data-name="Ellipse 474" cx="45.043" cy="45.042" rx="45.043" ry="45.042" transform="translate(914.619 1099.363) rotate(-165)" fill="#8fd83a"/>
    </g>
    <g id="Group_3664" data-name="Group 3664">
      <path id="Path_8640" data-name="Path 8640" d="M37.083,0A37.083,37.083,0,1,1,0,37.083,37.083,37.083,0,0,1,37.083,0Z" transform="translate(908.991 1089.615) rotate(-165)" fill="#fff"/>
      <g id="Group_3039" data-name="Group 3039" transform="translate(857.821 1021.631)">
        <path id="Path_3204" data-name="Path 3204" d="M936.162,549.085a3.816,3.816,0,0,0-5.068-1.25l-8.42,4.323a3.817,3.817,0,0,0-2.788-1.209h-5.737a1.424,1.424,0,0,1-.435-.033,2.776,2.776,0,0,1-.326-.283l-.055-.052c-4.61-4.342-8.51-4.067-12.948-2.319a3.076,3.076,0,0,1-1.461.319h-1.369a2.732,2.732,0,0,0-2.6-1.918h-4.221A2.733,2.733,0,0,0,888,549.393V560.46a2.732,2.732,0,0,0,2.728,2.728h4.221a2.734,2.734,0,0,0,2.606-1.92h2.425a1.107,1.107,0,0,1,.451.067c.092.026.207.058.354.1l10.913,2.922c.481.131.921.259,1.347.383a13.675,13.675,0,0,0,3.78.744,8.268,8.268,0,0,0,4.7-1.691l.024-.017L935,554.194a3.792,3.792,0,0,0,1.158-5.1ZM895.705,560.46a.768.768,0,0,1-.757.758h-4.221a.767.767,0,0,1-.757-.758V549.395a.768.768,0,0,1,.757-.761h4.221a.769.769,0,0,1,.757.761Zm38.154-7.879-13.442,9.575c-2.79,1.858-3.973,1.515-6.819.686-.436-.126-.884-.257-1.385-.392L901.3,559.527c-.138-.037-.244-.067-.329-.09a2.824,2.824,0,0,0-.983-.141h-2.3v-8.74h1.333a4.852,4.852,0,0,0,2.1-.456c3.944-1.555,6.988-1.739,10.873,1.921l.055.051a2.492,2.492,0,0,0,2.111.853h5.737a1.859,1.859,0,1,1,0,3.717h-9.3a.986.986,0,0,0,0,1.971h9.3a3.826,3.826,0,0,0,3.828-3.823,3.874,3.874,0,0,0-.1-.891L932,549.6a1.765,1.765,0,1,1,1.972,2.928c-.034.024-.07.045-.106.066Z" transform="translate(-887.999 -521.47)" fill="#125072"/>
        <path id="Path_3225" data-name="Path 3225" d="M926.98,526.474v-1.159h-8.686v1.159h4.054a1.739,1.739,0,0,1,1.637,1.158h-4.533v1.158h4.533a1.742,1.742,0,0,1-1.637,1.159h-2.735a1.318,1.318,0,0,0-.68,2.448l5.431,3.258.6-.993-5.432-3.259a.16.16,0,0,1,.083-.3h2.735a2.9,2.9,0,0,0,2.836-2.316H926.4v-1.158h-1.216a2.873,2.873,0,0,0-.522-1.158Z" transform="translate(-893.701 -517.452)" fill="#125072"/>
        <path id="Path_3226" data-name="Path 3226" d="M917.313,530.308h-1.157v1.158h1.157Z" transform="translate(-893.299 -518.392)" fill="#125072"/>
        <path id="Path_3227" data-name="Path 3227" d="M931.578,530.308H930.42v1.158h1.158Z" transform="translate(-895.984 -518.392)" fill="#125072"/>
        <g id="Group_600" data-name="Group 600" transform="translate(11.976 0)">
          <path id="Shape" d="M660.344-1.569a9.411,9.411,0,1,0,9.411,9.411A9.411,9.411,0,0,0,660.344-1.569Zm0,17.478a8.067,8.067,0,1,1,8.067-8.067A8.067,8.067,0,0,1,660.344,15.909Z" transform="translate(-642.875 4.258)" fill="#125072"/>
          <path id="Shape-2" data-name="Shape" d="M566.108-35.7a12.1,12.1,0,0,0-12.066,11.428h-.706a2.689,2.689,0,0,0-2.689,2.689v7.116l-.869-.869a.672.672,0,0,0-.942.008.672.672,0,0,0-.008.942l2.017,2.017a.672.672,0,0,0,.951,0l2.017-2.017a.672.672,0,0,0-.008-.942.672.672,0,0,0-.942-.008l-.869.869v-7.116a1.344,1.344,0,0,1,1.344-1.344h.706a12.1,12.1,0,0,0,11.394,11.394v1.773l-.2-.2a.672.672,0,0,0-.942.008.672.672,0,0,0-.008.942l1.344,1.344a.672.672,0,0,0,.951,0l1.345-1.344a.672.672,0,0,0-.008-.942.672.672,0,0,0-.942-.008l-.2.2v-1.773a12.092,12.092,0,0,0,11.425-12.41,12.092,12.092,0,0,0-12.1-11.756Zm0,22.856A10.756,10.756,0,0,1,555.352-23.6a10.756,10.756,0,0,1,10.756-10.756A10.756,10.756,0,0,1,576.864-23.6,10.768,10.768,0,0,1,566.108-12.847Z" transform="translate(-548.638 35.703)" fill="#125072"/>
        </g>
      </g>
    </g>
  </g>
</svg>
